<svg xmlns="http://www.w3.org/2000/svg" xmlns:xlink="http://www.w3.org/1999/xlink" viewBox="0 0 1000 197" height="197" width="1000"><style>
@keyframes a0_t { 0% { transform: translate(225px,339.9px) scale(0,1) translate(-89.5px,-24px); } 35% { transform: translate(225px,339.9px) scale(0,1) translate(-89.5px,-24px); animation-timing-function: cubic-bezier(.6,0,.4,1); } 45% { transform: translate(225px,339.9px) scale(1,1) translate(-89.5px,-24px); } 50% { transform: translate(225px,339.9px) scale(1,1) translate(-89.5px,-24px); animation-timing-function: cubic-bezier(.6,0,.4,1); } 60% { transform: translate(225px,339.9px) scale(0,1) translate(-89.5px,-24px); } 100% { transform: translate(225px,339.9px) scale(0,1) translate(-89.5px,-24px); } }
@keyframes a1_t { 0% { transform: translate(225px,348.9px) scale(0,1) translate(-41.5px,-11px); } 20% { transform: translate(225px,348.9px) scale(0,1) translate(-41.5px,-11px); animation-timing-function: cubic-bezier(.6,0,.4,1); } 30% { transform: translate(225px,348.9px) scale(1,1) translate(-41.5px,-11px); } 35% { transform: translate(225px,348.9px) scale(1,1) translate(-41.5px,-11px); } 45% { transform: translate(225px,348.9px) scale(0,1) translate(-41.5px,-11px); } 100% { transform: translate(225px,348.9px) scale(0,1) translate(-41.5px,-11px); } }
@keyframes a3_t { 0% { transform: translate(225px,198.9px) rotate(-90deg); } 10% { transform: translate(225px,198.9px) rotate(-90deg); } 20% { transform: translate(225px,198.9px) rotate(-90deg); animation-timing-function: cubic-bezier(.6,0,.4,1); } 30% { transform: translate(225px,198.9px) rotate(0deg); } 35% { transform: translate(225px,198.9px) rotate(0deg); } 45% { transform: translate(225px,198.9px) rotate(0deg); } 50% { transform: translate(225px,198.9px) rotate(0deg); animation-timing-function: cubic-bezier(.6,0,.4,1); } 60% { transform: translate(225px,198.9px) rotate(-90deg); } 65% { transform: translate(225px,198.9px) rotate(-90deg); } 75% { transform: translate(225px,198.9px) rotate(-90deg); } 100% { transform: translate(225px,198.9px) rotate(-90deg); } }
@keyframes a2_t { 0% { transform: translate(-200px,-167px); animation-timing-function: cubic-bezier(.6,0,.4,1); } 10% { transform: translate(-150px,-80px); } 20% { transform: translate(-150px,-80px); animation-timing-function: cubic-bezier(.6,0,.4,1); } 30% { transform: translate(-200px,-123px); } 35% { transform: translate(-200px,-123px); animation-timing-function: cubic-bezier(.6,0,.4,1); } 45% { transform: translate(-150px,-100px); } 50% { transform: translate(-150px,-100px); animation-timing-function: cubic-bezier(.6,0,.4,1); } 60% { transform: translate(-150px,-80px); } 65% { transform: translate(-150px,-80px); animation-timing-function: cubic-bezier(.6,0,.4,1); } 75% { transform: translate(-217px,-200px); } 100% { transform: translate(-217px,-200px); } }
@keyframes a2_o { 0% { opacity: 0; animation-timing-function: cubic-bezier(.6,0,.4,1); } 10% { opacity: 1; } 65% { opacity: 1; animation-timing-function: cubic-bezier(.6,0,.4,1); } 75% { opacity: 0; } 100% { opacity: 0; } }
@keyframes a2_sw { 0% { stroke-width: 30px; animation-timing-function: cubic-bezier(.6,0,.4,1); } 10% { stroke-width: 8px; } 65% { stroke-width: 8px; animation-timing-function: cubic-bezier(.6,0,.4,1); } 75% { stroke-width: 30px; } 100% { stroke-width: 30px; } }
@keyframes a2_w { 0% { width: 400px; animation-timing-function: cubic-bezier(.6,0,.4,1); } 10% { width: 300px; } 20% { width: 300px; animation-timing-function: cubic-bezier(.6,0,.4,1); } 30% { width: 400px; } 35% { width: 400px; animation-timing-function: cubic-bezier(.6,0,.4,1); } 45% { width: 300px; } 50% { width: 300px; } 60% { width: 300px; } 65% { width: 300px; animation-timing-function: cubic-bezier(.6,0,.4,1); } 75% { width: 434px; } 100% { width: 434px; } }
@keyframes a2_h { 0% { height: 334px; animation-timing-function: cubic-bezier(.6,0,.4,1); } 10% { height: 160px; } 20% { height: 160px; animation-timing-function: cubic-bezier(.6,0,.4,1); } 30% { height: 246px; } 35% { height: 246px; animation-timing-function: cubic-bezier(.6,0,.4,1); } 45% { height: 200px; } 50% { height: 200px; animation-timing-function: cubic-bezier(.6,0,.4,1); } 60% { height: 160px; } 65% { height: 160px; animation-timing-function: cubic-bezier(.6,0,.4,1); } 75% { height: 400px; } 100% { height: 400px; } }
@keyframes a4_t { 0% { transform: translate(143.5px,48.9px); } 10% { transform: translate(180.5px,98.9px); } 100% { transform: translate(180.5px,98.9px); } }
@keyframes a4_w { 0% { width: 168.5px; } 10% { width: 94.5px; } 100% { width: 94.5px; } }
@keyframes a4_h { 0% { height: 302px; } 10% { height: 202px; } 100% { height: 202px; } }
@keyframes a5_t { 0% { transform: translate(217px,324.9px); animation-timing-function: cubic-bezier(.6,0,.4,1); } 10% { transform: translate(190px,324.9px); } 20% { transform: translate(190px,324.9px); } 30% { transform: translate(190px,324.9px); } 100% { transform: translate(190px,324.9px); } }
@keyframes a5_o { 0% { opacity: 0; animation-timing-function: cubic-bezier(.6,0,.4,1); } 10% { opacity: 1; } 20% { opacity: 1; } 30% { opacity: 0; } 100% { opacity: 0; } }
@keyframes a5_w { 0% { width: 16px; animation-timing-function: cubic-bezier(.6,0,.4,1); } 10% { width: 70px; } 20% { width: 70px; } 30% { width: 70px; } 100% { width: 70px; } }
@keyframes a6_t { 0% { transform: translate(217px,324.9px); } 50% { transform: translate(217px,324.9px); animation-timing-function: cubic-bezier(.6,0,.4,1); } 60% { transform: translate(190px,324.9px); } 65% { transform: translate(190px,324.9px); } 75% { transform: translate(190px,324.9px); } 100% { transform: translate(190px,324.9px); } }
@keyframes a6_o { 0% { opacity: 0; } 50% { opacity: 0; animation-timing-function: cubic-bezier(.6,0,.4,1); } 60% { opacity: 1; } 65% { opacity: 1; animation-timing-function: cubic-bezier(.6,0,.4,1); } 75% { opacity: 0; } 100% { opacity: 0; } }
@keyframes a6_w { 0% { width: 16px; } 50% { width: 16px; animation-timing-function: cubic-bezier(.6,0,.4,1); } 60% { width: 70px; } 65% { width: 70px; } 75% { width: 70px; } 100% { width: 70px; } }
@keyframes a7_t { 0% { transform: translate(225px,198.9px) scale(1.5,1.5) translate(-42.3px,-93px); animation-timing-function: cubic-bezier(.6,0,.4,1); } 10% { transform: translate(225px,198.9px) scale(1,1) translate(-42.3px,-93px); } 20% { transform: translate(225px,198.9px) scale(1,1) translate(-42.3px,-93px); animation-timing-function: cubic-bezier(.6,0,.4,1); } 25% { transform: translate(225px,198.9px) scale(.8,.8) translate(-42.3px,-93px); animation-timing-function: cubic-bezier(.6,0,.4,1); } 30% { transform: translate(225px,198.9px) scale(1,1) translate(-42.3px,-93px); } 35% { transform: translate(225px,198.9px) scale(1,1) translate(-42.3px,-93px); animation-timing-function: cubic-bezier(.4,0,.6,1); } 45% { transform: translate(225px,198.9px) scale(.8,.8) translate(-42.3px,-93px); } 50% { transform: translate(225px,198.9px) scale(.8,.8) translate(-42.3px,-93px); animation-timing-function: cubic-bezier(.4,0,.6,1); } 55% { transform: translate(225px,198.9px) scale(.7,.7) translate(-42.3px,-93px); animation-timing-function: cubic-bezier(.4,0,.6,1); } 60% { transform: translate(225px,198.9px) scale(1,1) translate(-42.3px,-93px); } 65% { transform: translate(225px,198.9px) scale(1,1) translate(-42.3px,-93px); animation-timing-function: cubic-bezier(.4,0,.6,1); } 75% { transform: translate(225px,198.9px) scale(1.5,1.5) translate(-42.3px,-93px); } 100% { transform: translate(225px,198.9px) scale(1.5,1.5) translate(-42.3px,-93px); } }
</style><defs><symbol id="Symbol-2" preserveAspectRatio="none" width="111.5" height="186" viewBox="0 0 111.5 186" overflow="visible"><g transform="translate(8.5,4.5)"><rect x="4" width="85" height="8" fill="#d9d9d9"/><rect x="4" y="26" width="85" height="8" fill="#d9d9d9"/><rect x="25" y="56" width="43" height="8" fill="#d9d9d9"/><rect width="85" height="8" fill="#d9d9d9" transform="translate(46.5,175) rotate(180) scale(-1,1) translate(-42.5,-4)"/><rect width="85" height="8" fill="#d9d9d9" transform="translate(46.5,149) rotate(180) scale(-1,1) translate(-42.5,-4)"/><rect width="43" height="8" fill="#d9d9d9" transform="translate(46.5,119) rotate(180) scale(-1,1) translate(-21.5,-4)"/><path d="M0 4c0 53 94.5 115 94.5 169" stroke="#3cc4dc" stroke-width="17" stroke-linecap="square" fill="none"/><path d="M94.5 4c0 53-94.5 115-94.5 169" stroke="#fb422d" stroke-width="17" stroke-linecap="square" fill="none"/></g></symbol><symbol id="Symbol-5" preserveAspectRatio="none" width="84.5" height="186" viewBox="0 0 84.5 186" overflow="visible"><g transform="translate(42.3,93) scale(5.352,6.9) translate(-16,60)"><g transform="translate(-34.9,-125.8)"><g transform="translate(24,5)"><path d="M33 46.5c0 3.1-0.8 5.5-2.2 7.4c-1.4 1.9-3.3 3.6-5.4 5.4c-2.2 1.7-4.5 3.6-6.3 6.2c-1.8 2.5-3.1 5.5-3.1 9.5h4.7c0-3.1 .9-5.4 2.2-7.3c1.4-1.9 3.3-3.5 5.5-5.3c2.1-1.8 4.4-3.7 6.2-6.2c1.8-2.6 3.1-5.6 3.1-9.7Z" fill="#e96020"/><path d="M20.4 70.7c-0.6 0-1 .5-1 1.1c0 .7 .4 1.2 1 1.2h12.9c.7 0 1.2-0.5 1.2-1.2c0-0.6-0.5-1.1-1.2-1.1Z" fill="#2d323b"/><path d="M21.8 66.6c-0.7 0-1 .6-1 1.2c0 .6 .3 1 .9 1h10.3c.6 0 1.1-0.5 1.1-1.1c0-0.6-0.5-1.1-1.1-1.1Z" fill="#2d323b"/><path d="M21.8 53c-0.7 0-1.2 .5-1.1 1.1c0 .6 .4 1.1 1.1 1.1h10.2c.6 0 .9-0.6 .9-1.2c0-0.6-0.3-1-0.9-1Z" fill="#2d323b"/><path d="M20.4 48.8c-0.6 0-1.2 .5-1.2 1.1c0 .7 .6 1.2 1.2 1.2h12.9c.7 0 1-0.5 1-1.1c0-0.7-0.3-1.2-1-1.2Z" fill="#2d323b"/><path d="M16 46.5c0 4.1 1.3 7.1 3.1 9.7c1.8 2.5 4.1 4.4 6.3 6.2c2.1 1.8 4 3.6 5.4 5.5c1.4 1.9 2.2 4 2.2 7.1h4.7c0-4-1.3-7.1-3.1-9.6c-1.8-2.5-4.1-4.4-6.2-6.2c-2.2-1.8-4.1-3.4-5.5-5.3c-1.3-1.9-2.2-4.3-2.2-7.4Z" fill="#00a8d6"/></g></g></g></symbol></defs><path fill="#393939" d="M62.9 118.9v-58.4h17.3c4 0 7.4 .8 10.3 2.3c2.9 1.5 5.2 3.6 6.8 6.4c1.6 2.7 2.4 5.9 2.4 9.6v21.8c0 3.7-0.8 6.9-2.4 9.6c-1.6 2.8-3.9 4.9-6.8 6.4c-2.9 1.6-6.3 2.3-10.3 2.3Zm10-8.9h7.3c2.9 0 5.2-0.9 6.9-2.6c1.7-1.6 2.6-3.9 2.6-6.8v-21.8c0-2.9-0.9-5.1-2.6-6.8c-1.7-1.7-4-2.5-6.9-2.5h-7.3Zm39.2 8.9v-9h11.7v-40.3h-11.7v-9.1h33.6v9.1h-11.8v40.3h11.8v9Zm64.8 .8c-5.6 0-10.1-1.5-13.3-4.7c-3.3-3.1-5-7.3-5-12.6v-25.4c0-5.3 1.7-9.5 5-12.6c3.2-3.1 7.7-4.7 13.3-4.7c5.6 0 10 1.6 13.3 4.7c3.3 3.1 4.9 7.3 4.9 12.5v25.5c0 5.3-1.6 9.5-4.9 12.6c-3.3 3.2-7.7 4.7-13.3 4.7Zm0-8.8c2.7 0 4.7-0.7 6.1-2.2c1.4-1.4 2.1-3.5 2.1-6.3v-25.4c0-2.7-0.7-4.8-2.1-6.3c-1.4-1.4-3.4-2.2-6.1-2.2c-2.7 0-4.8 .8-6.2 2.2c-1.4 1.5-2.1 3.6-2.1 6.3v25.4c0 2.8 .7 4.9 2.1 6.3c1.4 1.5 3.5 2.2 6.2 2.2Zm26.2 8l16.2-29.9l-15.2-28.5h11.2l7.3 14.7c.6 1 1 2.1 1.5 3c.4 1 .7 1.8 .9 2.3c.2-0.5 .5-1.3 .9-2.3c.4-0.9 .9-2 1.5-3l7.4-14.7h10.9l-15.2 28.3l16.1 30.1h-11.2l-8.2-16.1c-0.5-1.1-1-2.1-1.5-3.1c-0.4-1.1-0.8-1.9-1-2.5c-0.2 .6-0.5 1.4-0.9 2.4c-0.5 1.1-1 2.1-1.5 3.2l-8.3 16.1Zm69.8 .8c-5.7 0-10.2-1.5-13.4-4.7c-3.3-3.1-4.9-7.3-4.9-12.7v-41.8h10.1v41.7c0 2.8 .7 4.9 2.1 6.5c1.4 1.5 3.4 2.3 6.1 2.3c2.6 0 4.6-0.8 6-2.3c1.4-1.6 2.1-3.7 2.1-6.5v-41.7h10.1v41.8c0 5.4-1.6 9.6-4.8 12.7c-3.2 3.2-7.7 4.7-13.4 4.7Zm48.1 0c-4 0-7.4-0.7-10.3-2c-2.9-1.4-5.2-3.3-6.8-5.8c-1.7-2.5-2.5-5.4-2.5-8.7h10c0 2.4 .9 4.3 2.7 5.7c1.7 1.4 4.1 2.1 7 2.1c2.9 0 5.1-0.7 6.8-2.1c1.6-1.4 2.4-3.3 2.4-5.7c0-1.9-0.5-3.6-1.7-5c-1.1-1.5-2.6-2.4-4.6-3l-7-1.9c-4.6-1.2-8.1-3.3-10.6-6.3c-2.5-3.1-3.8-6.7-3.8-11c0-4.9 1.7-8.9 5-11.8c3.3-3 7.8-4.5 13.4-4.5c5.6 0 10.1 1.5 13.4 4.4c3.4 2.9 5 6.8 5 11.7h-10c0-2.2-0.7-4-2.2-5.4c-1.6-1.3-3.7-2-6.3-2c-2.6 0-4.7 .7-6.1 2c-1.5 1.3-2.2 3.1-2.2 5.5c0 1.8 .5 3.4 1.6 4.7c1.1 1.3 2.7 2.3 4.8 2.8l7.1 2c4.5 1.2 8 3.3 10.5 6.4c2.5 3 3.7 6.7 3.7 11.1c0 3.4-0.8 6.3-2.4 8.9c-1.6 2.5-3.8 4.5-6.7 5.8c-2.9 1.4-6.3 2.1-10.2 2.1Z"/><g transform="translate(774,-14.5) scale(.431111,.440249) translate(-13.9,56.6)"><path fill="#0f1116" stroke="#0f1116" stroke-linejoin="round" d="M-50.7 4h278.2c10 0 9 0 9 0l41 40c0 0 1 0-9 0h-358c-9.9 0-9 0-9 0l38.8-40c0 0-0.9 0 9 0Z" stroke-width="10" transform="translate(225,339.9) scale(0,1) translate(-89.5,-24)" style="animation: 10s linear infinite both a0_t;"/><rect width="83" height="22" stroke="#fb422d" fill="#0f1116" rx="2" stroke-width="0" transform="translate(225,348.9) scale(0,1) translate(-41.5,-11)" style="animation: 10s linear infinite both a1_t;"/><g style="animation: 10s linear infinite both a3_t;"><rect width="400" height="334" stroke="#0f1116" fill="none" stroke-width="30" stroke-miterlimit="1" rx="10" opacity="0" transform="translate(225,198.9) rotate(-90) translate(-200,-167)" style="animation: 10s linear infinite both a2_t, 10s linear infinite both a2_o, 10s linear infinite both a2_sw, 10s linear infinite both a2_w, 10s linear infinite both a2_h;"/></g><use width="168.5" height="302" xlink:href="#Symbol-2" opacity="0" transform="translate(227.8,199.9) translate(-84.2,-151)" style="animation: 10s linear infinite both a4_t, 10s linear infinite both a4_w, 10s linear infinite both a4_h;"/><rect width="16" height="8" stroke="#fb422d" fill="#0f1116" stroke-width="0" rx="2" opacity="0" transform="translate(225,328.9) translate(-8,-4)" style="animation: 10s linear infinite both a5_t, 10s linear infinite both a5_o, 10s linear infinite both a5_w;"/><rect width="16" height="8" stroke="#fb422d" fill="#0f1116" stroke-width="0" rx="2" opacity="0" transform="translate(225,328.9) translate(-8,-4)" style="animation: 10s linear infinite both a6_t, 10s linear infinite both a6_o, 10s linear infinite both a6_w;"/><g transform="translate(225,198.9) scale(1.5,1.5) translate(-42.3,-93)" style="animation: 10s linear infinite both a7_t;"><g transform="translate(42.3,93) scale(5.352,6.9) translate(-16,60)"><g transform="translate(-34.9,-125.8)"><g transform="translate(24,5)"><path d="M33 46.5c0 3.1-0.8 5.5-2.2 7.4c-1.4 1.9-3.3 3.6-5.4 5.4c-2.2 1.7-4.5 3.6-6.3 6.2c-1.8 2.5-3.1 5.5-3.1 9.5h4.7c0-3.1 .9-5.4 2.2-7.3c1.4-1.9 3.3-3.5 5.5-5.3c2.1-1.8 4.4-3.7 6.2-6.2c1.8-2.6 3.1-5.6 3.1-9.7Z" fill="#e96020"/><path d="M20.4 70.7c-0.6 0-1 .5-1 1.1c0 .7 .4 1.2 1 1.2h12.9c.7 0 1.2-0.5 1.2-1.2c0-0.6-0.5-1.1-1.2-1.1Z" fill="#2d323b"/><path d="M21.8 66.6c-0.7 0-1 .6-1 1.2c0 .6 .3 1 .9 1h10.3c.6 0 1.1-0.5 1.1-1.1c0-0.6-0.5-1.1-1.1-1.1Z" fill="#2d323b"/><path d="M21.8 53c-0.7 0-1.2 .5-1.1 1.1c0 .6 .4 1.1 1.1 1.1h10.2c.6 0 .9-0.6 .9-1.2c0-0.6-0.3-1-0.9-1Z" fill="#2d323b"/><path d="M20.4 48.8c-0.6 0-1.2 .5-1.2 1.1c0 .7 .6 1.2 1.2 1.2h12.9c.7 0 1-0.5 1-1.1c0-0.7-0.3-1.2-1-1.2Z" fill="#2d323b"/><path d="M16 46.5c0 4.1 1.3 7.1 3.1 9.7c1.8 2.5 4.1 4.4 6.3 6.2c2.1 1.8 4 3.6 5.4 5.5c1.4 1.9 2.2 4 2.2 7.1h4.7c0-4-1.3-7.1-3.1-9.6c-1.8-2.5-4.1-4.4-6.2-6.2c-2.2-1.8-4.1-3.4-5.5-5.3c-1.3-1.9-2.2-4.3-2.2-7.4Z" fill="#00a8d6"/></g></g></g></g></g><path fill="#393939" d="M63.9 163.5v-13.1h3.8c1.2 0 2.1 .3 2.8 .9c.7 .6 1 1.4 1 2.5c0 .7-0.2 1.3-0.5 1.8c-0.4 .5-0.9 .8-1.5 .9c.7 .3 1.3 .6 1.7 1.2c.4 .6 .6 1.3 .6 2.1c0 1.2-0.3 2.1-1 2.7c-0.7 .7-1.7 1-2.9 1Zm1.6-7.5h2.2c.6 0 1.2-0.2 1.6-0.6c.4-0.4 .6-0.9 .6-1.5c0-0.7-0.2-1.2-0.6-1.5c-0.4-0.4-0.9-0.6-1.6-0.6h-2.2Zm0 6h2.3c.7 0 1.3-0.2 1.8-0.6c.4-0.4 .6-0.9 .6-1.6c0-0.7-0.2-1.3-0.6-1.8c-0.5-0.4-1.1-0.6-1.8-0.6h-2.3Zm12.9 1.7c-1.1 0-2-0.4-2.7-1c-0.7-0.7-1-1.6-1-2.8v-6.3h1.6v6.3c0 .7 .2 1.3 .6 1.7c.4 .4 .9 .7 1.5 .7c.7 0 1.3-0.3 1.6-0.7c.4-0.4 .6-1 .6-1.7v-6.3h1.6v6.3c0 1.2-0.3 2.1-1 2.8c-0.7 .6-1.6 1-2.8 1Zm7-0.2v-1.5h3.5v-6.9h-3.1v-1.5h4.7v8.4h3.4v1.5Zm4.1-11.7c-0.4 0-0.7-0.1-0.9-0.3c-0.2-0.2-0.3-0.5-0.3-0.8c0-0.4 .1-0.7 .3-0.9c.2-0.2 .5-0.3 .9-0.3c.4 0 .7 .1 1 .3c.2 .2 .3 .5 .3 .9c0 .3-0.1 .6-0.3 .8c-0.3 .2-0.6 .3-1 .3Zm12 11.7c-0.9 0-1.6-0.3-2.1-0.8c-0.5-0.5-0.8-1.2-0.8-2v-8.9h-3.4v-1.4h5v10.3c0 .4 .2 .7 .4 1c.2 .2 .5 .3 .9 .3h3.1v1.5Zm8.8 .2c-1 0-1.8-0.4-2.4-1c-0.6-0.7-0.9-1.6-0.9-2.7v-2.9c0-1.1 .3-2 .9-2.7c.6-0.7 1.4-1 2.4-1c.7 0 1.3 .2 1.8 .6c.5 .3 .8 .9 .9 1.5v-2.3v-2.8h1.6v13.1h-1.6v-1.9c-0.1 .7-0.4 1.2-0.9 1.5c-0.5 .4-1.1 .6-1.8 .6Zm.5-1.4c.7 0 1.2-0.2 1.6-0.7c.4-0.4 .6-1 .6-1.7v-2.7c0-0.7-0.2-1.3-0.6-1.7c-0.4-0.5-0.9-0.7-1.6-0.7c-0.7 0-1.2 .2-1.6 .6c-0.4 .4-0.6 1-0.6 1.8v2.7c0 .8 .2 1.4 .6 1.8c.4 .4 .9 .6 1.6 .6Zm18.5 1.2l-1.6-9.9h1.4l1 7c0 .3 0 .6 .1 .9c0 .3 0 .5 .1 .7c.1-0.2 .1-0.4 .1-0.7c.1-0.3 .1-0.6 .1-0.9l1.1-7h1.7l1.1 7c0 .3 .1 .6 .1 .9c0 .3 .1 .5 .1 .7c.1-0.2 .1-0.4 .1-0.7c.1-0.3 .1-0.6 .2-0.9l1-7h1.3l-1.6 9.9h-1.8l-1.1-6.8c0-0.4-0.1-0.7-0.1-1c-0.1-0.4-0.1-0.6-0.1-0.8h-0.1c0 .2 0 .4-0.1 .8c0 .3-0.1 .6-0.1 1l-1.2 6.8Zm13.9 .2c-0.7 0-1.4-0.2-2-0.5c-0.6-0.3-1-0.7-1.3-1.3c-0.4-0.6-0.5-1.2-0.5-2v-2.7c0-0.8 .1-1.4 .5-2c.3-0.6 .7-1 1.3-1.3c.6-0.3 1.3-0.5 2-0.5c.8 0 1.5 .2 2.1 .5c.6 .3 1 .7 1.3 1.3c.4 .6 .5 1.2 .5 2v1.7h-6.1v1c0 .8 .2 1.4 .6 1.8c.4 .4 .9 .6 1.6 .6c.7 0 1.2-0.1 1.6-0.3c.3-0.2 .6-0.6 .7-1h1.6c-0.1 .8-0.5 1.5-1.2 1.9c-0.7 .5-1.6 .8-2.7 .8Zm-2.2-6h4.5v-0.5c0-0.8-0.2-1.4-0.6-1.8c-0.3-0.4-0.9-0.6-1.7-0.6c-0.7 0-1.2 .2-1.6 .6c-0.4 .4-0.6 1-0.6 1.8Zm13.6 6c-0.7 0-1.3-0.2-1.8-0.6c-0.5-0.3-0.8-0.8-0.9-1.5v1.9h-1.6v-13.1h1.6v2.8v2.3c.1-0.6 .4-1.2 .9-1.5c.5-0.4 1.1-0.6 1.8-0.6c1 0 1.8 .3 2.4 1c.6 .7 .9 1.6 .9 2.7v2.9c0 1.1-0.3 2-0.9 2.7c-0.6 .6-1.4 1-2.4 1Zm-0.5-1.4c.7 0 1.2-0.2 1.6-0.6c.4-0.4 .6-1 .6-1.8v-2.7c0-0.8-0.2-1.4-0.6-1.8c-0.4-0.4-0.9-0.6-1.6-0.6c-0.7 0-1.2 .2-1.6 .7c-0.4 .4-0.6 1-0.6 1.7v2.7c0 .7 .2 1.3 .6 1.7c.4 .5 .9 .7 1.6 .7Zm8.3 4.1l1.5-5.6h2.3l-2.3 5.6Zm23.5-2.7c-1 0-1.8-0.4-2.4-1c-0.6-0.7-0.9-1.6-0.9-2.7v-2.9c0-1.1 .3-2 .9-2.7c.6-0.7 1.4-1 2.4-1c.7 0 1.3 .2 1.8 .6c.5 .3 .8 .9 .8 1.5h.1v-2.3v-2.8h1.6v13.1h-1.6v-1.9h-0.1c0 .7-0.3 1.2-0.8 1.5c-0.5 .4-1.1 .6-1.8 .6Zm.5-1.4c.7 0 1.2-0.2 1.6-0.7c.4-0.4 .6-1 .6-1.7v-2.7c0-0.7-0.2-1.3-0.6-1.7c-0.4-0.5-0.9-0.7-1.6-0.7c-0.7 0-1.2 .2-1.6 .6c-0.4 .4-0.6 1-0.6 1.8v2.7c0 .8 .2 1.4 .6 1.8c.4 .4 .9 .6 1.6 .6Zm10.8 1.4c-0.7 0-1.4-0.2-2-0.5c-0.6-0.3-1-0.7-1.4-1.3c-0.3-0.6-0.4-1.2-0.4-2v-2.7c0-0.8 .1-1.4 .4-2c.4-0.6 .8-1 1.4-1.3c.6-0.3 1.3-0.5 2-0.5c.8 0 1.5 .2 2.1 .5c.6 .3 1 .7 1.3 1.3c.3 .6 .5 1.2 .5 2v1.7h-6.2v1c0 .8 .2 1.4 .6 1.8c.4 .4 1 .6 1.7 .6c.7 0 1.2-0.1 1.5-0.3c.4-0.2 .7-0.6 .7-1h1.7c-0.1 .8-0.5 1.5-1.2 1.9c-0.7 .5-1.6 .8-2.7 .8Zm-2.3-6h4.6v-0.5c0-0.8-0.2-1.4-0.6-1.8c-0.4-0.4-0.9-0.6-1.7-0.6c-0.7 0-1.3 .2-1.7 .6c-0.4 .4-0.6 1-0.6 1.8Zm12.8 5.9c-1 0-1.8-0.2-2.5-0.7c-0.6-0.4-1-1.1-1-1.9h1.7c0 .4 .2 .7 .5 .9c.4 .2 .8 .3 1.4 .3h.7c.7 0 1.1-0.1 1.4-0.4c.3-0.2 .5-0.6 .5-1c0-0.4-0.1-0.8-0.4-1c-0.3-0.3-0.8-0.4-1.3-0.5l-1.3-0.2c-1-0.2-1.7-0.5-2.2-1c-0.5-0.4-0.7-1.1-0.7-1.9c0-0.9 .3-1.5 .9-2c.5-0.5 1.4-0.7 2.5-0.7h.7c1 0 1.8 .2 2.4 .6c.6 .5 .9 1.1 .9 1.8h-1.7c0-0.3-0.1-0.5-0.4-0.7c-0.3-0.2-0.8-0.3-1.3-0.3h-0.7c-0.5 0-1 .1-1.3 .3c-0.3 .3-0.4 .6-0.4 1c0 .8 .5 1.2 1.5 1.4l1.3 .2c1.1 .2 1.9 .5 2.4 .9c.4 .5 .7 1.1 .7 2c0 .9-0.3 1.6-0.9 2.2c-0.6 .5-1.4 .7-2.6 .7Zm7.4-0.1v-13.1h1.7v7.3h1.9l2.8-4.1h1.9l-3.3 4.7l3.4 5.2h-1.9l-2.9-4.4h-1.9v4.4Zm15.6 0c-0.8 0-1.5-0.2-2-0.7c-0.5-0.5-0.7-1.1-0.7-1.9v-5.8h-2.8v-1.5h2.8v-2.8h1.6v2.8h4v1.5h-4v5.8c0 .3 .1 .6 .3 .8c.2 .2 .5 .3 .8 .3h2.7v1.5Zm9.7 .1c-1.2 0-2.1-0.3-2.8-1c-0.7-0.7-1-1.6-1-2.7v-2.7c0-1.1 .3-2.1 1-2.7c.7-0.7 1.6-1 2.8-1c1.2 0 2.2 .3 2.9 1c.6 .6 1 1.6 1 2.7v2.7c0 1.1-0.4 2-1 2.7c-0.7 .7-1.7 1-2.9 1Zm0-1.4c.7 0 1.3-0.2 1.7-0.6c.4-0.4 .6-1 .6-1.7v-2.7c0-0.7-0.2-1.3-0.6-1.7c-0.4-0.4-1-0.6-1.7-0.6c-0.7 0-1.2 .2-1.6 .6c-0.4 .4-0.6 1-0.6 1.7v2.7c0 .7 .2 1.3 .6 1.7c.4 .4 .9 .6 1.6 .6Zm7.1 4.5v-13.1h1.6v1.9c.1-0.7 .4-1.2 .9-1.5c.5-0.4 1.1-0.6 1.8-0.6c1 0 1.8 .3 2.4 1c.6 .7 .9 1.6 .9 2.7v2.9c0 1.1-0.3 2-0.9 2.7c-0.6 .6-1.4 1-2.4 1c-0.7 0-1.3-0.2-1.8-0.6c-0.5-0.4-0.8-0.9-0.9-1.5v2.3v2.8Zm3.8-4.4c.7 0 1.2-0.2 1.6-0.6c.4-0.4 .6-1 .6-1.8v-2.7c0-0.8-0.2-1.4-0.6-1.8c-0.4-0.4-0.9-0.6-1.6-0.6c-0.7 0-1.2 .2-1.6 .7c-0.4 .4-0.6 1-0.6 1.7v2.7c0 .7 .2 1.3 .6 1.7c.4 .5 .9 .7 1.6 .7Zm8.3 4.1l1.4-5.6h2.4l-2.4 5.6Zm23.1-2.7c-1 0-1.8-0.3-2.4-0.8c-0.6-0.6-0.9-1.3-0.9-2.2c0-0.9 .3-1.6 .9-2.2c.6-0.5 1.4-0.8 2.4-0.8h3.1v-1c0-0.6-0.2-1-0.6-1.4c-0.3-0.3-0.9-0.5-1.5-0.5c-0.6 0-1.1 .2-1.5 .4c-0.4 .3-0.6 .6-0.7 1h-1.6c0-0.5 .2-1 .6-1.4c.3-0.5 .8-0.8 1.3-1c.6-0.3 1.2-0.4 1.9-0.4c1.1 0 2 .3 2.7 .9c.7 .6 1 1.4 1 2.4v6.8h-1.6v-1.9c-0.1 .6-0.4 1.1-0.9 1.5c-0.6 .4-1.3 .6-2.2 .6Zm.4-1.3c.8 0 1.4-0.2 1.9-0.6c.5-0.4 .8-0.9 .8-1.5v-1.4h-3.1c-0.5 0-0.9 .2-1.2 .5c-0.3 .3-0.5 .7-0.5 1.2c0 .6 .2 1 .6 1.3c.3 .3 .9 .5 1.5 .5Zm7.6 1.1v-9.9h1.6v1.9c.1-0.7 .4-1.2 .8-1.5c.5-0.4 1.1-0.6 1.8-0.6c1 0 1.8 .3 2.4 .9c.6 .6 .9 1.5 .9 2.5v6.7h-1.6v-6.5c0-0.7-0.2-1.2-0.6-1.6c-0.4-0.4-0.9-0.6-1.5-0.6c-0.7 0-1.2 .2-1.6 .6c-0.4 .4-0.6 1-0.6 1.8v6.3Zm13.9 .2c-1 0-1.8-0.4-2.4-1c-0.6-0.7-0.9-1.6-0.9-2.7v-2.9c0-1.1 .3-2 .9-2.7c.6-0.7 1.4-1 2.4-1c.8 0 1.4 .2 1.9 .6c.4 .3 .7 .9 .8 1.5h.1l-0.1-2.3v-2.8h1.6v13.1h-1.6v-1.9c-0.1 .7-0.4 1.2-0.8 1.5c-0.5 .4-1.1 .6-1.9 .6Zm.6-1.4c.6 0 1.2-0.2 1.5-0.7c.4-0.4 .6-1 .6-1.7v-2.7c0-0.7-0.2-1.3-0.6-1.7c-0.3-0.5-0.9-0.7-1.5-0.7c-0.7 0-1.3 .2-1.7 .6c-0.4 .4-0.5 1-0.5 1.8v2.7c0 .8 .1 1.4 .5 1.8c.4 .4 1 .6 1.7 .6Zm17.3 1.2v-9.9h1.4v1.2h.1c.1-0.4 .3-0.8 .6-1c.3-0.3 .6-0.4 1.1-0.4c.4 0 .7 .1 1 .4c.3 .2 .5 .6 .6 1h.1c.1-0.4 .3-0.8 .6-1c.3-0.3 .7-0.4 1.1-0.4c.6 0 1.1 .3 1.5 .7c.3 .5 .5 1.1 .5 1.9v7.5h-1.5v-7.5c0-0.5-0.1-0.8-0.3-1c-0.1-0.2-0.4-0.3-0.8-0.3c-0.3 0-0.6 .1-0.8 .3c-0.2 .2-0.3 .5-0.3 .9v7.6h-1.3v-7.5c0-0.5-0.1-0.8-0.2-1c-0.2-0.2-0.5-0.3-0.9-0.3c-0.3 0-0.6 .1-0.8 .3c-0.1 .2-0.2 .5-0.2 .9v7.6Zm15.1 .1c-1.2 0-2.2-0.3-2.8-1c-0.7-0.7-1.1-1.6-1.1-2.7v-2.7c0-1.1 .4-2.1 1.1-2.7c.6-0.7 1.6-1 2.8-1c1.2 0 2.1 .3 2.8 1c.7 .6 1.1 1.6 1.1 2.7v2.7c0 1.1-0.4 2-1.1 2.7c-0.7 .7-1.6 1-2.8 1Zm0-1.4c.7 0 1.3-0.2 1.6-0.6c.4-0.4 .6-1 .6-1.7v-2.7c0-0.7-0.2-1.3-0.6-1.7c-0.3-0.4-0.9-0.6-1.6-0.6c-0.7 0-1.3 .2-1.7 .6c-0.4 .4-0.6 1-0.6 1.7v2.7c0 .7 .2 1.3 .6 1.7c.4 .4 1 .6 1.7 .6Zm11.4 1.5c-0.8 0-1.4-0.2-1.9-0.6c-0.5-0.3-0.7-0.8-0.8-1.5v1.9h-1.7v-13.1h1.7v2.8l-0.1 2.3h.1c.1-0.6 .3-1.2 .8-1.5c.5-0.4 1.1-0.6 1.9-0.6c1 0 1.8 .3 2.4 1c.6 .7 .9 1.6 .9 2.7v2.9c0 1.1-0.3 2-0.9 2.7c-0.6 .6-1.4 1-2.4 1Zm-0.6-1.4c.7 0 1.2-0.2 1.6-0.6c.4-0.4 .6-1 .6-1.8v-2.7c0-0.8-0.2-1.4-0.6-1.8c-0.4-0.4-0.9-0.6-1.6-0.6c-0.6 0-1.2 .2-1.5 .7c-0.4 .4-0.6 1-0.6 1.7v2.7c0 .7 .2 1.3 .6 1.7c.3 .5 .9 .7 1.5 .7Zm6.9 1.2v-1.5h3.5v-6.9h-3.1v-1.5h4.7v8.4h3.4v1.5Zm4.2-11.7c-0.4 0-0.8-0.1-1-0.3c-0.2-0.2-0.3-0.5-0.3-0.8c0-0.4 .1-0.7 .3-0.9c.2-0.2 .6-0.3 1-0.3c.4 0 .7 .1 .9 .3c.2 .2 .3 .5 .3 .9c0 .3-0.1 .6-0.3 .8c-0.2 .2-0.5 .3-0.9 .3Zm11.9 11.7c-0.9 0-1.6-0.3-2.1-0.8c-0.5-0.5-0.8-1.2-0.8-2v-8.9h-3.4v-1.4h5.1v10.3c0 .4 .1 .7 .3 1c.2 .2 .5 .3 .9 .3h3.1v1.5Zm9.4 .2c-0.8 0-1.5-0.2-2.1-0.5c-0.5-0.3-1-0.7-1.3-1.3c-0.3-0.6-0.5-1.2-0.5-2v-2.7c0-0.8 .2-1.4 .5-2c.3-0.6 .8-1 1.3-1.3c.6-0.3 1.3-0.5 2.1-0.5c.8 0 1.4 .2 2 .5c.6 .3 1.1 .7 1.4 1.3c.3 .6 .5 1.2 .5 2v1.7h-6.2v1c0 .8 .2 1.4 .6 1.8c.4 .4 .9 .6 1.7 .6c.6 0 1.1-0.1 1.5-0.3c.4-0.2 .6-0.6 .7-1h1.6c-0.1 .8-0.5 1.5-1.2 1.9c-0.7 .5-1.6 .8-2.6 .8Zm-2.3-6h4.6v-0.5c0-0.8-0.2-1.4-0.6-1.8c-0.4-0.4-1-0.6-1.7-0.6c-0.8 0-1.3 .2-1.7 .6c-0.4 .4-0.6 1-0.6 1.8Zm23 6c-1 0-1.9-0.3-2.5-0.8c-0.6-0.6-0.9-1.3-0.9-2.2c0-0.9 .3-1.6 .9-2.2c.6-0.5 1.5-0.8 2.5-0.8h3v-1c0-0.6-0.1-1-0.5-1.4c-0.4-0.3-0.9-0.5-1.5-0.5c-0.6 0-1.1 .2-1.5 .4c-0.4 .3-0.6 .6-0.7 1h-1.7c.1-0.5 .3-1 .7-1.4c.3-0.5 .7-0.8 1.3-1c.6-0.3 1.2-0.4 1.9-0.4c1.1 0 2 .3 2.7 .9c.6 .6 1 1.4 1 2.4v6.8h-1.6v-1.9c-0.1 .6-0.4 1.1-1 1.5c-0.5 .4-1.2 .6-2.1 .6Zm.4-1.3c.8 0 1.4-0.2 1.9-0.6c.5-0.4 .7-0.9 .7-1.5v-1.4h-3c-0.5 0-1 .2-1.3 .5c-0.3 .3-0.4 .7-0.4 1.2c0 .6 .2 1 .5 1.3c.4 .3 .9 .5 1.6 .5Zm7.5 4.3v-13.1h1.7v1.9c.1-0.7 .4-1.2 .8-1.5c.5-0.4 1.1-0.6 1.9-0.6c1 0 1.8 .3 2.4 1c.6 .7 .9 1.6 .9 2.7v2.9c0 1.1-0.3 2-0.9 2.7c-0.6 .6-1.4 1-2.4 1c-0.8 0-1.4-0.2-1.9-0.6c-0.4-0.4-0.7-0.9-0.8-1.5h-0.1l.1 2.3v2.8Zm3.8-4.4c.7 0 1.3-0.2 1.7-0.6c.3-0.4 .5-1 .5-1.8v-2.7c0-0.8-0.2-1.4-0.5-1.8c-0.4-0.4-1-0.6-1.7-0.6c-0.6 0-1.1 .2-1.5 .7c-0.4 .4-0.6 1-0.6 1.7v2.7c0 .7 .2 1.3 .6 1.7c.4 .5 .9 .7 1.5 .7Zm7 4.4v-13.1h1.7v1.9c.1-0.7 .3-1.2 .8-1.5c.5-0.4 1.1-0.6 1.9-0.6c1 0 1.8 .3 2.4 1c.6 .7 .9 1.6 .9 2.7v2.9c0 1.1-0.3 2-0.9 2.7c-0.6 .6-1.4 1-2.4 1c-0.8 0-1.4-0.2-1.9-0.6c-0.4-0.4-0.7-0.9-0.8-1.5h-0.1l.1 2.3v2.8Zm3.8-4.4c.7 0 1.3-0.2 1.7-0.6c.3-0.4 .5-1 .5-1.8v-2.7c0-0.8-0.2-1.4-0.5-1.8c-0.4-0.4-1-0.6-1.7-0.6c-0.6 0-1.1 .2-1.5 .7c-0.4 .4-0.6 1-0.6 1.7v2.7c0 .7 .2 1.3 .6 1.7c.4 .5 .9 .7 1.5 .7Zm10.5 1.3c-1.1 0-1.9-0.2-2.5-0.7c-0.7-0.4-1-1.1-1-1.9h1.6c0 .4 .2 .7 .6 .9c.3 .2 .8 .3 1.3 .3h.8c.6 0 1.1-0.1 1.4-0.4c.3-0.2 .4-0.6 .4-1c0-0.4-0.1-0.8-0.4-1c-0.3-0.3-0.7-0.4-1.3-0.5l-1.3-0.2c-1-0.2-1.7-0.5-2.2-1c-0.4-0.4-0.7-1.1-0.7-1.9c0-0.9 .3-1.5 .9-2c.6-0.5 1.4-0.7 2.5-0.7h.7c1 0 1.8 .2 2.4 .6c.6 .5 .9 1.1 .9 1.8h-1.6c0-0.3-0.2-0.5-0.5-0.7c-0.3-0.2-0.7-0.3-1.2-0.3h-0.7c-0.6 0-1 .1-1.3 .3c-0.3 .3-0.5 .6-0.5 1c0 .8 .5 1.2 1.5 1.4l1.4 .2c1 .2 1.8 .5 2.3 .9c.5 .5 .7 1.1 .7 2c0 .9-0.3 1.6-0.8 2.2c-0.6 .5-1.5 .7-2.7 .7Zm18.7-0.1l-1.6-9.9h1.4l1 7c0 .3 .1 .6 .1 .9c0 .3 .1 .5 .1 .7c.1-0.2 .1-0.4 .1-0.7c.1-0.3 .1-0.6 .2-0.9l1-7h1.7l1.1 7c0 .3 .1 .6 .1 .9c0 .3 .1 .5 .1 .7h.1c0-0.2 0-0.4 .1-0.7c0-0.3 0-0.6 .1-0.9l1-7h1.3l-1.6 9.9h-1.8l-1.1-6.8c0-0.4-0.1-0.7-0.1-1c-0.1-0.4-0.1-0.6-0.1-0.8h-0.1c0 .2 0 .4-0.1 .8c0 .3-0.1 .6-0.1 1l-1.1 6.8Zm10.1 0v-1.5h3.5v-6.9h-3.2v-1.5h4.8v8.4h3.3v1.5Zm4.1-11.7c-0.4 0-0.7-0.1-0.9-0.3c-0.2-0.2-0.4-0.5-0.4-0.8c0-0.4 .2-0.7 .4-0.9c.2-0.2 .5-0.3 .9-0.3c.4 0 .7 .1 1 .3c.2 .2 .3 .5 .3 .9c0 .3-0.1 .6-0.3 .8c-0.3 .2-0.6 .3-1 .3Zm11.6 11.7c-0.8 0-1.4-0.2-1.9-0.7c-0.5-0.5-0.8-1.1-0.8-1.9v-5.8h-2.8v-1.5h2.8v-2.8h1.7v2.8h3.9v1.5h-3.9v5.8c0 .3 .1 .6 .2 .8c.2 .2 .5 .3 .8 .3h2.7v1.5Zm6 0v-13.1h1.6v5.1c.1-0.7 .4-1.2 .9-1.5c.4-0.4 1-0.6 1.8-0.6c1 0 1.8 .3 2.3 .9c.6 .6 .9 1.5 .9 2.5v6.7h-1.6v-6.5c0-0.7-0.2-1.2-0.6-1.6c-0.3-0.4-0.8-0.6-1.5-0.6c-0.7 0-1.2 .2-1.6 .6c-0.4 .4-0.6 1-0.6 1.8v6.3Zm24.5 .2c-1.1 0-1.9-0.3-2.5-0.8c-0.6-0.6-0.9-1.3-0.9-2.2c0-0.9 .3-1.6 .9-2.2c.6-0.5 1.4-0.8 2.4-0.8h3.1v-1c0-0.6-0.2-1-0.5-1.4c-0.4-0.3-0.9-0.5-1.6-0.5c-0.5 0-1 .2-1.4 .4c-0.4 .3-0.7 .6-0.8 1h-1.6c.1-0.5 .3-1 .6-1.4c.4-0.5 .8-0.8 1.4-1c.5-0.3 1.1-0.4 1.8-0.4c1.2 0 2.1 .3 2.7 .9c.7 .6 1 1.4 1 2.4v6.8h-1.6v-1.9c-0.1 .6-0.4 1.1-0.9 1.5c-0.6 .4-1.3 .6-2.1 .6Zm.4-1.3c.7 0 1.4-0.2 1.9-0.6c.5-0.4 .7-0.9 .7-1.5v-1.4h-3c-0.6 0-1 .2-1.3 .5c-0.3 .3-0.5 .7-0.5 1.2c0 .6 .2 1 .6 1.3c.4 .3 .9 .5 1.6 .5Zm21.7 1.2c-1 0-1.8-0.2-2.5-0.7c-0.6-0.4-0.9-1.1-0.9-1.9h1.6c0 .4 .2 .7 .5 .9c.4 .2 .8 .3 1.4 .3h.7c.7 0 1.1-0.1 1.4-0.4c.4-0.2 .5-0.6 .5-1c0-0.4-0.1-0.8-0.4-1c-0.3-0.3-0.7-0.4-1.3-0.5l-1.3-0.2c-1-0.2-1.7-0.5-2.2-1c-0.5-0.4-0.7-1.1-0.7-1.9c0-0.9 .3-1.5 .9-2c.5-0.5 1.4-0.7 2.5-0.7h.7c1 0 1.8 .2 2.4 .6c.6 .5 .9 1.1 .9 1.8h-1.7c0-0.3-0.1-0.5-0.4-0.7c-0.3-0.2-0.7-0.3-1.3-0.3h-0.7c-0.5 0-1 .1-1.3 .3c-0.3 .3-0.4 .6-0.4 1c0 .8 .5 1.2 1.5 1.4l1.3 .2c1.1 .2 1.9 .5 2.4 .9c.5 .5 .7 1.1 .7 2c0 .9-0.3 1.6-0.9 2.2c-0.6 .5-1.4 .7-2.6 .7Zm7.3-0.1v-1.5h3.5v-6.9h-3.2v-1.5h4.8v8.4h3.3v1.5Zm4.1-11.7c-0.4 0-0.7-0.1-0.9-0.3c-0.3-0.2-0.4-0.5-0.4-0.8c0-0.4 .1-0.7 .4-0.9c.2-0.2 .5-0.3 .9-0.3c.4 0 .7 .1 .9 .3c.3 .2 .4 .5 .4 .9c0 .3-0.1 .6-0.4 .8c-0.2 .2-0.5 .3-0.9 .3Zm6.8 11.7v-9.9h1.6v1.9c.1-0.7 .4-1.2 .8-1.5c.5-0.4 1.1-0.6 1.9-0.6c.9 0 1.7 .3 2.3 .9c.6 .6 .9 1.5 .9 2.5v6.7h-1.6v-6.5c0-0.7-0.2-1.2-0.6-1.6c-0.4-0.4-0.9-0.6-1.5-0.6c-0.7 0-1.2 .2-1.6 .6c-0.4 .4-0.6 1-0.6 1.8v6.3Zm12 3.2v-1.4h3.2c.9 0 1.4-0.5 1.4-1.4v-1.3l.1-1.8h-0.1c0 .6-0.3 1.1-0.8 1.5c-0.4 .4-1.1 .6-1.8 .6c-1 0-1.8-0.4-2.4-1c-0.6-0.7-0.9-1.6-0.9-2.7v-2.1c0-1.1 .3-2 .9-2.7c.6-0.7 1.4-1 2.4-1c.7 0 1.4 .2 1.8 .6c.5 .3 .8 .9 .8 1.5h.1v-1.9h1.6v10.3c0 .8-0.3 1.5-0.9 2.1c-0.5 .5-1.3 .7-2.2 .7Zm2.5-5.2c.7 0 1.2-0.2 1.6-0.7c.4-0.4 .6-1 .6-1.7v-1.9c0-0.7-0.2-1.3-0.6-1.7c-0.4-0.5-0.9-0.7-1.6-0.7c-0.7 0-1.2 .2-1.6 .6c-0.4 .4-0.6 1-0.6 1.8v1.9c0 .8 .2 1.3 .6 1.8c.4 .4 .9 .6 1.6 .6Zm12.3 2c-0.9 0-1.6-0.3-2.1-0.8c-0.6-0.5-0.8-1.2-0.8-2v-8.9h-3.4v-1.4h5v10.3c0 .4 .1 .7 .3 1c.3 .2 .6 .3 1 .3h3v1.5Zm9.3 .2c-0.8 0-1.4-0.2-2-0.5c-0.6-0.3-1.1-0.7-1.4-1.3c-0.3-0.6-0.4-1.2-0.4-2v-2.7c0-0.8 .1-1.4 .4-2c.3-0.6 .8-1 1.4-1.3c.6-0.3 1.2-0.5 2-0.5c.8 0 1.5 .2 2.1 .5c.5 .3 1 .7 1.3 1.3c.3 .6 .5 1.2 .5 2v1.7h-6.2v1c0 .8 .2 1.4 .6 1.8c.4 .4 1 .6 1.7 .6c.6 0 1.1-0.1 1.5-0.3c.4-0.2 .7-0.6 .7-1h1.7c-0.2 .8-0.6 1.5-1.3 1.9c-0.7 .5-1.5 .8-2.6 .8Zm-2.3-6h4.6v-0.5c0-0.8-0.2-1.4-0.6-1.8c-0.4-0.4-0.9-0.6-1.7-0.6c-0.7 0-1.3 .2-1.7 .6c-0.4 .4-0.6 1-0.6 1.8Zm24 6c-1.2 0-2.2-0.4-2.9-1c-0.7-0.7-1.1-1.6-1.1-2.8v-2.7c0-1.2 .4-2.1 1.1-2.8c.7-0.6 1.7-1 2.9-1c1.1 0 2 .3 2.7 .9c.7 .6 1.1 1.5 1.1 2.5h-1.6c0-0.6-0.2-1.1-0.6-1.4c-0.4-0.4-0.9-0.5-1.6-0.5c-0.7 0-1.3 .2-1.7 .6c-0.4 .4-0.6 .9-0.6 1.7v2.7c0 .7 .2 1.3 .6 1.7c.4 .4 1 .6 1.7 .6c.7 0 1.2-0.1 1.6-0.5c.4-0.3 .6-0.8 .6-1.4h1.6c0 1-0.4 1.8-1.1 2.5c-0.7 .6-1.6 .9-2.7 .9Zm10.7-0.1c-1.2 0-2.1-0.3-2.8-1c-0.7-0.7-1.1-1.6-1.1-2.7v-2.7c0-1.1 .4-2.1 1.1-2.7c.7-0.7 1.6-1 2.8-1c1.2 0 2.2 .3 2.8 1c.7 .6 1.1 1.6 1.1 2.7v2.7c0 1.1-0.4 2-1.1 2.7c-0.6 .7-1.6 1-2.8 1Zm0-1.4c.7 0 1.3-0.2 1.7-0.6c.4-0.4 .6-1 .6-1.7v-2.7c0-0.7-0.2-1.3-0.6-1.7c-0.4-0.4-1-0.6-1.7-0.6c-0.7 0-1.2 .2-1.6 .6c-0.4 .4-0.6 1-0.6 1.7v2.7c0 .7 .2 1.3 .6 1.7c.4 .4 .9 .6 1.6 .6Zm10.2 1.5c-1 0-1.7-0.4-2.4-1c-0.6-0.7-0.9-1.6-0.9-2.7v-2.9c0-1.1 .3-2 .9-2.7c.6-0.7 1.4-1 2.4-1c.8 0 1.4 .2 1.9 .6c.4 .3 .7 .9 .8 1.5h.1l-0.1-2.3v-2.8h1.7v13.1h-1.7v-1.9c-0.1 .7-0.4 1.2-0.8 1.5c-0.5 .4-1.1 .6-1.9 .6Zm.6-1.4c.6 0 1.2-0.2 1.6-0.7c.3-0.4 .5-1 .5-1.7v-2.7c0-0.7-0.2-1.3-0.5-1.7c-0.4-0.5-1-0.7-1.6-0.7c-0.7 0-1.3 .2-1.6 .6c-0.4 .4-0.6 1-0.6 1.8v2.7c0 .8 .2 1.4 .6 1.8c.3 .4 .9 .6 1.6 .6Zm10.8 1.4c-0.8 0-1.5-0.2-2-0.5c-0.6-0.3-1.1-0.7-1.4-1.3c-0.3-0.6-0.5-1.2-0.5-2v-2.7c0-0.8 .2-1.4 .5-2c.3-0.6 .8-1 1.4-1.3c.5-0.3 1.2-0.5 2-0.5c.8 0 1.5 .2 2 .5c.6 .3 1.1 .7 1.4 1.3c.3 .6 .5 1.2 .5 2v1.7h-6.2v1c0 .8 .2 1.4 .6 1.8c.4 .4 1 .6 1.7 .6c.6 0 1.1-0.1 1.5-0.3c.4-0.2 .6-0.6 .7-1h1.6c-0.1 .8-0.5 1.5-1.2 1.9c-0.7 .5-1.6 .8-2.6 .8Zm-2.3-6h4.6v-0.5c0-0.8-0.2-1.4-0.6-1.8c-0.4-0.4-1-0.6-1.7-0.6c-0.7 0-1.3 .2-1.7 .6c-0.4 .4-0.6 1-0.6 1.8Zm13.7 6c-0.8 0-1.4-0.2-1.9-0.6c-0.4-0.3-0.7-0.8-0.8-1.5v1.9h-1.6v-13.1h1.6v2.8l-0.1 2.3h.1c.1-0.6 .4-1.2 .8-1.5c.5-0.4 1.1-0.6 1.9-0.6c1 0 1.8 .3 2.4 1c.6 .7 .9 1.6 .9 2.7v2.9c0 1.1-0.3 2-0.9 2.7c-0.6 .6-1.4 1-2.4 1Zm-0.6-1.4c.7 0 1.3-0.2 1.7-0.6c.4-0.4 .6-1 .6-1.8v-2.7c0-0.8-0.2-1.4-0.6-1.8c-0.4-0.4-1-0.6-1.7-0.6c-0.6 0-1.1 .2-1.5 .7c-0.4 .4-0.6 1-0.6 1.7v2.7c0 .7 .2 1.3 .6 1.7c.4 .5 .9 .7 1.5 .7Zm9.9 1.4c-1 0-1.8-0.3-2.4-0.8c-0.6-0.6-0.9-1.3-0.9-2.2c0-0.9 .3-1.6 .9-2.2c.6-0.5 1.4-0.8 2.4-0.8h3.1v-1c0-0.6-0.2-1-0.6-1.4c-0.4-0.3-0.9-0.5-1.5-0.5c-0.6 0-1.1 .2-1.5 .4c-0.4 .3-0.6 .6-0.7 1h-1.6c0-0.5 .2-1 .6-1.4c.3-0.5 .8-0.8 1.3-1c.6-0.3 1.2-0.4 1.9-0.4c1.1 0 2 .3 2.7 .9c.6 .6 1 1.4 1 2.4v6.8h-1.6v-1.9c-0.1 .6-0.4 1.1-0.9 1.5c-0.6 .4-1.3 .6-2.2 .6Zm.4-1.3c.8 0 1.4-0.2 1.9-0.6c.5-0.4 .8-0.9 .8-1.5v-1.4h-3.1c-0.5 0-0.9 .2-1.2 .5c-0.4 .3-0.5 .7-0.5 1.2c0 .6 .2 1 .6 1.3c.3 .3 .9 .5 1.5 .5Zm11 1.2c-1 0-1.9-0.2-2.5-0.7c-0.7-0.4-1-1.1-1-1.9h1.7c0 .4 .1 .7 .5 .9c.4 .2 .8 .3 1.3 .3h.8c.6 0 1.1-0.1 1.4-0.4c.3-0.2 .5-0.6 .5-1c0-0.4-0.2-0.8-0.5-1c-0.3-0.3-0.7-0.4-1.2-0.5l-1.4-0.2c-1-0.2-1.7-0.5-2.1-1c-0.5-0.4-0.7-1.1-0.7-1.9c0-0.9 .2-1.5 .8-2c.6-0.5 1.4-0.7 2.5-0.7h.7c1 0 1.8 .2 2.4 .6c.6 .5 .9 1.1 .9 1.8h-1.6c0-0.3-0.2-0.5-0.5-0.7c-0.3-0.2-0.7-0.3-1.2-0.3h-0.7c-0.6 0-1 .1-1.3 .3c-0.3 .3-0.5 .6-0.5 1c0 .8 .5 1.2 1.6 1.4l1.3 .2c1.1 .2 1.8 .5 2.3 .9c.5 .5 .8 1.1 .8 2c0 .9-0.3 1.6-0.9 2.2c-0.6 .5-1.5 .7-2.7 .7Zm11.1 .1c-0.8 0-1.5-0.2-2.1-0.5c-0.5-0.3-1-0.7-1.3-1.3c-0.3-0.6-0.5-1.2-0.5-2v-2.7c0-0.8 .2-1.4 .5-2c.3-0.6 .8-1 1.3-1.3c.6-0.3 1.3-0.5 2.1-0.5c.8 0 1.5 .2 2 .5c.6 .3 1.1 .7 1.4 1.3c.3 .6 .5 1.2 .5 2v1.7h-6.2v1c0 .8 .2 1.4 .6 1.8c.4 .4 1 .6 1.7 .6c.6 0 1.1-0.1 1.5-0.3c.4-0.2 .6-0.6 .7-1h1.6c-0.1 .8-0.5 1.5-1.2 1.9c-0.7 .5-1.6 .8-2.6 .8Zm-2.3-6h4.6v-0.5c0-0.8-0.2-1.4-0.6-1.8c-0.4-0.4-1-0.6-1.7-0.6c-0.7 0-1.3 .2-1.7 .6c-0.4 .4-0.6 1-0.6 1.8Zm13.1 6c-0.5 0-0.8-0.2-1.1-0.4c-0.3-0.3-0.4-0.6-0.4-1.1c0-0.4 .1-0.8 .4-1.1c.3-0.3 .6-0.4 1.1-0.4c.4 0 .8 .1 1.1 .4c.2 .3 .4 .7 .4 1.1c0 .5-0.2 .8-0.4 1.1c-0.3 .2-0.7 .4-1.1 .4Z"/></svg>