<svg xmlns="http://www.w3.org/2000/svg" xmlns:xlink="http://www.w3.org/1999/xlink" viewBox="0 0 1007 197" style="white-space: pre;"><style>
@keyframes a0_t { 0% { transform: translate(225px,339.9px) scale(0,1) translate(-89.5px,-24px); } 35% { transform: translate(225px,339.9px) scale(0,1) translate(-89.5px,-24px); animation-timing-function: cubic-bezier(.6,0,.4,1); } 45% { transform: translate(225px,339.9px) scale(1,1) translate(-89.5px,-24px); } 50% { transform: translate(225px,339.9px) scale(1,1) translate(-89.5px,-24px); animation-timing-function: cubic-bezier(.6,0,.4,1); } 60% { transform: translate(225px,339.9px) scale(0,1) translate(-89.5px,-24px); } 100% { transform: translate(225px,339.9px) scale(0,1) translate(-89.5px,-24px); } }
@keyframes a1_t { 0% { transform: translate(225px,348.9px) scale(0,1) translate(-41.5px,-11px); } 20% { transform: translate(225px,348.9px) scale(0,1) translate(-41.5px,-11px); animation-timing-function: cubic-bezier(.6,0,.4,1); } 30% { transform: translate(225px,348.9px) scale(1,1) translate(-41.5px,-11px); } 35% { transform: translate(225px,348.9px) scale(1,1) translate(-41.5px,-11px); } 45% { transform: translate(225px,348.9px) scale(0,1) translate(-41.5px,-11px); } 100% { transform: translate(225px,348.9px) scale(0,1) translate(-41.5px,-11px); } }
@keyframes a3_t { 0% { transform: translate(225px,198.9px) rotate(-90deg); } 10% { transform: translate(225px,198.9px) rotate(-90deg); } 20% { transform: translate(225px,198.9px) rotate(-90deg); animation-timing-function: cubic-bezier(.6,0,.4,1); } 30% { transform: translate(225px,198.9px) rotate(0deg); } 35% { transform: translate(225px,198.9px) rotate(0deg); } 45% { transform: translate(225px,198.9px) rotate(0deg); } 50% { transform: translate(225px,198.9px) rotate(0deg); animation-timing-function: cubic-bezier(.6,0,.4,1); } 60% { transform: translate(225px,198.9px) rotate(-90deg); } 65% { transform: translate(225px,198.9px) rotate(-90deg); } 75% { transform: translate(225px,198.9px) rotate(-90deg); } 100% { transform: translate(225px,198.9px) rotate(-90deg); } }
@keyframes a2_t { 0% { transform: translate(-200px,-167px); animation-timing-function: cubic-bezier(.6,0,.4,1); } 10% { transform: translate(-150px,-80px); } 20% { transform: translate(-150px,-80px); animation-timing-function: cubic-bezier(.6,0,.4,1); } 30% { transform: translate(-200px,-123px); } 35% { transform: translate(-200px,-123px); animation-timing-function: cubic-bezier(.6,0,.4,1); } 45% { transform: translate(-150px,-100px); } 50% { transform: translate(-150px,-100px); animation-timing-function: cubic-bezier(.6,0,.4,1); } 60% { transform: translate(-150px,-80px); } 65% { transform: translate(-150px,-80px); animation-timing-function: cubic-bezier(.6,0,.4,1); } 75% { transform: translate(-217px,-200px); } 100% { transform: translate(-217px,-200px); } }
@keyframes a2_o { 0% { opacity: 0; animation-timing-function: cubic-bezier(.6,0,.4,1); } 10% { opacity: 1; } 65% { opacity: 1; animation-timing-function: cubic-bezier(.6,0,.4,1); } 75% { opacity: 0; } 100% { opacity: 0; } }
@keyframes a2_sw { 0% { stroke-width: 30px; animation-timing-function: cubic-bezier(.6,0,.4,1); } 10% { stroke-width: 8px; } 65% { stroke-width: 8px; animation-timing-function: cubic-bezier(.6,0,.4,1); } 75% { stroke-width: 30px; } 100% { stroke-width: 30px; } }
@keyframes a2_w { 0% { width: 400px; animation-timing-function: cubic-bezier(.6,0,.4,1); } 10% { width: 300px; } 20% { width: 300px; animation-timing-function: cubic-bezier(.6,0,.4,1); } 30% { width: 400px; } 35% { width: 400px; animation-timing-function: cubic-bezier(.6,0,.4,1); } 45% { width: 300px; } 50% { width: 300px; } 60% { width: 300px; } 65% { width: 300px; animation-timing-function: cubic-bezier(.6,0,.4,1); } 75% { width: 434px; } 100% { width: 434px; } }
@keyframes a2_h { 0% { height: 334px; animation-timing-function: cubic-bezier(.6,0,.4,1); } 10% { height: 160px; } 20% { height: 160px; animation-timing-function: cubic-bezier(.6,0,.4,1); } 30% { height: 246px; } 35% { height: 246px; animation-timing-function: cubic-bezier(.6,0,.4,1); } 45% { height: 200px; } 50% { height: 200px; animation-timing-function: cubic-bezier(.6,0,.4,1); } 60% { height: 160px; } 65% { height: 160px; animation-timing-function: cubic-bezier(.6,0,.4,1); } 75% { height: 400px; } 100% { height: 400px; } }
@keyframes a4_t { 0% { transform: translate(227.8px,199.9px) scale(1.5,1.6) translate(-55.7px,-93px); } 10% { transform: translate(227.8px,199.9px) scale(1.5,1.6) translate(-31.3px,-62.2px); } 100% { transform: translate(227.8px,199.9px) scale(1.5,1.6) translate(-31.3px,-62.2px); } }
@keyframes a5_t { 0% { transform: translate(217px,324.9px); animation-timing-function: cubic-bezier(.6,0,.4,1); } 10% { transform: translate(190px,324.9px); } 20% { transform: translate(190px,324.9px); } 30% { transform: translate(190px,324.9px); } 100% { transform: translate(190px,324.9px); } }
@keyframes a5_o { 0% { opacity: 0; animation-timing-function: cubic-bezier(.6,0,.4,1); } 10% { opacity: 1; } 20% { opacity: 1; } 30% { opacity: 0; } 100% { opacity: 0; } }
@keyframes a5_w { 0% { width: 16px; animation-timing-function: cubic-bezier(.6,0,.4,1); } 10% { width: 70px; } 20% { width: 70px; } 30% { width: 70px; } 100% { width: 70px; } }
@keyframes a6_t { 0% { transform: translate(217px,324.9px); } 50% { transform: translate(217px,324.9px); animation-timing-function: cubic-bezier(.6,0,.4,1); } 60% { transform: translate(190px,324.9px); } 65% { transform: translate(190px,324.9px); } 75% { transform: translate(190px,324.9px); } 100% { transform: translate(190px,324.9px); } }
@keyframes a6_o { 0% { opacity: 0; } 50% { opacity: 0; animation-timing-function: cubic-bezier(.6,0,.4,1); } 60% { opacity: 1; } 65% { opacity: 1; animation-timing-function: cubic-bezier(.6,0,.4,1); } 75% { opacity: 0; } 100% { opacity: 0; } }
@keyframes a6_w { 0% { width: 16px; } 50% { width: 16px; animation-timing-function: cubic-bezier(.6,0,.4,1); } 60% { width: 70px; } 65% { width: 70px; } 75% { width: 70px; } 100% { width: 70px; } }
@keyframes a7_t { 0% { transform: translate(225px,198.9px) scale(1.5,1.5) translate(-42.3px,-93px); animation-timing-function: cubic-bezier(.6,0,.4,1); } 10% { transform: translate(225px,198.9px) scale(1,1) translate(-42.3px,-93px); } 20% { transform: translate(225px,198.9px) scale(1,1) translate(-42.3px,-93px); animation-timing-function: cubic-bezier(.6,0,.4,1); } 25% { transform: translate(225px,198.9px) scale(.8,.8) translate(-42.3px,-93px); animation-timing-function: cubic-bezier(.6,0,.4,1); } 30% { transform: translate(225px,198.9px) scale(1,1) translate(-42.3px,-93px); } 35% { transform: translate(225px,198.9px) scale(1,1) translate(-42.3px,-93px); animation-timing-function: cubic-bezier(.4,0,.6,1); } 45% { transform: translate(225px,198.9px) scale(.8,.8) translate(-42.3px,-93px); } 50% { transform: translate(225px,198.9px) scale(.8,.8) translate(-42.3px,-93px); animation-timing-function: cubic-bezier(.4,0,.6,1); } 55% { transform: translate(225px,198.9px) scale(.7,.7) translate(-42.3px,-93px); animation-timing-function: cubic-bezier(.4,0,.6,1); } 60% { transform: translate(225px,198.9px) scale(1,1) translate(-42.3px,-93px); } 65% { transform: translate(225px,198.9px) scale(1,1) translate(-42.3px,-93px); animation-timing-function: cubic-bezier(.4,0,.6,1); } 75% { transform: translate(225px,198.9px) scale(1.5,1.5) translate(-42.3px,-93px); } 100% { transform: translate(225px,198.9px) scale(1.5,1.5) translate(-42.3px,-93px); } }
</style><defs><symbol id="Symbol-1" height="400" overflow="visible" preserveAspectRatio="none" viewBox="0 0 450 400" width="450"><path fill="#e0e0e0" stroke="#e0e0e0" stroke-linejoin="round" d="M-50.7 4h278.2c10 0 9 0 9 0l41 40c0 0 1 0-9 0h-358c-9.9 0-9 0-9 0l38.8-40c0 0-0.9 0 9 0Z" stroke-width="10" transform="translate(225,339.9) scale(0,1) translate(-89.5,-24)" style="animation: 10s linear infinite both a0_t;"/><rect width="83" height="22" stroke="#fb422d" fill="#e0e0e0" rx="2" stroke-width="0" transform="translate(225,348.9) scale(0,1) translate(-41.5,-11)" style="animation: 10s linear infinite both a1_t;"/><g style="animation: 10s linear infinite both a3_t;"><rect width="400" height="334" stroke="#e0e0e0" fill="none" stroke-width="30" stroke-miterlimit="1" rx="10" opacity="0" transform="translate(225,198.9) rotate(-90) translate(-200,-167)" style="animation: 10s linear infinite both a2_t, 10s linear infinite both a2_o, 10s linear infinite both a2_sw, 10s linear infinite both a2_w, 10s linear infinite both a2_h;"/></g><g opacity="0" transform="translate(227.8,199.9) scale(1.51121,1.62366) translate(-55.7,-93)" style="animation: 10s linear infinite both a4_t;"><g transform="translate(8.5,4.5)"><rect x="4" width="85" height="8" fill="#d9d9d9"/><rect x="4" y="26" width="85" height="8" fill="#d9d9d9"/><rect x="25" y="56" width="43" height="8" fill="#d9d9d9"/><rect width="85" height="8" fill="#d9d9d9" transform="translate(46.5,175) rotate(180) scale(-1,1) translate(-42.5,-4)"/><rect width="85" height="8" fill="#d9d9d9" transform="translate(46.5,149) rotate(180) scale(-1,1) translate(-42.5,-4)"/><rect width="43" height="8" fill="#d9d9d9" transform="translate(46.5,119) rotate(180) scale(-1,1) translate(-21.5,-4)"/><path d="M0 4c0 53 94.5 115 94.5 169" stroke="#3cc4dc" stroke-width="17" stroke-linecap="square" fill="none"/><path d="M94.5 4c0 53-94.5 115-94.5 169" stroke="#fb422d" stroke-width="17" stroke-linecap="square" fill="none"/></g></g><rect width="16" height="8" stroke="#fb422d" fill="#e0e0e0" stroke-width="0" rx="2" opacity="0" transform="translate(225,328.9) translate(-8,-4)" style="animation: 10s linear infinite both a5_t, 10s linear infinite both a5_o, 10s linear infinite both a5_w;"/><rect width="16" height="8" stroke="#fb422d" fill="#e0e0e0" stroke-width="0" rx="2" opacity="0" transform="translate(225,328.9) translate(-8,-4)" style="animation: 10s linear infinite both a6_t, 10s linear infinite both a6_o, 10s linear infinite both a6_w;"/><g transform="translate(225,198.9) scale(1.5,1.5) translate(-42.3,-93)" style="animation: 10s linear infinite both a7_t;"><g transform="translate(42.3,93) scale(5.352,6.9) translate(-16,60)"><g transform="translate(-34.9,-125.8)"><g transform="translate(24,5)"><path d="M33 46.5c0 3.1-0.8 5.5-2.2 7.4c-1.4 1.9-3.3 3.6-5.4 5.4c-2.2 1.7-4.5 3.6-6.3 6.2c-1.8 2.5-3.1 5.5-3.1 9.5h4.7c0-3.1 .9-5.4 2.2-7.3c1.4-1.9 3.3-3.5 5.5-5.3c2.1-1.8 4.4-3.7 6.2-6.2c1.8-2.6 3.1-5.6 3.1-9.7Z" fill="#e96020"/><path d="M20.4 70.7c-0.6 0-1 .5-1 1.1c0 .7 .4 1.2 1 1.2h12.9c.7 0 1.2-0.5 1.2-1.2c0-0.6-0.5-1.1-1.2-1.1Z" fill="#2d323b"/><path d="M21.8 66.6c-0.7 0-1 .6-1 1.2c0 .6 .3 1 .9 1h10.3c.6 0 1.1-0.5 1.1-1.1c0-0.6-0.5-1.1-1.1-1.1Z" fill="#2d323b"/><path d="M21.8 53c-0.7 0-1.2 .5-1.1 1.1c0 .6 .4 1.1 1.1 1.1h10.2c.6 0 .9-0.6 .9-1.2c0-0.6-0.3-1-0.9-1Z" fill="#2d323b"/><path d="M20.4 48.8c-0.6 0-1.2 .5-1.2 1.1c0 .7 .6 1.2 1.2 1.2h12.9c.7 0 1-0.5 1-1.1c0-0.7-0.3-1.2-1-1.2Z" fill="#2d323b"/><path d="M16 46.5c0 4.1 1.3 7.1 3.1 9.7c1.8 2.5 4.1 4.4 6.3 6.2c2.1 1.8 4 3.6 5.4 5.5c1.4 1.9 2.2 4 2.2 7.1h4.7c0-4-1.3-7.1-3.1-9.6c-1.8-2.5-4.1-4.4-6.2-6.2c-2.2-1.8-4.1-3.4-5.5-5.3c-1.3-1.9-2.2-4.3-2.2-7.4Z" fill="#00a8d6"/></g></g></g></g></symbol></defs><rect width="1007" height="197" stroke="#0f1116" fill="#0f1116" stroke-width="0"/><text x="75" y="106.1" fill="#fff" font-size="90" font-family="'JetBrains Mono'" letter-spacing="0" word-spacing="0" style="line-height: 16px;">Dioxus</text><text x="82" y="163.7" fill="#fff" font-size="30" font-family="'JetBrains Mono'" letter-spacing="0" word-spacing="0" style="line-height: 16px;">User Interfaces that run anywhere</text><use x="758" y="10.5" xlink:href="#Symbol-1" width="194" height="176.1"/></svg>