<svg width="827" height="204" viewBox="0 0 827 204" fill="none" xmlns="http://www.w3.org/2000/svg">
<path d="M3.20314 196L1.01914 177.02H3.25514L4.68514 191.06C4.73714 191.632 4.78047 192.23 4.81514 192.854C4.86714 193.461 4.90181 193.946 4.91914 194.31C4.95381 193.946 4.99714 193.461 5.04914 192.854C5.11847 192.23 5.18781 191.632 5.25714 191.06L7.02514 177.02H9.44314L11.0551 191.06C11.1245 191.632 11.1938 192.23 11.2631 192.854C11.3325 193.461 11.3845 193.946 11.4191 194.31C11.4538 193.946 11.4885 193.461 11.5231 192.854C11.5751 192.23 11.6358 191.632 11.7051 191.06L13.1871 177.02H15.3191L13.0831 196H10.1451L8.53314 181.7C8.46381 181.111 8.40314 180.539 8.35114 179.984C8.29914 179.412 8.25581 178.97 8.22114 178.658C8.18647 178.97 8.13447 179.412 8.06514 179.984C8.01314 180.539 7.95247 181.111 7.88314 181.7L6.14114 196H3.20314ZM23.759 196.26C22.6323 196.26 21.6443 196.035 20.795 195.584C19.963 195.133 19.313 194.501 18.845 193.686C18.3943 192.854 18.169 191.892 18.169 190.8V186.9C18.169 185.791 18.3943 184.829 18.845 184.014C19.313 183.199 19.963 182.567 20.795 182.116C21.6443 181.665 22.6323 181.44 23.759 181.44C24.8857 181.44 25.865 181.665 26.697 182.116C27.5463 182.567 28.1963 183.199 28.647 184.014C29.115 184.829 29.349 185.791 29.349 186.9V189.422H20.457V190.8C20.457 191.927 20.743 192.793 21.315 193.4C21.887 193.989 22.7017 194.284 23.759 194.284C24.6603 194.284 25.3883 194.128 25.943 193.816C26.4977 193.487 26.8357 193.001 26.957 192.36H29.297C29.141 193.556 28.5517 194.509 27.529 195.22C26.5237 195.913 25.267 196.26 23.759 196.26ZM20.457 187.654H27.061V186.9C27.061 185.773 26.775 184.907 26.203 184.3C25.6483 183.693 24.8337 183.39 23.759 183.39C22.7017 183.39 21.887 183.693 21.315 184.3C20.743 184.907 20.457 185.773 20.457 186.9V187.654ZM40.1808 196.26C39.1062 196.26 38.2222 196 37.5288 195.48C36.8355 194.943 36.4282 194.206 36.3068 193.27H36.2808V196H33.9408V177.02H36.2808V181.18L36.2288 184.43H36.3068C36.4282 183.511 36.8355 182.783 37.5288 182.246C38.2222 181.709 39.1062 181.44 40.1808 181.44C41.6195 181.44 42.7722 181.917 43.6388 182.87C44.5055 183.823 44.9388 185.123 44.9388 186.77V190.956C44.9388 192.585 44.5055 193.877 43.6388 194.83C42.7722 195.783 41.6195 196.26 40.1808 196.26ZM39.4008 194.232C40.3888 194.232 41.1688 193.937 41.7408 193.348C42.3128 192.759 42.5988 191.909 42.5988 190.8V186.9C42.5988 185.791 42.3128 184.941 41.7408 184.352C41.1688 183.763 40.3888 183.468 39.4008 183.468C38.4475 183.468 37.6848 183.771 37.1128 184.378C36.5582 184.985 36.2808 185.825 36.2808 186.9V190.8C36.2808 191.875 36.5582 192.715 37.1128 193.322C37.6848 193.929 38.4475 194.232 39.4008 194.232ZM51.4287 200.16L53.5087 192.074H56.8887L53.5087 200.16H51.4287ZM80.7104 196V177.02H85.6244C86.855 177.02 87.9124 177.254 88.7964 177.722C89.6977 178.19 90.391 178.849 90.8764 179.698C91.379 180.547 91.6304 181.553 91.6304 182.714V190.28C91.6304 191.441 91.379 192.455 90.8764 193.322C90.391 194.171 89.6977 194.83 88.7964 195.298C87.9124 195.766 86.855 196 85.6244 196H80.7104ZM83.0504 193.92H85.6244C86.7684 193.92 87.661 193.599 88.3024 192.958C88.961 192.317 89.2904 191.424 89.2904 190.28V182.714C89.2904 181.587 88.961 180.703 88.3024 180.062C87.661 179.421 86.7684 179.1 85.6244 179.1H83.0504V193.92ZM101.708 196.26C100.582 196.26 99.5935 196.035 98.7442 195.584C97.9122 195.133 97.2622 194.501 96.7942 193.686C96.3435 192.854 96.1182 191.892 96.1182 190.8V186.9C96.1182 185.791 96.3435 184.829 96.7942 184.014C97.2622 183.199 97.9122 182.567 98.7442 182.116C99.5935 181.665 100.582 181.44 101.708 181.44C102.835 181.44 103.814 181.665 104.646 182.116C105.496 182.567 106.146 183.199 106.596 184.014C107.064 184.829 107.298 185.791 107.298 186.9V189.422H98.4062V190.8C98.4062 191.927 98.6922 192.793 99.2642 193.4C99.8362 193.989 100.651 194.284 101.708 194.284C102.61 194.284 103.338 194.128 103.892 193.816C104.447 193.487 104.785 193.001 104.906 192.36H107.246C107.09 193.556 106.501 194.509 105.478 195.22C104.473 195.913 103.216 196.26 101.708 196.26ZM98.4062 187.654H105.01V186.9C105.01 185.773 104.724 184.907 104.152 184.3C103.598 183.693 102.783 183.39 101.708 183.39C100.651 183.39 99.8362 183.693 99.2642 184.3C98.6922 184.907 98.4062 185.773 98.4062 186.9V187.654ZM116.856 196.208C115.383 196.208 114.178 195.87 113.242 195.194C112.306 194.518 111.838 193.591 111.838 192.412H114.23C114.23 192.949 114.481 193.374 114.984 193.686C115.504 193.981 116.145 194.128 116.908 194.128H118C118.919 194.128 119.603 193.946 120.054 193.582C120.505 193.201 120.73 192.698 120.73 192.074C120.73 191.467 120.513 190.991 120.08 190.644C119.664 190.28 119.057 190.037 118.26 189.916L116.336 189.604C114.915 189.361 113.866 188.911 113.19 188.252C112.514 187.593 112.176 186.683 112.176 185.522C112.176 184.222 112.592 183.225 113.424 182.532C114.273 181.839 115.487 181.492 117.064 181.492H118.052C119.508 181.492 120.669 181.821 121.536 182.48C122.42 183.121 122.862 183.979 122.862 185.054H120.47C120.47 184.603 120.245 184.248 119.794 183.988C119.361 183.711 118.763 183.572 118 183.572H117.012C116.197 183.572 115.565 183.745 115.114 184.092C114.681 184.421 114.464 184.898 114.464 185.522C114.464 186.562 115.201 187.203 116.674 187.446L118.598 187.758C120.141 188.001 121.259 188.451 121.952 189.11C122.663 189.769 123.018 190.722 123.018 191.97C123.018 193.287 122.593 194.327 121.744 195.09C120.912 195.835 119.647 196.208 117.948 196.208H116.856ZM127.558 196V177.02H129.898V187.602H132.654L136.814 181.7H139.492L134.682 188.512L139.57 196H136.84L132.68 189.63H129.898V196H127.558ZM150.038 196C148.859 196 147.914 195.662 147.204 194.986C146.493 194.293 146.138 193.374 146.138 192.23V183.832H142.108V181.7H146.138V177.67H148.478V181.7H154.198V183.832H148.478V192.23C148.478 192.715 148.616 193.114 148.894 193.426C149.188 193.721 149.57 193.868 150.038 193.868H153.938V196H150.038ZM164.068 196.208C162.334 196.208 160.965 195.723 159.96 194.752C158.972 193.764 158.478 192.429 158.478 190.748V186.952C158.478 185.253 158.972 183.919 159.96 182.948C160.965 181.977 162.334 181.492 164.068 181.492C165.801 181.492 167.162 181.977 168.15 182.948C169.155 183.919 169.658 185.245 169.658 186.926V190.748C169.658 192.429 169.155 193.764 168.15 194.752C167.162 195.723 165.801 196.208 164.068 196.208ZM164.068 194.128C165.09 194.128 165.888 193.842 166.46 193.27C167.032 192.698 167.318 191.857 167.318 190.748V186.952C167.318 185.843 167.032 185.002 166.46 184.43C165.888 183.858 165.09 183.572 164.068 183.572C163.062 183.572 162.265 183.858 161.676 184.43C161.104 185.002 160.818 185.843 160.818 186.952V190.748C160.818 191.857 161.104 192.698 161.676 193.27C162.265 193.842 163.062 194.128 164.068 194.128ZM174.275 200.68V181.7H176.615V184.43H176.641C176.763 183.494 177.17 182.766 177.863 182.246C178.574 181.709 179.467 181.44 180.541 181.44C181.98 181.44 183.124 181.917 183.973 182.87C184.84 183.806 185.273 185.097 185.273 186.744V190.93C185.273 192.577 184.84 193.877 183.973 194.83C183.124 195.783 181.98 196.26 180.541 196.26C179.467 196.26 178.583 195.991 177.889 195.454C177.196 194.917 176.78 194.189 176.641 193.27H176.563L176.615 196.52V200.68H174.275ZM179.761 194.232C180.749 194.232 181.521 193.937 182.075 193.348C182.647 192.759 182.933 191.909 182.933 190.8V186.9C182.933 185.791 182.647 184.941 182.075 184.352C181.521 183.763 180.749 183.468 179.761 183.468C178.808 183.468 178.045 183.771 177.473 184.378C176.901 184.985 176.615 185.825 176.615 186.9V190.8C176.615 191.875 176.901 192.715 177.473 193.322C178.045 193.929 178.808 194.232 179.761 194.232ZM191.737 200.16L193.817 192.074H197.197L193.817 200.16H191.737ZM225.179 196.26C223.671 196.26 222.484 195.879 221.617 195.116C220.75 194.336 220.317 193.287 220.317 191.97C220.317 190.635 220.75 189.587 221.617 188.824C222.484 188.061 223.654 187.68 225.127 187.68H229.547V186.25C229.547 185.383 229.278 184.707 228.741 184.222C228.221 183.737 227.493 183.494 226.557 183.494C225.725 183.494 225.023 183.676 224.451 184.04C223.879 184.404 223.524 184.881 223.385 185.47H221.045C221.132 184.673 221.418 183.971 221.903 183.364C222.406 182.757 223.056 182.289 223.853 181.96C224.668 181.613 225.569 181.44 226.557 181.44C228.204 181.44 229.504 181.865 230.457 182.714C231.41 183.563 231.887 184.716 231.887 186.172V196H229.599V193.27H229.573C229.469 194.189 229.018 194.917 228.221 195.454C227.441 195.991 226.427 196.26 225.179 196.26ZM225.751 194.414C226.86 194.414 227.77 194.137 228.481 193.582C229.192 193.027 229.547 192.317 229.547 191.45V189.422H225.179C224.399 189.422 223.784 189.639 223.333 190.072C222.882 190.505 222.657 191.095 222.657 191.84C222.657 192.637 222.926 193.27 223.463 193.738C224.018 194.189 224.78 194.414 225.751 194.414ZM236.609 196V181.7H238.949V184.43H238.975C239.096 183.477 239.486 182.74 240.145 182.22C240.803 181.7 241.679 181.44 242.771 181.44C244.209 181.44 245.353 181.882 246.203 182.766C247.052 183.65 247.477 184.855 247.477 186.38V196H245.137V186.64C245.137 185.617 244.859 184.837 244.305 184.3C243.767 183.745 243.031 183.468 242.095 183.468C241.124 183.468 240.353 183.763 239.781 184.352C239.226 184.941 238.949 185.791 238.949 186.9V196H236.609ZM256.775 196.26C255.353 196.26 254.201 195.783 253.317 194.83C252.45 193.877 252.017 192.585 252.017 190.956V186.77C252.017 185.123 252.45 183.823 253.317 182.87C254.183 181.917 255.336 181.44 256.775 181.44C257.849 181.44 258.733 181.709 259.427 182.246C260.12 182.783 260.527 183.511 260.649 184.43H260.727L260.675 181.18V177.02H263.015V196H260.675V193.27H260.649C260.527 194.206 260.12 194.943 259.427 195.48C258.733 196 257.849 196.26 256.775 196.26ZM257.555 194.232C258.525 194.232 259.288 193.929 259.843 193.322C260.397 192.715 260.675 191.875 260.675 190.8V186.9C260.675 185.825 260.397 184.985 259.843 184.378C259.288 183.771 258.525 183.468 257.555 183.468C256.567 183.468 255.787 183.763 255.215 184.352C254.643 184.941 254.357 185.791 254.357 186.9V190.8C254.357 191.909 254.643 192.759 255.215 193.348C255.787 193.937 256.567 194.232 257.555 194.232ZM282.962 196V177.02H286.03L288.058 183.156C288.249 183.711 288.405 184.265 288.526 184.82C288.665 185.357 288.769 185.773 288.838 186.068C288.908 185.773 289.012 185.357 289.15 184.82C289.289 184.265 289.445 183.702 289.618 183.13L291.542 177.02H294.61V196H292.322V187.03C292.322 185.487 292.392 183.971 292.53 182.48C292.669 180.989 292.825 179.559 292.998 178.19L289.904 187.68H287.668L284.548 178.19C284.739 179.507 284.904 180.885 285.042 182.324C285.181 183.763 285.25 185.331 285.25 187.03V196H282.962ZM304.376 196.208C302.643 196.208 301.274 195.723 300.268 194.752C299.28 193.764 298.786 192.429 298.786 190.748V186.952C298.786 185.253 299.28 183.919 300.268 182.948C301.274 181.977 302.643 181.492 304.376 181.492C306.11 181.492 307.47 181.977 308.458 182.948C309.464 183.919 309.966 185.245 309.966 186.926V190.748C309.966 192.429 309.464 193.764 308.458 194.752C307.47 195.723 306.11 196.208 304.376 196.208ZM304.376 194.128C305.399 194.128 306.196 193.842 306.768 193.27C307.34 192.698 307.626 191.857 307.626 190.748V186.952C307.626 185.843 307.34 185.002 306.768 184.43C306.196 183.858 305.399 183.572 304.376 183.572C303.371 183.572 302.574 183.858 301.984 184.43C301.412 185.002 301.126 185.843 301.126 186.952V190.748C301.126 191.857 301.412 192.698 301.984 193.27C302.574 193.842 303.371 194.128 304.376 194.128ZM320.798 196.26C319.723 196.26 318.839 196 318.146 195.48C317.453 194.943 317.045 194.206 316.924 193.27H316.898V196H314.558V177.02H316.898V181.18L316.846 184.43H316.924C317.045 183.511 317.453 182.783 318.146 182.246C318.839 181.709 319.723 181.44 320.798 181.44C322.237 181.44 323.389 181.917 324.256 182.87C325.123 183.823 325.556 185.123 325.556 186.77V190.956C325.556 192.585 325.123 193.877 324.256 194.83C323.389 195.783 322.237 196.26 320.798 196.26ZM320.018 194.232C321.006 194.232 321.786 193.937 322.358 193.348C322.93 192.759 323.216 191.909 323.216 190.8V186.9C323.216 185.791 322.93 184.941 322.358 184.352C321.786 183.763 321.006 183.468 320.018 183.468C319.065 183.468 318.302 183.771 317.73 184.378C317.175 184.985 316.898 185.825 316.898 186.9V190.8C316.898 191.875 317.175 192.715 317.73 193.322C318.302 193.929 319.065 194.232 320.018 194.232ZM329.966 196V193.868H335.036V183.832H330.486V181.7H337.376V193.868H342.186V196H329.966ZM335.946 179.126C335.374 179.126 334.923 178.979 334.594 178.684C334.265 178.389 334.1 177.991 334.1 177.488C334.1 176.968 334.265 176.561 334.594 176.266C334.923 175.954 335.374 175.798 335.946 175.798C336.518 175.798 336.969 175.954 337.298 176.266C337.627 176.561 337.792 176.968 337.792 177.488C337.792 177.991 337.627 178.389 337.298 178.684C336.969 178.979 336.518 179.126 335.946 179.126ZM353.226 196C351.96 196 350.946 195.636 350.184 194.908C349.438 194.163 349.066 193.183 349.066 191.97V179.152H344.126V177.02H351.406V191.97C351.406 192.559 351.57 193.027 351.9 193.374C352.229 193.703 352.671 193.868 353.226 193.868H357.646V196H353.226ZM366.736 196.26C365.609 196.26 364.621 196.035 363.772 195.584C362.94 195.133 362.29 194.501 361.822 193.686C361.371 192.854 361.146 191.892 361.146 190.8V186.9C361.146 185.791 361.371 184.829 361.822 184.014C362.29 183.199 362.94 182.567 363.772 182.116C364.621 181.665 365.609 181.44 366.736 181.44C367.862 181.44 368.842 181.665 369.674 182.116C370.523 182.567 371.173 183.199 371.624 184.014C372.092 184.829 372.326 185.791 372.326 186.9V189.422H363.434V190.8C363.434 191.927 363.72 192.793 364.292 193.4C364.864 193.989 365.678 194.284 366.736 194.284C367.637 194.284 368.365 194.128 368.92 193.816C369.474 193.487 369.812 193.001 369.934 192.36H372.274C372.118 193.556 371.528 194.509 370.506 195.22C369.5 195.913 368.244 196.26 366.736 196.26ZM363.434 187.654H370.038V186.9C370.038 185.773 369.752 184.907 369.18 184.3C368.625 183.693 367.81 183.39 366.736 183.39C365.678 183.39 364.864 183.693 364.292 184.3C363.72 184.907 363.434 185.773 363.434 186.9V187.654ZM396.667 196.26C395.159 196.26 393.972 195.879 393.105 195.116C392.239 194.336 391.805 193.287 391.805 191.97C391.805 190.635 392.239 189.587 393.105 188.824C393.972 188.061 395.142 187.68 396.615 187.68H401.035V186.25C401.035 185.383 400.767 184.707 400.229 184.222C399.709 183.737 398.981 183.494 398.045 183.494C397.213 183.494 396.511 183.676 395.939 184.04C395.367 184.404 395.012 184.881 394.873 185.47H392.533C392.62 184.673 392.906 183.971 393.391 183.364C393.894 182.757 394.544 182.289 395.341 181.96C396.156 181.613 397.057 181.44 398.045 181.44C399.692 181.44 400.992 181.865 401.945 182.714C402.899 183.563 403.375 184.716 403.375 186.172V196H401.087V193.27H401.061C400.957 194.189 400.507 194.917 399.709 195.454C398.929 195.991 397.915 196.26 396.667 196.26ZM397.239 194.414C398.349 194.414 399.259 194.137 399.969 193.582C400.68 193.027 401.035 192.317 401.035 191.45V189.422H396.667C395.887 189.422 395.272 189.639 394.821 190.072C394.371 190.505 394.145 191.095 394.145 191.84C394.145 192.637 394.414 193.27 394.951 193.738C395.506 194.189 396.269 194.414 397.239 194.414ZM408.123 200.68V181.7H410.463V184.43H410.489C410.61 183.494 411.018 182.766 411.711 182.246C412.422 181.709 413.314 181.44 414.389 181.44C415.828 181.44 416.972 181.917 417.821 182.87C418.688 183.806 419.121 185.097 419.121 186.744V190.93C419.121 192.577 418.688 193.877 417.821 194.83C416.972 195.783 415.828 196.26 414.389 196.26C413.314 196.26 412.43 195.991 411.737 195.454C411.044 194.917 410.628 194.189 410.489 193.27H410.411L410.463 196.52V200.68H408.123ZM413.609 194.232C414.597 194.232 415.368 193.937 415.923 193.348C416.495 192.759 416.781 191.909 416.781 190.8V186.9C416.781 185.791 416.495 184.941 415.923 184.352C415.368 183.763 414.597 183.468 413.609 183.468C412.656 183.468 411.893 183.771 411.321 184.378C410.749 184.985 410.463 185.825 410.463 186.9V190.8C410.463 191.875 410.749 192.715 411.321 193.322C411.893 193.929 412.656 194.232 413.609 194.232ZM423.713 200.68V181.7H426.053V184.43H426.079C426.2 183.494 426.608 182.766 427.301 182.246C428.012 181.709 428.904 181.44 429.979 181.44C431.418 181.44 432.562 181.917 433.411 182.87C434.278 183.806 434.711 185.097 434.711 186.744V190.93C434.711 192.577 434.278 193.877 433.411 194.83C432.562 195.783 431.418 196.26 429.979 196.26C428.904 196.26 428.02 195.991 427.327 195.454C426.634 194.917 426.218 194.189 426.079 193.27H426.001L426.053 196.52V200.68H423.713ZM429.199 194.232C430.187 194.232 430.958 193.937 431.513 193.348C432.085 192.759 432.371 191.909 432.371 190.8V186.9C432.371 185.791 432.085 184.941 431.513 184.352C430.958 183.763 430.187 183.468 429.199 183.468C428.246 183.468 427.483 183.771 426.911 184.378C426.339 184.985 426.053 185.825 426.053 186.9V190.8C426.053 191.875 426.339 192.715 426.911 193.322C427.483 193.929 428.246 194.232 429.199 194.232ZM444.243 196.208C442.769 196.208 441.565 195.87 440.629 195.194C439.693 194.518 439.225 193.591 439.225 192.412H441.617C441.617 192.949 441.868 193.374 442.371 193.686C442.891 193.981 443.532 194.128 444.295 194.128H445.387C446.305 194.128 446.99 193.946 447.441 193.582C447.891 193.201 448.117 192.698 448.117 192.074C448.117 191.467 447.9 190.991 447.467 190.644C447.051 190.28 446.444 190.037 445.647 189.916L443.723 189.604C442.301 189.361 441.253 188.911 440.577 188.252C439.901 187.593 439.563 186.683 439.563 185.522C439.563 184.222 439.979 183.225 440.811 182.532C441.66 181.839 442.873 181.492 444.451 181.492H445.439C446.895 181.492 448.056 181.821 448.923 182.48C449.807 183.121 450.249 183.979 450.249 185.054H447.857C447.857 184.603 447.631 184.248 447.181 183.988C446.747 183.711 446.149 183.572 445.387 183.572H444.399C443.584 183.572 442.951 183.745 442.501 184.092C442.067 184.421 441.851 184.898 441.851 185.522C441.851 186.562 442.587 187.203 444.061 187.446L445.985 187.758C447.527 188.001 448.645 188.451 449.339 189.11C450.049 189.769 450.405 190.722 450.405 191.97C450.405 193.287 449.98 194.327 449.131 195.09C448.299 195.835 447.033 196.208 445.335 196.208H444.243ZM471.262 196L468.974 181.7H471.002L472.432 191.84C472.484 192.221 472.536 192.637 472.588 193.088C472.64 193.521 472.675 193.885 472.692 194.18H472.796C472.831 193.885 472.874 193.521 472.926 193.088C472.978 192.637 473.039 192.221 473.108 191.84L474.694 181.7H477.034L478.62 191.84C478.69 192.221 478.75 192.637 478.802 193.088C478.872 193.521 478.915 193.885 478.932 194.18H479.036C479.071 193.885 479.114 193.521 479.166 193.088C479.236 192.637 479.296 192.221 479.348 191.84L480.83 181.7H482.754L480.362 196H477.788L476.254 186.12C476.185 185.635 476.116 185.149 476.046 184.664C475.977 184.179 475.925 183.797 475.89 183.52H475.786C475.769 183.797 475.726 184.179 475.656 184.664C475.604 185.149 475.535 185.635 475.448 186.12L473.836 196H471.262ZM485.864 196V193.868H490.934V183.832H486.384V181.7H493.274V193.868H498.084V196H485.864ZM491.844 179.126C491.272 179.126 490.822 178.979 490.492 178.684C490.163 178.389 489.998 177.991 489.998 177.488C489.998 176.968 490.163 176.561 490.492 176.266C490.822 175.954 491.272 175.798 491.844 175.798C492.416 175.798 492.867 175.954 493.196 176.266C493.526 176.561 493.69 176.968 493.69 177.488C493.69 177.991 493.526 178.389 493.196 178.684C492.867 178.979 492.416 179.126 491.844 179.126ZM508.604 196C507.425 196 506.481 195.662 505.77 194.986C505.059 194.293 504.704 193.374 504.704 192.23V183.832H500.674V181.7H504.704V177.67H507.044V181.7H512.764V183.832H507.044V192.23C507.044 192.715 507.183 193.114 507.46 193.426C507.755 193.721 508.136 193.868 508.604 193.868H512.504V196H508.604ZM517.226 196V177.02H519.566V184.43H519.592C519.713 183.477 520.103 182.74 520.762 182.22C521.421 181.7 522.296 181.44 523.388 181.44C524.827 181.44 525.971 181.882 526.82 182.766C527.669 183.65 528.094 184.855 528.094 186.38V196H525.754V186.64C525.754 185.617 525.477 184.829 524.922 184.274C524.385 183.702 523.648 183.416 522.712 183.416C521.741 183.416 520.97 183.719 520.398 184.326C519.843 184.933 519.566 185.791 519.566 186.9V196H517.226ZM552.566 196.26C551.058 196.26 549.87 195.879 549.004 195.116C548.137 194.336 547.704 193.287 547.704 191.97C547.704 190.635 548.137 189.587 549.004 188.824C549.87 188.061 551.04 187.68 552.514 187.68H556.934V186.25C556.934 185.383 556.665 184.707 556.128 184.222C555.608 183.737 554.88 183.494 553.944 183.494C553.112 183.494 552.41 183.676 551.838 184.04C551.266 184.404 550.91 184.881 550.772 185.47H548.432C548.518 184.673 548.804 183.971 549.29 183.364C549.792 182.757 550.442 182.289 551.24 181.96C552.054 181.613 552.956 181.44 553.944 181.44C555.59 181.44 556.89 181.865 557.844 182.714C558.797 183.563 559.274 184.716 559.274 186.172V196H556.986V193.27H556.96C556.856 194.189 556.405 194.917 555.608 195.454C554.828 195.991 553.814 196.26 552.566 196.26ZM553.138 194.414C554.247 194.414 555.157 194.137 555.868 193.582C556.578 193.027 556.934 192.317 556.934 191.45V189.422H552.566C551.786 189.422 551.17 189.639 550.72 190.072C550.269 190.505 550.044 191.095 550.044 191.84C550.044 192.637 550.312 193.27 550.85 193.738C551.404 194.189 552.167 194.414 553.138 194.414ZM584.551 196.208C583.078 196.208 581.873 195.87 580.937 195.194C580.001 194.518 579.533 193.591 579.533 192.412H581.925C581.925 192.949 582.177 193.374 582.679 193.686C583.199 193.981 583.841 194.128 584.603 194.128H585.695C586.614 194.128 587.299 193.946 587.749 193.582C588.2 193.201 588.425 192.698 588.425 192.074C588.425 191.467 588.209 190.991 587.775 190.644C587.359 190.28 586.753 190.037 585.955 189.916L584.031 189.604C582.61 189.361 581.561 188.911 580.885 188.252C580.209 187.593 579.871 186.683 579.871 185.522C579.871 184.222 580.287 183.225 581.119 182.532C581.969 181.839 583.182 181.492 584.759 181.492H585.747C587.203 181.492 588.365 181.821 589.231 182.48C590.115 183.121 590.557 183.979 590.557 185.054H588.165C588.165 184.603 587.94 184.248 587.489 183.988C587.056 183.711 586.458 183.572 585.695 183.572H584.707C583.893 183.572 583.26 183.745 582.809 184.092C582.376 184.421 582.159 184.898 582.159 185.522C582.159 186.562 582.896 187.203 584.369 187.446L586.293 187.758C587.836 188.001 588.954 188.451 589.647 189.11C590.358 189.769 590.713 190.722 590.713 191.97C590.713 193.287 590.289 194.327 589.439 195.09C588.607 195.835 587.342 196.208 585.643 196.208H584.551ZM594.993 196V193.868H600.063V183.832H595.513V181.7H602.403V193.868H607.213V196H594.993ZM600.973 179.126C600.401 179.126 599.951 178.979 599.621 178.684C599.292 178.389 599.127 177.991 599.127 177.488C599.127 176.968 599.292 176.561 599.621 176.266C599.951 175.954 600.401 175.798 600.973 175.798C601.545 175.798 601.996 175.954 602.325 176.266C602.655 176.561 602.819 176.968 602.819 177.488C602.819 177.991 602.655 178.389 602.325 178.684C601.996 178.979 601.545 179.126 600.973 179.126ZM610.765 196V181.7H613.105V184.43H613.131C613.252 183.477 613.642 182.74 614.301 182.22C614.96 181.7 615.835 181.44 616.927 181.44C618.366 181.44 619.51 181.882 620.359 182.766C621.208 183.65 621.633 184.855 621.633 186.38V196H619.293V186.64C619.293 185.617 619.016 184.837 618.461 184.3C617.924 183.745 617.187 183.468 616.251 183.468C615.28 183.468 614.509 183.763 613.937 184.352C613.382 184.941 613.105 185.791 613.105 186.9V196H610.765ZM628.149 200.68V198.548H632.699C634.103 198.548 634.805 197.872 634.805 196.52V194.7L634.857 192.1H634.805C634.718 193.019 634.328 193.747 633.635 194.284C632.959 194.821 632.084 195.09 631.009 195.09C629.536 195.09 628.374 194.613 627.525 193.66C626.676 192.689 626.251 191.389 626.251 189.76V186.744C626.251 185.115 626.676 183.823 627.525 182.87C628.374 181.917 629.536 181.44 631.009 181.44C632.084 181.44 632.959 181.709 633.635 182.246C634.328 182.783 634.718 183.511 634.805 184.43H634.831V181.7H637.145V196.52C637.145 197.803 636.746 198.817 635.949 199.562C635.169 200.307 634.077 200.68 632.673 200.68H628.149ZM631.711 193.062C632.682 193.062 633.444 192.759 633.999 192.152C634.554 191.545 634.831 190.705 634.831 189.63V186.9C634.831 185.825 634.554 184.985 633.999 184.378C633.444 183.771 632.682 183.468 631.711 183.468C630.723 183.468 629.952 183.763 629.397 184.352C628.86 184.941 628.591 185.791 628.591 186.9V189.63C628.591 190.739 628.86 191.589 629.397 192.178C629.952 192.767 630.723 193.062 631.711 193.062ZM649.433 196C648.167 196 647.153 195.636 646.391 194.908C645.645 194.163 645.273 193.183 645.273 191.97V179.152H640.333V177.02H647.613V191.97C647.613 192.559 647.777 193.027 648.107 193.374C648.436 193.703 648.878 193.868 649.433 193.868H653.853V196H649.433ZM662.943 196.26C661.816 196.26 660.828 196.035 659.979 195.584C659.147 195.133 658.497 194.501 658.029 193.686C657.578 192.854 657.353 191.892 657.353 190.8V186.9C657.353 185.791 657.578 184.829 658.029 184.014C658.497 183.199 659.147 182.567 659.979 182.116C660.828 181.665 661.816 181.44 662.943 181.44C664.069 181.44 665.049 181.665 665.881 182.116C666.73 182.567 667.38 183.199 667.831 184.014C668.299 184.829 668.533 185.791 668.533 186.9V189.422H659.641V190.8C659.641 191.927 659.927 192.793 660.499 193.4C661.071 193.989 661.885 194.284 662.943 194.284C663.844 194.284 664.572 194.128 665.127 193.816C665.681 193.487 666.019 193.001 666.141 192.36H668.481C668.325 193.556 667.735 194.509 666.713 195.22C665.707 195.913 664.451 196.26 662.943 196.26ZM659.641 187.654H666.245V186.9C666.245 185.773 665.959 184.907 665.387 184.3C664.832 183.693 664.017 183.39 662.943 183.39C661.885 183.39 661.071 183.693 660.499 184.3C659.927 184.907 659.641 185.773 659.641 186.9V187.654ZM694.226 196.26C692.493 196.26 691.106 195.775 690.066 194.804C689.044 193.833 688.532 192.499 688.532 190.8V186.9C688.532 185.201 689.044 183.867 690.066 182.896C691.106 181.925 692.493 181.44 694.226 181.44C695.873 181.44 697.199 181.882 698.204 182.766C699.21 183.65 699.738 184.855 699.79 186.38H697.45C697.398 185.461 697.086 184.759 696.514 184.274C695.96 183.771 695.197 183.52 694.226 183.52C693.204 183.52 692.389 183.815 691.782 184.404C691.176 184.976 690.872 185.799 690.872 186.874V190.8C690.872 191.875 691.176 192.707 691.782 193.296C692.389 193.885 693.204 194.18 694.226 194.18C695.197 194.18 695.96 193.929 696.514 193.426C697.086 192.923 697.398 192.221 697.45 191.32H699.79C699.738 192.845 699.21 194.05 698.204 194.934C697.199 195.818 695.873 196.26 694.226 196.26ZM709.712 196.208C707.979 196.208 706.609 195.723 705.604 194.752C704.616 193.764 704.122 192.429 704.122 190.748V186.952C704.122 185.253 704.616 183.919 705.604 182.948C706.609 181.977 707.979 181.492 709.712 181.492C711.445 181.492 712.806 181.977 713.794 182.948C714.799 183.919 715.302 185.245 715.302 186.926V190.748C715.302 192.429 714.799 193.764 713.794 194.752C712.806 195.723 711.445 196.208 709.712 196.208ZM709.712 194.128C710.735 194.128 711.532 193.842 712.104 193.27C712.676 192.698 712.962 191.857 712.962 190.748V186.952C712.962 185.843 712.676 185.002 712.104 184.43C711.532 183.858 710.735 183.572 709.712 183.572C708.707 183.572 707.909 183.858 707.32 184.43C706.748 185.002 706.462 185.843 706.462 186.952V190.748C706.462 191.857 706.748 192.698 707.32 193.27C707.909 193.842 708.707 194.128 709.712 194.128ZM724.47 196.26C723.049 196.26 721.896 195.783 721.012 194.83C720.145 193.877 719.712 192.585 719.712 190.956V186.77C719.712 185.123 720.145 183.823 721.012 182.87C721.879 181.917 723.031 181.44 724.47 181.44C725.545 181.44 726.429 181.709 727.122 182.246C727.815 182.783 728.223 183.511 728.344 184.43H728.422L728.37 181.18V177.02H730.71V196H728.37V193.27H728.344C728.223 194.206 727.815 194.943 727.122 195.48C726.429 196 725.545 196.26 724.47 196.26ZM725.25 194.232C726.221 194.232 726.983 193.929 727.538 193.322C728.093 192.715 728.37 191.875 728.37 190.8V186.9C728.37 185.825 728.093 184.985 727.538 184.378C726.983 183.771 726.221 183.468 725.25 183.468C724.262 183.468 723.482 183.763 722.91 184.352C722.338 184.941 722.052 185.791 722.052 186.9V190.8C722.052 191.909 722.338 192.759 722.91 193.348C723.482 193.937 724.262 194.232 725.25 194.232ZM740.892 196.26C739.765 196.26 738.777 196.035 737.928 195.584C737.096 195.133 736.446 194.501 735.978 193.686C735.527 192.854 735.302 191.892 735.302 190.8V186.9C735.302 185.791 735.527 184.829 735.978 184.014C736.446 183.199 737.096 182.567 737.928 182.116C738.777 181.665 739.765 181.44 740.892 181.44C742.018 181.44 742.998 181.665 743.83 182.116C744.679 182.567 745.329 183.199 745.78 184.014C746.248 184.829 746.482 185.791 746.482 186.9V189.422H737.59V190.8C737.59 191.927 737.876 192.793 738.448 193.4C739.02 193.989 739.834 194.284 740.892 194.284C741.793 194.284 742.521 194.128 743.076 193.816C743.63 193.487 743.968 193.001 744.09 192.36H746.43C746.274 193.556 745.684 194.509 744.662 195.22C743.656 195.913 742.4 196.26 740.892 196.26ZM737.59 187.654H744.194V186.9C744.194 185.773 743.908 184.907 743.336 184.3C742.781 183.693 741.966 183.39 740.892 183.39C739.834 183.39 739.02 183.693 738.448 184.3C737.876 184.907 737.59 185.773 737.59 186.9V187.654ZM757.314 196.26C756.239 196.26 755.355 196 754.662 195.48C753.968 194.943 753.561 194.206 753.44 193.27H753.414V196H751.074V177.02H753.414V181.18L753.362 184.43H753.44C753.561 183.511 753.968 182.783 754.662 182.246C755.355 181.709 756.239 181.44 757.314 181.44C758.752 181.44 759.905 181.917 760.772 182.87C761.638 183.823 762.072 185.123 762.072 186.77V190.956C762.072 192.585 761.638 193.877 760.772 194.83C759.905 195.783 758.752 196.26 757.314 196.26ZM756.534 194.232C757.522 194.232 758.302 193.937 758.874 193.348C759.446 192.759 759.732 191.909 759.732 190.8V186.9C759.732 185.791 759.446 184.941 758.874 184.352C758.302 183.763 757.522 183.468 756.534 183.468C755.58 183.468 754.818 183.771 754.246 184.378C753.691 184.985 753.414 185.825 753.414 186.9V190.8C753.414 191.875 753.691 192.715 754.246 193.322C754.818 193.929 755.58 194.232 756.534 194.232ZM770.823 196.26C769.315 196.26 768.128 195.879 767.261 195.116C766.395 194.336 765.961 193.287 765.961 191.97C765.961 190.635 766.395 189.587 767.261 188.824C768.128 188.061 769.298 187.68 770.771 187.68H775.191V186.25C775.191 185.383 774.923 184.707 774.385 184.222C773.865 183.737 773.137 183.494 772.201 183.494C771.369 183.494 770.667 183.676 770.095 184.04C769.523 184.404 769.168 184.881 769.029 185.47H766.689C766.776 184.673 767.062 183.971 767.547 183.364C768.05 182.757 768.7 182.289 769.497 181.96C770.312 181.613 771.213 181.44 772.201 181.44C773.848 181.44 775.148 181.865 776.101 182.714C777.055 183.563 777.531 184.716 777.531 186.172V196H775.243V193.27H775.217C775.113 194.189 774.663 194.917 773.865 195.454C773.085 195.991 772.071 196.26 770.823 196.26ZM771.395 194.414C772.505 194.414 773.415 194.137 774.125 193.582C774.836 193.027 775.191 192.317 775.191 191.45V189.422H770.823C770.043 189.422 769.428 189.639 768.977 190.072C768.527 190.505 768.301 191.095 768.301 191.84C768.301 192.637 768.57 193.27 769.107 193.738C769.662 194.189 770.425 194.414 771.395 194.414ZM787.219 196.208C785.746 196.208 784.541 195.87 783.605 195.194C782.669 194.518 782.201 193.591 782.201 192.412H784.593C784.593 192.949 784.845 193.374 785.347 193.686C785.867 193.981 786.509 194.128 787.271 194.128H788.363C789.282 194.128 789.967 193.946 790.417 193.582C790.868 193.201 791.093 192.698 791.093 192.074C791.093 191.467 790.877 190.991 790.443 190.644C790.027 190.28 789.421 190.037 788.623 189.916L786.699 189.604C785.278 189.361 784.229 188.911 783.553 188.252C782.877 187.593 782.539 186.683 782.539 185.522C782.539 184.222 782.955 183.225 783.787 182.532C784.637 181.839 785.85 181.492 787.427 181.492H788.415C789.871 181.492 791.033 181.821 791.899 182.48C792.783 183.121 793.225 183.979 793.225 185.054H790.833C790.833 184.603 790.608 184.248 790.157 183.988C789.724 183.711 789.126 183.572 788.363 183.572H787.375C786.561 183.572 785.928 183.745 785.477 184.092C785.044 184.421 784.827 184.898 784.827 185.522C784.827 186.562 785.564 187.203 787.037 187.446L788.961 187.758C790.504 188.001 791.622 188.451 792.315 189.11C793.026 189.769 793.381 190.722 793.381 191.97C793.381 193.287 792.957 194.327 792.107 195.09C791.275 195.835 790.01 196.208 788.311 196.208H787.219ZM803.251 196.26C802.125 196.26 801.137 196.035 800.287 195.584C799.455 195.133 798.805 194.501 798.337 193.686C797.887 192.854 797.661 191.892 797.661 190.8V186.9C797.661 185.791 797.887 184.829 798.337 184.014C798.805 183.199 799.455 182.567 800.287 182.116C801.137 181.665 802.125 181.44 803.251 181.44C804.378 181.44 805.357 181.665 806.189 182.116C807.039 182.567 807.689 183.199 808.139 184.014C808.607 184.829 808.841 185.791 808.841 186.9V189.422H799.949V190.8C799.949 191.927 800.235 192.793 800.807 193.4C801.379 193.989 802.194 194.284 803.251 194.284C804.153 194.284 804.881 194.128 805.435 193.816C805.99 193.487 806.328 193.001 806.449 192.36H808.789C808.633 193.556 808.044 194.509 807.021 195.22C806.016 195.913 804.759 196.26 803.251 196.26ZM799.949 187.654H806.553V186.9C806.553 185.773 806.267 184.907 805.695 184.3C805.141 183.693 804.326 183.39 803.251 183.39C802.194 183.39 801.379 183.693 800.807 184.3C800.235 184.907 799.949 185.773 799.949 186.9V187.654ZM818.841 196.26C818.182 196.26 817.654 196.069 817.255 195.688C816.874 195.307 816.683 194.795 816.683 194.154C816.683 193.478 816.874 192.941 817.255 192.542C817.654 192.143 818.182 191.944 818.841 191.944C819.5 191.944 820.02 192.143 820.401 192.542C820.8 192.941 820.999 193.478 820.999 194.154C820.999 194.795 820.8 195.307 820.401 195.688C820.02 196.069 819.5 196.26 818.841 196.26Z" fill="white"/>
<path d="M150.701 122V34.4H174.221C179.901 34.4 184.821 35.52 188.981 37.76C193.221 39.92 196.501 43 198.821 47C201.141 50.92 202.301 55.56 202.301 60.92V95.36C202.301 100.72 201.141 105.4 198.821 109.4C196.501 113.4 193.221 116.52 188.981 118.76C184.821 120.92 179.901 122 174.221 122H150.701ZM162.581 111.44H174.221C179.261 111.44 183.221 110 186.101 107.12C188.981 104.24 190.421 100.32 190.421 95.36V60.92C190.421 55.96 188.981 52.08 186.101 49.28C183.221 46.4 179.261 44.96 174.221 44.96H162.581V111.44ZM224.214 122V111.2H242.094V45.2H224.214V34.4H271.974V45.2H254.094V111.2H271.974V122H224.214ZM320.047 123.2C312.047 123.2 305.727 120.96 301.087 116.48C296.447 111.92 294.127 105.68 294.127 97.76V58.52C294.127 50.68 296.447 44.52 301.087 40.04C305.727 35.48 312.047 33.2 320.047 33.2C328.047 33.2 334.367 35.48 339.007 40.04C343.647 44.52 345.967 50.68 345.967 58.52V97.76C345.967 105.68 343.647 111.92 339.007 116.48C334.367 120.96 328.047 123.2 320.047 123.2ZM320.047 112.64C324.527 112.64 327.967 111.36 330.367 108.8C332.847 106.24 334.087 102.56 334.087 97.76V58.52C334.087 53.8 332.887 50.16 330.487 47.6C328.087 45.04 324.607 43.76 320.047 43.76C315.487 43.76 312.007 45.04 309.607 47.6C307.207 50.16 306.007 53.8 306.007 58.52V97.76C306.007 102.56 307.207 106.24 309.607 108.8C312.087 111.36 315.567 112.64 320.047 112.64ZM360.44 122L385.4 77.48L361.76 34.4H375.32L388.28 59.36C389 60.8 389.72 62.28 390.44 63.8C391.24 65.32 391.84 66.48 392.24 67.28C392.64 66.48 393.2 65.32 393.92 63.8C394.64 62.28 395.36 60.8 396.08 59.36L409.16 34.4H422.24L398.6 76.88L423.56 122H410.12L395.72 95.12C395 93.68 394.28 92.2 393.56 90.68C392.84 89.08 392.28 87.8 391.88 86.84C391.48 87.8 390.92 89.08 390.2 90.68C389.48 92.2 388.72 93.64 387.92 95L373.52 122H360.44ZM463.953 123.2C455.713 123.2 449.353 120.92 444.873 116.36C440.473 111.8 438.273 105.6 438.273 97.76V34.4H450.153V97.76C450.153 102.4 451.273 106.04 453.513 108.68C455.833 111.32 459.313 112.64 463.953 112.64C468.513 112.64 471.953 111.32 474.273 108.68C476.673 106.04 477.873 102.4 477.873 97.76V34.4H489.753V97.76C489.753 105.68 487.513 111.92 483.033 116.48C478.633 120.96 472.273 123.2 463.953 123.2ZM536.266 123.2C530.586 123.2 525.626 122.2 521.386 120.2C517.146 118.2 513.866 115.4 511.546 111.8C509.226 108.12 508.066 103.8 508.066 98.84H519.946C519.946 103 521.426 106.36 524.386 108.92C527.426 111.4 531.426 112.64 536.386 112.64C541.186 112.64 544.986 111.4 547.786 108.92C550.586 106.36 551.986 103 551.986 98.84C551.986 95.56 551.106 92.68 549.346 90.2C547.586 87.64 545.186 85.92 542.146 85.04L529.786 81.32C523.626 79.48 518.826 76.4 515.386 72.08C512.026 67.76 510.346 62.68 510.346 56.84C510.346 49.64 512.706 43.92 517.426 39.68C522.146 35.36 528.506 33.2 536.506 33.2C544.426 33.2 550.746 35.36 555.466 39.68C560.186 43.92 562.546 49.6 562.546 56.72H550.666C550.666 52.8 549.386 49.64 546.826 47.24C544.266 44.84 540.826 43.64 536.506 43.64C532.106 43.64 528.586 44.84 525.946 47.24C523.306 49.56 521.986 52.68 521.986 56.6C521.986 59.72 522.866 62.4 524.626 64.64C526.466 66.88 528.986 68.48 532.186 69.44L544.906 73.4C550.746 75.24 555.346 78.4 558.706 82.88C562.066 87.36 563.746 92.64 563.746 98.72C563.746 103.68 562.586 108 560.266 111.68C558.026 115.36 554.866 118.2 550.786 120.2C546.706 122.2 541.866 123.2 536.266 123.2Z" fill="white"/>
<path d="M666.867 25.72C666.867 37.2576 664.367 46.2763 660.361 53.3827C656.354 60.4891 650.608 66.7207 644.359 73.3705C638.111 80.0202 631.36 87.085 625.994 96.6029C620.628 106.121 616.883 117.285 616.883 132.347H630.687C630.687 120.809 633.193 112.184 637.199 105.078C641.206 97.9713 646.952 91.7397 653.2 85.0899C659.449 78.4402 666.199 71.3754 671.566 61.8575C676.932 52.3396 680.676 40.7813 680.676 25.72H666.867Z" fill="#E96020"/>
<path d="M629.775 116.26C627.908 116.259 626.777 118.191 626.777 120.573C626.777 122.956 627.908 124.888 629.775 124.887H667.785C669.651 124.888 671.165 122.956 671.164 120.573C671.165 118.191 669.651 116.259 667.785 116.26H629.775Z" fill="#2D323B"/>
<path d="M633.774 100.974C631.988 100.975 630.971 103.066 630.973 105.346C630.974 107.623 631.99 109.227 633.774 109.228H663.786C665.569 109.227 667.015 107.382 667.016 105.105C667.018 102.825 665.572 100.975 663.786 100.974H633.774Z" fill="#2D323B"/>
<path d="M633.774 49.9973C631.988 49.9981 630.541 51.8483 630.544 54.1282C630.544 56.4052 631.99 58.2509 633.774 58.2517H663.786C665.569 58.2509 666.586 56.0094 666.587 53.7323C666.589 51.4524 665.572 49.9981 663.786 49.9973H633.774Z" fill="#2D323B"/>
<path d="M629.775 34.1111C627.911 34.1103 626.398 36.0377 626.396 38.4177C626.395 40.8006 627.908 42.7325 629.775 42.7317H667.785C669.651 42.7325 670.783 40.8652 670.782 38.4823C670.78 36.1023 669.649 34.1103 667.785 34.1111H629.775Z" fill="#2D323B"/>
<path d="M616.883 25.72C616.883 40.7813 620.628 52.3396 625.994 61.8575C631.36 71.3754 638.111 78.4402 644.359 85.0899C650.608 91.7397 656.354 98.8 660.361 105.906C664.367 113.013 666.867 120.809 666.867 132.347H680.676C680.676 117.285 676.932 105.955 671.566 96.4372C666.199 86.9192 659.449 79.8544 653.2 73.2047C646.952 66.555 641.206 60.3233 637.199 53.217C633.193 46.1106 630.687 37.2576 630.687 25.72H616.883Z" fill="#00A8D6"/>
</svg>
