<svg width="57" height="57" xmlns="http://www.w3.org/2000/svg"><g fill="#FFF" fill-rule="evenodd"><path d="M28.44 49.58v-1a20.07 20.07 0 0 1-14.23-5.9 20.07 20.07 0 0 1 0-28.47 20.07 20.07 0 0 1 28.47 0 20.08 20.08 0 0 1 0 28.47 20.07 20.07 0 0 1-14.24 5.9v2a22.16 22.16 0 0 0 22.14-22.14c0-12.2-9.93-22.13-22.14-22.14A22.16 22.16 0 0 0 6.3 28.44a22.16 22.16 0 0 0 22.14 22.14v-1"/><path d="M28.44 55.89v-1c-7.29 0-13.9-2.97-18.69-7.76a26.36 26.36 0 0 1 0-37.38 26.36 26.36 0 0 1 37.38 0 26.36 26.36 0 0 1 0 37.38 26.35 26.35 0 0 1-18.69 7.76v2a28.47 28.47 0 0 0 28.44-28.45A28.47 28.47 0 0 0 28.44 0 28.47 28.47 0 0 0 0 28.44 28.47 28.47 0 0 0 28.44 56.9v-1"/><path d="M43.04 28.44h-1 .03-.03.03-.03l-.02.05a1.66 1.66 0 0 1-.27.37c-.21.25-.53.54-.85.88a4.5 4.5 0 0 0-.46.57 2.4 2.4 0 0 0-.35.8 2.25 2.25 0 0 0-.06.5c0 .34.07.64.14.91.11.42.26.79.37 1.1.1.32.16.58.15.68v.05l.08.03-.08-.04v.01l.08.03-.08-.04.03.02-.02-.02.02.02-.02-.02s-.09.08-.27.17c-.27.13-.7.27-1.18.44a5.07 5.07 0 0 0-.74.33 2.49 2.49 0 0 0-.73.6c-.31.4-.43.82-.51 1.2-.12.56-.14 1.1-.2 1.49a2.05 2.05 0 0 1-.11.43l-.04.07.03.05-.03-.05.03.05-.03-.05.04.06-.03-.06h-.01l.04.06-.03-.06s-.12.04-.32.04a7.04 7.04 0 0 1-.78-.07c-.3-.03-.64-.07-1-.07-.37 0-.78.03-1.2.24a2.6 2.6 0 0 0-.98.85c-.35.45-.6.92-.82 1.24a2.1 2.1 0 0 1-.29.34l-.07.06v.04-.04.04-.04l.01.06v-.06h-.01l.01.06v-.06a.89.89 0 0 1-.3-.1c-.27-.14-.65-.4-1.08-.66a5.08 5.08 0 0 0-.73-.36 2.55 2.55 0 0 0-.93-.2c-.47 0-.85.15-1.19.3-.49.25-.9.54-1.24.74l-.43.23a.58.58 0 0 1-.18.05v.06l.02-.06h-.02v.06l.02-.06-.02.05.02-.05-.02.05.02-.05c-.03-.02-.14-.1-.26-.26-.2-.25-.42-.64-.69-1.05a4.94 4.94 0 0 0-.48-.63 2.47 2.47 0 0 0-.73-.55c-.43-.2-.83-.24-1.2-.24-.36 0-.7.04-1 .07a7.28 7.28 0 0 1-.78.07 1.21 1.21 0 0 1-.28-.03l-.04-.01-.04.06.05-.06h-.01l-.04.06.05-.06-.03.03.03-.02-.03.02.03-.02s-.06-.1-.1-.3c-.08-.29-.1-.75-.18-1.25a5.18 5.18 0 0 0-.16-.8 2.5 2.5 0 0 0-.43-.84c-.32-.4-.7-.6-1.04-.77-.53-.23-1.04-.37-1.4-.52a2.06 2.06 0 0 1-.4-.2l-.07-.06-.04.02.04-.02-.04.02.04-.02-.07.04.08-.03-.08.03.08-.03h-.02.02-.02.02v-.05a1.6 1.6 0 0 1 .06-.38c.07-.27.2-.61.33-1 .13-.38.26-.8.26-1.31 0-.16-.01-.33-.05-.5-.12-.5-.37-.85-.61-1.15-.37-.43-.77-.78-1.03-1.07a2 2 0 0 1-.27-.36l-.04-.08v-.01h-.02.02-.02.02-.04.04-.04.04l.02-.05a1.65 1.65 0 0 1 .26-.37c.22-.24.54-.53.85-.87.16-.17.32-.36.47-.58a2.18 2.18 0 0 0 .4-1.29 3.51 3.51 0 0 0-.14-.92c-.1-.41-.26-.78-.36-1.1-.1-.32-.16-.58-.16-.68v-.05l-.07-.02.07.03-.07-.03.07.03-.03-.01.03.02-.03-.02.03.02s.08-.09.26-.17c.27-.14.71-.27 1.19-.45a5.06 5.06 0 0 0 .73-.33c.25-.14.51-.33.73-.6.32-.4.44-.82.52-1.2.11-.56.14-1.09.2-1.48.03-.2.07-.35.11-.43l.04-.08-.04-.04.04.04-.04-.04.04.04-.05-.06.04.07-.04-.07.04.07a.92.92 0 0 1 .32-.04c.2 0 .47.03.78.06.3.04.64.08 1 .08.37 0 .77-.04 1.2-.24.46-.23.74-.55.98-.85.34-.46.59-.93.82-1.25.11-.16.21-.28.28-.34l.07-.05h.01l-.01-.04v.04h.01l-.01-.04v.04-.07.07-.07.07a.89.89 0 0 1 .29.1c.27.13.65.4 1.09.65.22.13.45.26.72.37.27.1.58.19.93.19.47 0 .86-.15 1.2-.3.48-.24.9-.54 1.24-.74.17-.1.32-.18.43-.22a.58.58 0 0 1 .17-.05v-.07l-.01.06h.01v-.06l-.01.06.01-.04-.02.04.02-.04-.02.04h.01c.03.02.13.1.26.27.2.24.41.64.68 1.05.14.2.3.41.48.62.2.2.42.4.73.56.43.2.84.24 1.2.24.37 0 .7-.04 1-.08.31-.03.59-.06.79-.06l.27.02.04.02.04-.07-.04.06.04-.05-.04.05.03-.03-.04.03h.01l.03-.03-.04.03s.07.1.11.3c.07.28.1.75.17 1.25.03.25.08.51.16.79.09.27.21.57.43.85.32.39.7.6 1.05.76.52.24 1.03.37 1.4.53a2 2 0 0 1 .4.2l.06.05.05-.02-.05.02.05-.02-.05.02.08-.03-.08.02v.01l.08-.03-.08.02h.01-.01.01-.01v.05c0 .07-.02.2-.06.39l-.34 1c-.12.38-.25.8-.26 1.3 0 .17.02.34.06.51.12.5.37.84.6 1.14.38.44.78.78 1.04 1.08a2 2 0 0 1 .27.35l.03.08v.01h.03-.02.02-.02 2a2.07 2.07 0 0 0-.14-.74 3.24 3.24 0 0 0-.6-.94c-.32-.37-.66-.68-.9-.95a2.8 2.8 0 0 1-.29-.33.53.53 0 0 1-.07-.14v-.06a1.61 1.61 0 0 1 .06-.4c.07-.27.2-.61.33-.99s.26-.8.26-1.3c0-.29-.05-.6-.2-.92a2.04 2.04 0 0 0-.45-.6c-.3-.28-.62-.45-.93-.58-.46-.2-.9-.33-1.23-.46a2.83 2.83 0 0 1-.4-.18.52.52 0 0 1-.14-.1 1 1 0 0 1-.12-.35c-.07-.34-.1-.85-.18-1.4a3.94 3.94 0 0 0-.23-.87 2.15 2.15 0 0 0-.64-.88 2.08 2.08 0 0 0-.81-.39 3.16 3.16 0 0 0-.75-.08c-.37 0-.7.04-1 .07a7.43 7.43 0 0 1-.79.07.89.89 0 0 1-.33-.04s-.11-.08-.25-.26c-.21-.28-.46-.73-.78-1.19a3.93 3.93 0 0 0-.59-.68 2.17 2.17 0 0 0-.96-.52 1.89 1.89 0 0 0-.43-.04c-.47 0-.85.15-1.17.3-.48.24-.89.53-1.23.73-.17.1-.32.18-.44.23a.62.62 0 0 1-.2.05.9.9 0 0 1-.32-.1c-.28-.14-.66-.4-1.09-.66a5.13 5.13 0 0 0-.7-.36 2.47 2.47 0 0 0-.93-.2c-.14 0-.28.02-.43.06a2.05 2.05 0 0 0-.69.3 3.25 3.25 0 0 0-.78.78c-.3.4-.51.8-.72 1.1l-.26.35a.54.54 0 0 1-.13.1c0 .01-.12.05-.33.05a7.28 7.28 0 0 1-.78-.07c-.3-.03-.64-.07-1-.07-.24 0-.49.02-.75.08a2.08 2.08 0 0 0-.81.39 2.04 2.04 0 0 0-.5.57c-.2.36-.28.71-.35 1.04-.09.49-.11.95-.17 1.3a2.77 2.77 0 0 1-.09.43.53.53 0 0 1-.07.16s-.1.1-.31.2c-.32.14-.81.28-1.33.48a3.93 3.93 0 0 0-.8.42 2.15 2.15 0 0 0-.71.82 2.08 2.08 0 0 0-.2.91c0 .34.07.64.14.91.11.41.26.78.36 1.1.11.31.17.58.16.69v.06l-.04.08a2.54 2.54 0 0 1-.35.43c-.26.27-.6.58-.93.97a3.4 3.4 0 0 0-.45.68 2.15 2.15 0 0 0-.23.94 2 2 0 0 0 .14.75c.15.38.37.67.59.93.32.38.67.69.92.95.12.13.21.25.27.34a.53.53 0 0 1 .08.14v.06a1.6 1.6 0 0 1-.07.4c-.07.26-.2.6-.33.98-.12.39-.25.8-.26 1.31a2.02 2.02 0 0 0 .65 1.52c.3.28.63.44.93.58.46.2.9.32 1.24.45.17.07.3.13.4.19a.54.54 0 0 1 .13.1c.01 0 .08.12.12.35.07.33.1.85.19 1.4.04.27.1.56.23.87a2.08 2.08 0 0 0 1.45 1.27c.26.06.51.07.75.07.36 0 .7-.04 1-.07.3-.04.58-.07.78-.06.2 0 .32.03.33.04 0 0 .12.07.25.26.22.27.46.72.78 1.18.16.23.35.47.6.68a1.99 1.99 0 0 0 1.39.56c.46 0 .84-.14 1.16-.3.49-.24.9-.53 1.24-.73.17-.1.32-.18.43-.22a.63.63 0 0 1 .2-.06.9.9 0 0 1 .33.11c.28.13.65.4 1.08.65.22.13.45.26.71.36.27.1.57.2.92.2a2.01 2.01 0 0 0 1.13-.36c.34-.23.57-.5.77-.77.3-.4.52-.81.72-1.11.1-.15.2-.27.27-.35a.53.53 0 0 1 .12-.1.72.72 0 0 1 .33-.04c.2 0 .48.02.78.06.3.03.64.07 1 .07.24 0 .5-.01.76-.08a2.06 2.06 0 0 0 1.3-.96c.2-.36.29-.7.35-1.04.1-.48.12-.94.17-1.3.03-.18.06-.33.1-.43a.53.53 0 0 1 .06-.16s.1-.1.32-.19c.31-.14.8-.28 1.32-.49.26-.1.53-.23.8-.42.26-.19.54-.45.71-.82a2.07 2.07 0 0 0 .2-.9 3.5 3.5 0 0 0-.14-.92c-.1-.41-.26-.78-.36-1.1a3 3 0 0 1-.16-.68v-.07l.05-.08c.05-.1.17-.25.35-.43.25-.27.6-.58.93-.97.16-.2.32-.4.45-.68.13-.26.23-.58.23-.94h-1m-30.5-21a2.6 2.6 0 1 1-5.2 0 2.6 2.6 0 0 1 5.2 0m29.75 39a3.35 3.35 0 1 1-6.7 0 3.35 3.35 0 0 1 6.7 0"/></g></svg>