<svg width="72" height="58" xmlns="http://www.w3.org/2000/svg" xmlns:xlink="http://www.w3.org/1999/xlink"><defs><path d="M51.1 35.7a3 3 0 0 1-2.8-3c0-.4 0-.8.2-1.1l.4-1-1-.3a5.1 5.1 0 0 1-3.3-4.8l.1-1.1.3-1.2h-1.4a4.6 4.6 0 0 1-4.6-4.6V17l-1.2.4a3.2 3.2 0 0 1-1.1.2 3.3 3.3 0 0 1-3.3-3.2c0-.6.2-1.2.5-1.7l.7-1-1.2-.4a26 26 0 0 0-7.4-1 26 26 0 1 0 26 26.3v-.9h-.9z" id="b"/><filter x="-50%" y="-50%" width="200%" height="200%" filterUnits="objectBoundingBox" id="a"><feOffset dx="2" in="SourceAlpha" result="shadowOffsetOuter1"/><feGaussianBlur stdDeviation=".5" in="shadowOffsetOuter1" result="shadowBlurOuter1"/><feColorMatrix values="0 0 0 0 0 0 0 0 0 0 0 0 0 0 0 0 0 0 0.5 0" in="shadowBlurOuter1"/></filter></defs><g fill="none" fill-rule="evenodd"><g transform="rotate(14 33.7 105.7)" fill="#FFF"><path d="M51.1 25.4a3 3 0 0 1-2.8-3c0-.3 0-.7.2-1l.4-1-1-.3a5.1 5.1 0 0 1-3.3-4.8l.1-1.2.3-1.1h-1.4A4.6 4.6 0 0 1 39 8.4V6.8l-1.2.4a3.2 3.2 0 0 1-1.1.2 3.3 3.3 0 0 1-3.3-3.2c0-.6.2-1.2.5-1.7l.7-1-1.2-.4A26 26 0 0 0 26 0a26 26 0 1 0 26 26.4v-1h-.9zM26 50.1c-7.5 0-14.3-3.4-18.7-8.9a3.2 3.2 0 1 0 .3-6.3 3.2 3.2 0 0 0-3 2.2 24 24 0 0 1-2.7-10.7 2 2 0 0 0 2 1.5 2 2 0 0 0 0-4.1 2 2 0 0 0-2 1.5 24.2 24.2 0 0 1 19.4-23l-.2 1a2.2 2.2 0 1 0 4.4 0 2.2 2.2 0 0 0-.5-1.4h1c2 0 4 .2 5.8.7a5 5 0 0 0-.2 1.6 5.1 5.1 0 0 0 5 5h.6a6.5 6.5 0 0 0 5.5 5.6 6.5 6.5 0 0 0 0 .5 7 7 0 0 0 3.8 6.2 4.8 4.8 0 0 0 3.6 5.7 24.2 24.2 0 0 1-24.1 23z" stroke="#FFF"/><ellipse cx="14.5" cy="11.4" rx="2" ry="2"/><ellipse cx="27.9" cy="14.1" rx="2.9" ry="2.9"/><ellipse cx="15.5" cy="21.6" rx="3.1" ry="3.1"/><circle cx="26.5" cy="29.5" r="3.8"/><ellipse cx="34" cy="42.5" rx="2.3" ry="2.3"/><ellipse cx="41.6" cy="32.9" rx="2" ry="2"/><circle cx="20.8" cy="41.7" r="2.6"/><ellipse cx="39.1" cy="20.7" rx="2" ry="2"/></g><g transform="translate(0 -6)"><use fill="#000" filter="url(#a)" xlink:href="#b"/><use fill="#282828" xlink:href="#b"/></g><g transform="translate(1.9 4.2)" fill="#FFF" stroke="#FFF"><path d="M51.1 25.4a3 3 0 0 1-2.8-3c0-.3 0-.7.2-1l.4-1-1-.3a5.1 5.1 0 0 1-3.3-4.8l.1-1.2.3-1.1h-1.4A4.6 4.6 0 0 1 39 8.4V6.8l-1.2.4a3.2 3.2 0 0 1-1.1.2 3.3 3.3 0 0 1-3.3-3.2c0-.6.2-1.2.5-1.7l.7-1-1.2-.4A26 26 0 0 0 26 0a26 26 0 1 0 26 26.4v-1h-.9zM26 50.1c-7.5 0-14.3-3.4-18.7-8.9a3.2 3.2 0 1 0 .3-6.3 3.2 3.2 0 0 0-3 2.2 24 24 0 0 1-2.7-10.7 2 2 0 0 0 2 1.5 2 2 0 0 0 0-4.1 2 2 0 0 0-2 1.5 24.2 24.2 0 0 1 19.4-23l-.2 1a2.2 2.2 0 1 0 4.4 0 2.2 2.2 0 0 0-.5-1.4h1c2 0 4 .2 5.8.7a5 5 0 0 0-.2 1.6 5.1 5.1 0 0 0 5 5h.6a6.5 6.5 0 0 0 5.5 5.6 6.5 6.5 0 0 0 0 .5 7 7 0 0 0 3.8 6.2 4.8 4.8 0 0 0 3.6 5.7 24.2 24.2 0 0 1-24.1 23z"/><ellipse cx="14.5" cy="11.4" rx="2" ry="2"/><ellipse cx="27.9" cy="14.1" rx="2.9" ry="2.9"/><ellipse cx="15.5" cy="21.6" rx="3.1" ry="3.1"/><ellipse cx="26.5" cy="29.5" rx="3.8" ry="3.8"/><ellipse cx="34" cy="42.5" rx="2.3" ry="2.3"/><ellipse cx="41.6" cy="32.9" rx="2" ry="2"/><ellipse cx="20.8" cy="41.7" rx="2.6" ry="2.6"/><ellipse cx="39.1" cy="20.7" rx="2" ry="2"/></g></g></svg>