<svg width="69" height="71" xmlns="http://www.w3.org/2000/svg"><defs><filter x="-50%" y="-50%" width="200%" height="200%" filterUnits="objectBoundingBox" id="a"><feOffset dy="1" in="SourceAlpha" result="shadowOffsetOuter1"/><feColorMatrix values="0 0 0 0 0 0 0 0 0 0 0 0 0 0 0 0 0 0 0.15 0" in="shadowOffsetOuter1" result="shadowMatrixOuter1"/><feMerge><feMergeNode in="shadowMatrixOuter1"/><feMergeNode in="SourceGraphic"/></feMerge></filter></defs><g filter="url(#a)" fill="#FFF" fill-rule="evenodd"><path d="M61 41.5h-1.2v.2c0 3.7 0 7.1-.4 10.2a20 20 0 0 1-1.7 6.1 12.3 12.3 0 0 1-2.7 3.6 17 17 0 0 1-7.3 3.9c-3.3 1-7.6 1.4-13.1 1.4-6.5 0-11.4-.7-14.9-2-2.6-1-4.6-2.2-6-3.7a16 16 0 0 1-2.5-3.7c-.9-2.1-1.3-4.6-1.6-7.3-.2-2.7-.2-5.6-.2-8.7a25.5 25.5 0 0 1 7.4-18 25 25 0 0 1 35.6 0 25.5 25.5 0 0 1 7.4 18h2.5c0-15.5-12.4-28-27.7-28a27.9 27.9 0 0 0-27.8 28c0 3.7 0 7.2.5 10.5.3 2.5.8 4.9 1.9 7a15 15 0 0 0 3.1 4.4c2 2 4.8 3.5 8.5 4.5 3.6 1 8.1 1.6 13.8 1.6a47 47 0 0 0 15.7-2.2c3-1 5.2-2.5 7-4.2 1.2-1.4 2.2-2.9 2.9-4.5 1-2.4 1.6-5.1 1.9-8 .2-2.8.2-5.8.2-8.9v-.2h-1.2"/><path d="M61 41.5h-1.2v.2c0 3.7 0 7.1-.4 10.2a20 20 0 0 1-1.7 6.1 12.3 12.3 0 0 1-2.7 3.6 17 17 0 0 1-7.3 3.9c-3.3 1-7.6 1.4-13.1 1.4-6.5 0-11.4-.7-14.9-2-2.6-1-4.6-2.2-6-3.7a16 16 0 0 1-2.5-3.7c-.9-2.1-1.3-4.6-1.6-7.3-.2-2.7-.2-5.6-.2-8.7a25.5 25.5 0 0 1 7.4-18 25 25 0 0 1 35.6 0 25.5 25.5 0 0 1 7.4 18h2.5c0-15.5-12.4-28-27.7-28a27.9 27.9 0 0 0-27.8 28c0 3.7 0 7.2.5 10.5.3 2.5.8 4.9 1.9 7a15 15 0 0 0 3.1 4.4c2 2 4.8 3.5 8.5 4.5 3.6 1 8.1 1.6 13.8 1.6a47 47 0 0 0 15.7-2.2c3-1 5.2-2.5 7-4.2 1.2-1.4 2.2-2.9 2.9-4.5 1-2.4 1.6-5.1 1.9-8 .2-2.8.2-5.8.2-8.9v-.2h-1.2"/><path d="M55.7 54.5h-1.3a4.3 4.3 0 0 1-2.2 3.7 3.5 3.5 0 0 1-1.6.3H19a4.8 4.8 0 0 1-1.9-.3 6.2 6.2 0 0 1-2.3-1.8 4.3 4.3 0 0 1-.7-1 2.3 2.3 0 0 1-.2-.9V39.7c0-.4.1-.6.3-1 .4-.4 1-.9 1.9-1.2.8-.4 1.8-.6 2.9-.6h31.6c1.4 0 2.3.4 3 .8a2.3 2.3 0 0 1 .8 2v14.8H57V39.7a5.1 5.1 0 0 0-.5-2.2 5 5 0 0 0-2.3-2.4c-1-.5-2.3-.7-3.6-.7H19c-1.8 0-3.6.4-5 1.3-.7.4-1.4 1-1.8 1.6a4.2 4.2 0 0 0-.8 2.4v14.8c0 1 .3 1.7.7 2.5a8.2 8.2 0 0 0 6.9 4h31.6a6 6 0 0 0 2.7-.5 6.7 6.7 0 0 0 3.7-6h-1.3M37.7 5h-1.3a2 2 0 0 1-2 2 2 2 0 0 1-2.1-2 2 2 0 0 1 2-2.1 2 2 0 0 1 2 2H39c0-2.5-2-4.5-4.6-4.5-2.5 0-4.6 2-4.6 4.6A4.6 4.6 0 1 0 39 5h-1.3"/><path d="M32.3 15.3h2.5V7.6h-2.5zM19.6 19v6.4a1.3 1.3 0 0 0 1.3 1.2c.7 0 1.3-.5 1.3-1.2V19a1.3 1.3 0 0 0-1.3-1.3c-.7 0-1.3.6-1.3 1.3m26.6 0v6.4a1.3 1.3 0 0 0 1.3 1.2c.7 0 1.2-.5 1.2-1.2V19a1.3 1.3 0 0 0-1.2-1.3c-.7 0-1.3.6-1.3 1.3M7.6 52.6H6.3l.1.6.2.4h.5-.5.5-.5l1-.2h-1v.2l1-.2h-1 1.2l-1.2-.3v.3h1.2l-1.2-.3 1.2.3-1-.6a1.3 1.3 0 0 0-.2.3l1.2.3-1-.6 1 .6-.6-1c-.2 0-.4.3-.5.4l1.1.6-.6-1 .6 1v-1.2a1.2 1.2 0 0 0-.6.1l.6 1.1v-1.2H2.2v1.1l.4-1-.4-.1v1.1l.4-1-.3.6.4-.6h-.1l-.3.6.4-.6a2 2 0 0 1-.3-.2l-.5.3.5-.3-.5.3.5-.3-1 .5h1.1v-.5l-1 .5h1V37H1.4l1 .6a1.2 1.2 0 0 0 .1-.6H1.4l1 .6-1-.6.6 1 .3-.4-1-.6.7 1-.6-1 .2 1.1.4-.1-.6-1 .2 1.1-.2-.8v.8h.2l-.2-.8v.8-.3.3-.3.3l.2.1h6.2A1.3 1.3 0 0 0 9.1 37a1.3 1.3 0 0 0-.1-.6l-.3-.4a1.5 1.5 0 0 0-.4-.2 1.4 1.4 0 0 0-.6-.2 1.3 1.3 0 0 0-1 .4 1.4 1.4 0 0 0-.3.5 1.4 1.4 0 0 0 0 .5v15.7h2.5V37H7.8l1 .3a1 1 0 0 0 0-.3h-1l1 .3-1.1-.3.7 1a1.2 1.2 0 0 0 .4-.7L7.7 37l.7 1-.7-1v1c.1 0 .4 0 .7-.2l-.7-1V38v-1l-.5 1h.5v-1l-.5 1 .4-1-.7.8a1 1 0 0 0 .3.2l.4-1-.7.8.8-.8-1 .6.2.2.8-.8-1 .6 1-.7-1 .4v.3l1-.7-1 .4 1.1-.4H6.6v.4l1.2-.4H6.6h1.2l-1-.6c-.2.2-.2.4-.2.6h1.2l-1-.6 1 .6-.8-1a1.3 1.3 0 0 0-.3.4l1.1.6-.8-1 .8 1-.3-1.2a1.2 1.2 0 0 0-.5.2l.8 1-.3-1.2.3 1.1v-1.2a1.2 1.2 0 0 0-.3 0l.3 1.2v-1.2H2.2v1l.2-1h-.2v1l.2-1v.2-.2.2-.2H2l-.6-.1c-.2 0-.4 0-.7.2a1.4 1.4 0 0 0-.6.4 1.4 1.4 0 0 0-.2.8v15.7l.2.8.4.5a4.4 4.4 0 0 0 1 .6 1.8 1.8 0 0 0 .3.2h6a1.3 1.3 0 0 0 1.3-1V53l-.2-.3v-.2l-.8.1H9v-.1l-.8.1H9 7.6m59.5 0h-1.3l.1.6.2.4h.5-.5.5-.5l1-.2h-1v.2l1-.2h-1 1.2l-1.2-.3v.3h1.2l-1.2-.3 1.2.3-1-.6a1.3 1.3 0 0 0-.2.3l1.2.3-1-.6 1 .6-.6-1c-.2 0-.4.3-.5.4l1.1.6-.6-1 .6 1v-1.2a1.2 1.2 0 0 0-.6.1l.6 1.1v-1.2h-5.6v1.1l.4-1-.4-.1v1.1l.4-1-.3.6.4-.6H62l-.3.6.4-.6a2 2 0 0 1-.3-.2l-.5.3.5-.3-.5.3.5-.3-1 .5H62v-.5l-1 .5h1V37h-1l1 .6a1.2 1.2 0 0 0 .1-.6H61l1 .6-1-.6.6 1 .3-.4-1-.6.7 1-.6-1 .2 1.1a1 1 0 0 0 .4-.1l-.6-1 .2 1.1-.1-.8v.8h.1l-.1-.8v.8-.3.3-.3.3l.2.1h6.1a1.3 1.3 0 0 0 1.3-1.2 1.3 1.3 0 0 0-.1-.6l-.3-.4a1.5 1.5 0 0 0-.4-.2 1.4 1.4 0 0 0-.6-.2 1.3 1.3 0 0 0-1.3 1 1.4 1.4 0 0 0 0 .4v15.7h2.5V37h-1.1l1 .3a1 1 0 0 0 0-.3h-1l1 .3-1.1-.4.7 1a1.2 1.2 0 0 0 .4-.6l-1.1-.4.7 1-.7-1V38c.2 0 .4 0 .7-.2l-.7-1V38v-1l-.5 1h.5v-1l-.5 1 .4-1-.7.8a1 1 0 0 0 .3.2l.4-1-.7.8.8-.8-1 .6.2.2.8-.8-1 .6 1-.7-1 .4v.3l1-.7-1 .4 1.1-.4h-1.2v.4l1.2-.4h-1.2 1.2l-1-.6a1.3 1.3 0 0 0-.2.6h1.2l-1-.6 1 .6-.8-1a1.3 1.3 0 0 0-.3.4l1.1.6-.8-1 .8 1-.3-1.2a1.2 1.2 0 0 0-.5.2l.8 1-.3-1.2.3 1.1v-1.2a1.2 1.2 0 0 0-.3 0l.3 1.2v-1.2h-5.6v1l.2-1h-.2v1l.2-1v.2-.2.2-.2h-.3l-.6-.1c-.2 0-.4 0-.7.2a1.4 1.4 0 0 0-.8 1.2v15.7l.2.8.4.5a4.4 4.4 0 0 0 1 .6 1.8 1.8 0 0 0 .3.2 1.3 1.3 0 0 0 .3 0h5.6a1.3 1.3 0 0 0 1.3-1V53l-.1-.3-.1-.2-.8.1h.8v-.1l-.8.1h.8H67m-42.9-5.8l4.8-4.9a1.3 1.3 0 0 0 0-1.8 1.3 1.3 0 0 0-1.8 0L22.4 45a1.3 1.3 0 0 0 0 1.8 1.3 1.3 0 0 0 1.8 0M29 55l13.5-13.5a1.3 1.3 0 0 0 0-1.8 1.3 1.3 0 0 0-1.8 0L27.2 53.2a1.3 1.3 0 0 0 0 1.8 1.3 1.3 0 0 0 1.8 0m13.3 0l4.4-4.4a1.3 1.3 0 0 0 0-1.8 1.3 1.3 0 0 0-1.8 0l-4.4 4.4a1.3 1.3 0 0 0 0 1.8 1.3 1.3 0 0 0 1.8 0"/></g></svg>