<svg width="139" height="28" xmlns="http://www.w3.org/2000/svg"><defs><filter x="-50%" y="-50%" width="200%" height="200%" filterUnits="objectBoundingBox" id="a"><feOffset dx="-2" in="SourceAlpha" result="shadowOffsetOuter1"/><feColorMatrix values="0 0 0 0 0 0 0 0 0 0 0 0 0 0 0 0 0 0 0.15 0" in="shadowOffsetOuter1" result="shadowMatrixOuter1"/><feMerge><feMergeNode in="shadowMatrixOuter1"/><feMergeNode in="SourceGraphic"/></feMerge></filter><linearGradient x1="-18.384%" y1="118.346%" x2="91.782%" y2="8.547%" id="b"><stop offset="0%"/><stop stop-color="#FFF" offset="100%"/></linearGradient></defs><g filter="url(#a)" transform="rotate(45 103.014 54.088)" fill="none" fill-rule="evenodd"><path d="M63.563 29.254c0 1.444.367 2.725 1.1 3.793L62.1 35.615c-.272.294-.072.497.216.786l2.012 2.003c.277.294.465.475.748.187l2.78-2.778c.624.229 2.121.628 4.385.296l1.74-1.311c.13-.099.357-.245.507-.327l1.563-.855-1.253 1.266c-.12.121-.324.3-.453.398l-1.496 1.127 2.55 6.977a.45.45 0 0 0 .735.171l5.985-5.693a.455.455 0 0 0 .134-.248l1.342-7.499c1.632-1.411 3.284-3.053 4.913-4.882 9.376-10.53 10.775-18.76 10.775-22.728 0-1.307-.159-2.027-.165-2.057a.452.452 0 0 0-.365-.346c-.466-.08-11.581-1.793-26.046 12.662-.018.02-1.897 1.957-3.92 4.674l-7.428 2.065a.451.451 0 0 0-.226.147l-5.284 6.349a.452.452 0 0 0 .221.722l7.1 2.064 1.195-1.375c.106-.122.295-.308.423-.418l1.334-1.143-.945 1.48a4.67 4.67 0 0 1-.356.478l-1.258 1.447zM79.24 13.868c2.348-2.348 5.694-2.81 7.473-1.03 1.78 1.78 1.319 5.125-1.03 7.474-2.348 2.348-5.693 2.809-7.473 1.03-1.78-1.78-1.318-5.126 1.03-7.474z" fill="#FFF"/><path d="M79.225 13.894c2.348-2.349 5.694-2.81 7.473-1.03 1.78 1.78 1.319 5.125-1.03 7.473-2.348 2.349-5.693 2.81-7.473 1.03-1.78-1.78-1.318-5.125 1.03-7.473z" fill-opacity=".1" fill="url(#b)"/><path d="M62.342 40.43L9.359 93.336a.815.815 0 0 1-1.152 0l-.573-.572a.813.813 0 0 1 0-1.15l52.982-52.909a.815.815 0 0 1 1.152 0l.574.573a.813.813 0 0 1 0 1.15m-.762 6.738L8.595 100.074a.815.815 0 0 1-1.152 0l-.573-.573a.813.813 0 0 1 0-1.15l52.983-52.908a.815.815 0 0 1 1.152 0l.573.572a.813.813 0 0 1 0 1.15M2.027 94.388a.817.817 0 0 1-1.152 0L.3 93.816a.813.813 0 0 1 0-1.15l52.983-52.91a.815.815 0 0 1 1.152 0l.574.573a.813.813 0 0 1 0 1.15L2.027 94.39z" fill="#FFF"/></g></svg>