<svg width="78" height="71" xmlns="http://www.w3.org/2000/svg"><defs><filter x="-50%" y="-50%" width="200%" height="200%" filterUnits="objectBoundingBox" id="a"><feOffset dy="1" in="SourceAlpha" result="shadowOffsetOuter1"/><feColorMatrix values="0 0 0 0 0 0 0 0 0 0 0 0 0 0 0 0 0 0 0.15 0" in="shadowOffsetOuter1" result="shadowMatrixOuter1"/><feMerge><feMergeNode in="shadowMatrixOuter1"/><feMergeNode in="SourceGraphic"/></feMerge></filter></defs><g filter="url(#a)" fill="#FFF" fill-rule="evenodd"><path d="M36.24 21.208h-1.155c0 .36-.14.673-.36.901a1.15 1.15 0 0 1-1.667 0 1.286 1.286 0 0 1-.361-.9c0-.361.14-.674.36-.901.224-.228.51-.357.834-.359.324.002.61.131.833.359.221.227.361.54.361.9h2.311a3.6 3.6 0 0 0-1.016-2.515 3.468 3.468 0 0 0-2.489-1.058 3.47 3.47 0 0 0-2.49 1.058 3.604 3.604 0 0 0-1.015 2.515 3.6 3.6 0 0 0 1.016 2.515 3.469 3.469 0 0 0 2.49 1.058c.973 0 1.861-.41 2.488-1.058a3.6 3.6 0 0 0 1.016-2.515h-1.155m5.225-17.097H40.31c0 .36-.14.674-.36.902a1.152 1.152 0 0 1-1.666 0 1.287 1.287 0 0 1-.361-.902c0-.36.14-.672.36-.9a1.15 1.15 0 0 1 1.667 0c.22.228.36.54.36.9h2.312a3.6 3.6 0 0 0-1.016-2.515A3.464 3.464 0 0 0 39.117.54a3.467 3.467 0 0 0-2.49 1.057 3.605 3.605 0 0 0-1.015 2.515 3.6 3.6 0 0 0 1.016 2.516 3.467 3.467 0 0 0 2.49 1.057 3.464 3.464 0 0 0 2.488-1.057 3.6 3.6 0 0 0 1.016-2.516h-1.156m5.226 17.096h-1.156c0 .36-.14.673-.36.901a1.146 1.146 0 0 1-1.666 0 1.286 1.286 0 0 1-.361-.9c0-.361.14-.674.36-.902.224-.227.51-.356.834-.358.324.002.61.131.833.359.22.227.36.54.36.9h2.312a3.6 3.6 0 0 0-1.016-2.515 3.47 3.47 0 0 0-2.49-1.058c-.973 0-1.861.41-2.488 1.058a3.602 3.602 0 0 0-1.016 2.515 3.6 3.6 0 0 0 1.016 2.515 3.468 3.468 0 0 0 2.489 1.058c.973 0 1.862-.41 2.489-1.058a3.6 3.6 0 0 0 1.016-2.515h-1.156"/><path d="M52.94 21.116h-1.156c0 2.355-.923 4.444-2.412 5.957a8.121 8.121 0 0 1-5.809 2.431h-8.825a8.12 8.12 0 0 1-5.809-2.431c-1.489-1.513-2.412-3.602-2.413-5.957.001-2.356.924-4.445 2.413-5.957a8.12 8.12 0 0 1 5.809-2.432h8.825a8.121 8.121 0 0 1 5.809 2.432c1.489 1.512 2.412 3.601 2.412 5.957h2.312c0-2.97-1.175-5.654-3.08-7.583a10.43 10.43 0 0 0-7.453-3.12h-8.825a10.429 10.429 0 0 0-7.453 3.12c-1.905 1.93-3.081 4.613-3.08 7.583-.001 2.97 1.175 5.653 3.08 7.582a10.429 10.429 0 0 0 7.453 3.12h8.825a10.43 10.43 0 0 0 7.453-3.12c1.905-1.93 3.08-4.613 3.08-7.582H52.94m3.104 37.314v-1.157H21.956V38.182h32.933V58.43h1.155v-1.157 1.157H57.2V35.868H19.644v23.719H57.2V58.43h-1.156"/><path d="M67.282 59.298h-1.155c-.001 2.355-.925 4.444-2.414 5.956a8.12 8.12 0 0 1-5.808 2.432h-37.51a8.12 8.12 0 0 1-5.807-2.432c-1.49-1.512-2.413-3.6-2.414-5.956 0-2.356.924-4.445 2.414-5.957a8.12 8.12 0 0 1 5.808-2.432h37.509a8.12 8.12 0 0 1 5.808 2.432c1.49 1.512 2.413 3.6 2.414 5.957h2.31c.001-2.97-1.174-5.654-3.08-7.583a10.43 10.43 0 0 0-7.452-3.12h-37.51a10.43 10.43 0 0 0-7.452 3.12c-1.905 1.93-3.08 4.613-3.08 7.583 0 2.969 1.175 5.653 3.08 7.582A10.43 10.43 0 0 0 20.396 70h37.509a10.43 10.43 0 0 0 7.453-3.12c1.905-1.93 3.08-4.613 3.08-7.582h-1.156"/><path d="M20.396 63.636c-2.342 0-4.177-1.905-4.177-4.338s1.835-4.34 4.177-4.34h37.509c2.342 0 4.177 1.907 4.177 4.34s-1.835 4.338-4.177 4.338h-37.51M41.6 36.446V35.29h-4.622v-2.892h3.466v4.05H41.6V35.29v1.157h1.156v-6.363h-8.09v7.52h8.09v-1.157H41.6m-20.12 5.511L9.544 29.688 7.89 31.302l11.934 12.27m37.04 1.321L70.336 31.31l-1.64-1.63-13.471 13.582"/><path d="M5.851 27.344l-.828-.808c-.33.349-.877.593-1.411.718a5.251 5.251 0 0 1-1.147.142h-.03v.035-.036.036-.036l.003.001-.082-.002a1.96 1.96 0 0 0-1.308.467 1.766 1.766 0 0 0-.59 1.33c0 .3.069.583.18.842.062.146.285.58.915 1.227l.045.047-.046-.047a5.67 5.67 0 0 0 4.076 1.733 5.67 5.67 0 0 0 4.075-1.733 5.936 5.936 0 0 0 1.672-4.147 5.933 5.933 0 0 0-1.672-4.146l-.007-.006.005.005c-.624-.64-1.023-.863-1.182-.936a2.12 2.12 0 0 0-.874-.198 1.728 1.728 0 0 0-1.531.897 2.038 2.038 0 0 0-.244.993v.113c.002.143-.012.66-.14 1.22-.123.564-.37 1.145-.706 1.481l.827.808.828.807c.78-.811 1.12-1.784 1.306-2.587a8.15 8.15 0 0 0 .197-1.73l-.001-.109v-.003l-.415-.03.283.274a.444.444 0 0 0 .132-.244l-.415-.03.283.274-.404-.392v.572a.589.589 0 0 0 .404-.18l-.404-.392v.572-.32l-.073.312.073.008v-.32l-.073.312.028-.116-.04.114.012.002.028-.116-.04.114.004.001.244-.54-.302.511.058.029.244-.54-.302.511c.004.002.19.114.541.474a3.617 3.617 0 0 1 1.017 2.531c0 .925-.34 1.837-1.017 2.533a3.357 3.357 0 0 1-2.42 1.033 3.355 3.355 0 0 1-2.418-1.033 3.907 3.907 0 0 1-.42-.496l-.05-.076-.596.312.618-.266-.021-.046-.597.312.618-.266-.05-.118.05.118-.002-.004-.229.075h.239l-.01-.075-.229.075h.239-.552l.358.407a.575.575 0 0 0 .194-.407h-.552l.358.407-.316-.36.152.458a.486.486 0 0 0 .164-.098l-.316-.36.152.458-.087-.26.041.271.046-.011-.087-.26.041.271-.009-.062v.063h.01l-.01-.063v.063h.005c.012 0 .048.002.104.002a7.51 7.51 0 0 0 1.686-.205c.784-.192 1.741-.552 2.529-1.354l-.829-.807m66.531 0l-.828.807c.788.802 1.745 1.162 2.529 1.354a7.498 7.498 0 0 0 1.79.203h.005v-.063l-.01.062.01.001v-.063l-.01.062.069-.446-.322.293a.47.47 0 0 0 .254.153l.068-.446-.322.293.397-.363h-.547a.564.564 0 0 0 .15.363l.397-.363h-.547.299l-.292-.065-.007.065h.299l-.292-.065.107.024-.104-.034-.003.01.107.024-.104-.034-.002.004.769.33-.752-.369-.017.039.769.33-.752-.369.191.094-.186-.102-.005.008.191.094-.186-.102c-.005.008-.116.209-.47.573a3.357 3.357 0 0 1-2.419 1.033 3.357 3.357 0 0 1-2.419-1.033 3.617 3.617 0 0 1-1.017-2.533c0-.924.34-1.836 1.017-2.531.233-.24.394-.37.476-.43l.064-.043-.301-.51.244.538.057-.028-.301-.51.244.538.004-.001-.085-.247v.257c.053 0 .081-.01.085-.01l-.085-.247v.257-.531l-.212.485c.08.035.16.047.212.046v-.531l-.212.485.233-.533-.511.283a.602.602 0 0 0 .278.25l.233-.533-.511.283.347-.192-.388.09.04.102.348-.192-.388.09.193-.045-.197.022.004.024.193-.046-.197.022.07-.008-.07.004v.004l.07-.008-.07.004v.006-.002c0 .012-.002.05-.002.11.001.257.016.922.197 1.729.186.803.526 1.776 1.305 2.587l.828-.807.828-.808c-.336-.336-.583-.917-.706-1.482a5.927 5.927 0 0 1-.14-1.219v-.113a1.962 1.962 0 0 0-.454-1.296 1.712 1.712 0 0 0-.606-.447 1.782 1.782 0 0 0-.715-.147 2.1 2.1 0 0 0-.873.198c-.16.072-.56.295-1.184.936a5.932 5.932 0 0 0-1.673 4.147 5.935 5.935 0 0 0 1.672 4.147 5.67 5.67 0 0 0 4.075 1.733 5.67 5.67 0 0 0 4.076-1.733c.63-.647.852-1.081.915-1.227.11-.259.18-.542.18-.842.008-.474-.205-1-.591-1.33a1.96 1.96 0 0 0-1.308-.467l-.082.002h.003v.033-.034.034-.034l-.03.001c-.13 0-.617-.013-1.147-.142-.534-.125-1.081-.37-1.412-.718l-.828.808M37.556 11.57h2.31V6.364h-2.31zM20.8 42.231h19.644v-2.314H20.8zm0 4.629h19.644v-2.315H20.8zm31.936-4.647h-1.155a1.147 1.147 0 0 1-.322.805 1.02 1.02 0 0 1-1.48 0 1.147 1.147 0 0 1-.322-.805c0-.322.125-.601.322-.805.2-.202.452-.317.74-.318.287.001.54.116.74.318.197.204.321.483.322.805h2.31c0-.936-.37-1.797-.976-2.419a3.338 3.338 0 0 0-2.396-1.018c-.938 0-1.793.395-2.396 1.018a3.467 3.467 0 0 0-.977 2.42c0 .936.372 1.797.977 2.418a3.333 3.333 0 0 0 2.396 1.018 3.335 3.335 0 0 0 2.396-1.018 3.465 3.465 0 0 0 .977-2.419h-1.156"/></g></svg>