<svg width="98" height="74" xmlns="http://www.w3.org/2000/svg"><g fill="#FFF" fill-rule="evenodd"><path d="M96.384 53.5h-1.617c-.001 1.045-.26 2.068-.793 3.11-.927 1.82-2.738 3.681-5.355 5.399-3.919 2.58-9.597 4.817-16.405 6.377C65.407 69.95 57.468 70.852 49 70.852c-12.903.003-24.582-2.102-32.892-5.426-4.155-1.657-7.459-3.622-9.643-5.69-1.094-1.032-1.908-2.085-2.44-3.125-.532-1.043-.791-2.066-.792-3.111 0-1.046.26-2.07.792-3.112.927-1.82 2.738-3.68 5.355-5.398 3.92-2.58 9.598-4.817 16.405-6.377C32.593 37.05 40.531 36.148 49 36.148c12.903-.004 24.58 2.101 32.892 5.426 4.155 1.657 7.458 3.621 9.642 5.689 1.095 1.032 1.908 2.086 2.44 3.125.533 1.042.792 2.066.793 3.112H98c0-1.568-.403-3.096-1.133-4.517-1.283-2.493-3.517-4.677-6.44-6.602-4.39-2.882-10.387-5.202-17.47-6.832C65.873 33.923 57.703 33 49 33c-13.267.004-25.28 2.135-34.12 5.66-4.419 1.77-8.055 3.882-10.665 6.343-1.304 1.231-2.352 2.556-3.083 3.98C.402 50.404-.002 51.932 0 53.5c-.002 1.567.402 3.094 1.132 4.517 1.283 2.492 3.517 4.676 6.44 6.601 4.391 2.882 10.387 5.202 17.471 6.832C32.125 73.077 40.295 74 49 74c13.266-.004 25.28-2.136 34.118-5.661 4.42-1.77 8.056-3.882 10.667-6.343 1.304-1.23 2.352-2.555 3.082-3.98.73-1.422 1.134-2.95 1.133-4.516h-1.616"/><path d="M89.78 46.567c0 .866.72 1.568 1.61 1.568.89 0 1.61-.702 1.61-1.568 0-.865-.72-1.567-1.61-1.567-.89 0-1.61.702-1.61 1.567zm-1.957 4.701a1.539 1.539 0 0 0 .226 2.206 1.64 1.64 0 0 0 2.266-.22 1.539 1.539 0 0 0-.226-2.205 1.641 1.641 0 0 0-2.266.219zM83.32 54.97a1.543 1.543 0 0 0-.504 2.162 1.637 1.637 0 0 0 2.221.49c.753-.461.978-1.43.503-2.162a1.637 1.637 0 0 0-2.22-.49zm-5.493 2.718a1.553 1.553 0 0 0-.872 2.048c.34.8 1.283 1.18 2.104.848.822-.332 1.212-1.249.872-2.048-.341-.8-1.283-1.18-2.104-.848zm-5.916 1.995c-.854.24-1.347 1.11-1.1 1.94.246.832 1.14 1.312 1.993 1.072.856-.24 1.348-1.109 1.101-1.94-.246-.832-1.138-1.311-1.994-1.072zm-6.128 1.44c-.873.169-1.44.993-1.267 1.843.173.848 1.02 1.4 1.893 1.231.872-.168 1.44-.992 1.267-1.842-.173-.849-1.021-1.4-1.893-1.232zm-6.248.977c-.882.108-1.508.891-1.398 1.75.11.86.916 1.468 1.799 1.36.882-.107 1.508-.89 1.397-1.75-.11-.858-.915-1.467-1.798-1.36zm-6.313.57c-.888.053-1.563.797-1.509 1.66.054.865.819 1.523 1.706 1.47.888-.054 1.564-.797 1.509-1.661-.055-.864-.818-1.521-1.706-1.468zm-6.344.195c-.89.002-1.609.706-1.607 1.57.002.867.725 1.567 1.614 1.565.89-.002 1.61-.705 1.607-1.57-.002-.867-.725-1.566-1.614-1.565zm-6.351-.156c-.889-.046-1.647.618-1.694 1.482-.047.865.635 1.603 1.523 1.648.888.047 1.646-.617 1.693-1.482.048-.864-.634-1.602-1.522-1.648zm-6.325-.51c-.883-.098-1.68.52-1.781 1.38-.101.86.534 1.637 1.418 1.735.883.097 1.68-.52 1.781-1.38.101-.86-.533-1.637-1.418-1.735zm-6.262-.901c-.875-.158-1.715.406-1.876 1.257-.16.851.417 1.668 1.292 1.825.874.158 1.714-.406 1.875-1.257.162-.851-.417-1.668-1.291-1.825zm-6.15-1.356c-.86-.228-1.744.264-1.978 1.1-.235.834.271 1.696 1.129 1.924.858.228 1.744-.264 1.978-1.1.234-.834-.271-1.696-1.13-1.924zm-5.94-1.914c-.827-.321-1.764.07-2.094.874-.33.804.073 1.716.9 2.037.824.321 1.762-.07 2.092-.875.33-.803-.073-1.715-.899-2.037v.001zm-5.512-2.657c-.756-.457-1.749-.232-2.218.504a1.542 1.542 0 0 0 .517 2.158 1.636 1.636 0 0 0 2.218-.503 1.543 1.543 0 0 0-.517-2.159zM5.87 51.684a1.641 1.641 0 0 0-2.263-.251 1.54 1.54 0 0 0-.258 2.202 1.64 1.64 0 0 0 2.263.251 1.54 1.54 0 0 0 .258-2.202zm22.24-25.73c2.976 1.4 10.46 4.391 20.173 4.396 5.905 0 12.634-1.114 19.63-4.375 4.502 4.369 7.453 10.212 7.996 16.71a50.737 50.737 0 0 1-4.564 2.236c-3.207 1.375-7.215 2.648-10.837 2.643-.45 0-.814.35-.814.782 0 .43.365.781.814.781 4.276-.005 8.732-1.546 12.153-3.064a52.697 52.697 0 0 0 3.335-1.629c.003.144.004.287.004.431 0 14.847-56 14.847-56 0 0-.225.003-.45.009-.674a52.741 52.741 0 0 0 3.786 1.872c3.421 1.518 7.878 3.059 12.152 3.064.45 0 .815-.35.815-.781 0-.432-.364-.782-.815-.782-3.862.006-8.165-1.445-11.467-2.918a51.002 51.002 0 0 1-4.368-2.204c.597-6.411 3.54-12.172 7.997-16.488zm1.264-1.151C34.324 20.57 40.85 18 48 18c7.162 0 13.697 2.579 18.649 6.822-6.557 2.953-12.828 3.964-18.366 3.965-6.089 0-11.29-1.227-14.963-2.454a42.813 42.813 0 0 1-3.946-1.53z"/><path d="M49.48 9.283l7.268-1.692a1.63 1.63 0 0 0 1.24-1.385 1.609 1.609 0 0 0-.884-1.626l-8.69-4.4a1.692 1.692 0 0 0-1.62.055A1.62 1.62 0 0 0 46 1.62v18.76c0 .895.74 1.62 1.655 1.62.914 0 1.655-.725 1.655-1.62l.17-11.097z"/></g></svg>