<svg width="82" height="81" xmlns="http://www.w3.org/2000/svg"><g fill="#FFF" fill-rule="evenodd"><path d="M17.41 20.294c0 2.096-1.732 3.795-3.87 3.795-2.137 0-3.869-1.699-3.869-3.795s1.732-3.796 3.87-3.796c2.137 0 3.869 1.7 3.869 3.796m48.14 48.052c0 .828-.684 1.5-1.528 1.5-.846 0-1.53-.672-1.53-1.5 0-.83.684-1.5 1.53-1.5.844 0 1.529.67 1.529 1.5M35.542 55.012l-1.377.553a15.557 15.557 0 0 1 1.208 6.002c0 3.127-.95 6.18-2.685 8.76a16.045 16.045 0 0 1-7.387 5.949 16.41 16.41 0 0 1-6.12 1.185c-3.19 0-6.301-.932-8.932-2.633a15.872 15.872 0 0 1-6.064-7.247 15.558 15.558 0 0 1-1.21-6.002c0-3.128.95-6.18 2.686-8.76a16.04 16.04 0 0 1 7.388-5.949 16.406 16.406 0 0 1 6.12-1.185c3.189 0 6.3.932 8.931 2.633a15.878 15.878 0 0 1 6.065 7.247l1.377-.553 1.378-.551a18.806 18.806 0 0 0-7.182-8.58 19.46 19.46 0 0 0-17.815-1.713 19.015 19.015 0 0 0-8.747 7.044A18.607 18.607 0 0 0 0 61.579c0 2.37.46 4.781 1.43 7.106a18.804 18.804 0 0 0 7.18 8.58 19.46 19.46 0 0 0 17.816 1.713c3.71-1.487 6.697-3.99 8.747-7.044a18.6 18.6 0 0 0 3.176-10.367c0-2.37-.46-4.781-1.43-7.107l-1.377.552"/><path d="M10.119 48.911L45.309 2.78a1.441 1.441 0 0 0-.3-2.043 1.508 1.508 0 0 0-2.082.295L7.737 47.163a1.44 1.44 0 0 0 .3 2.043c.657.482 1.59.35 2.082-.295m24.25 24.432l47.034-34.516a1.44 1.44 0 0 0 .3-2.042 1.507 1.507 0 0 0-2.082-.295L32.586 71.006a1.441 1.441 0 0 0-.3 2.043 1.507 1.507 0 0 0 2.083.294m3.907-27.893l30.631-31.594a1.44 1.44 0 0 0-.053-2.064 1.51 1.51 0 0 0-2.104.052L36.12 43.439a1.44 1.44 0 0 0 .054 2.064 1.508 1.508 0 0 0 2.103-.053M25.648 75.23c-2.724-4.05-5.68-7.907-9.206-11.319-1.828-1.769-3.996-3.122-6.07-4.585-1.797-1.268-4.234-1.856-5.919-3.144-1.1-.84-2.623.347-2.123 1.59.544 1.349 1.643 1.665 2.86 2.409 2.077 1.271 3.884 3.002 5.71 4.586 4.205 3.645 7.617 8.153 10.211 13.025 1.784 3.345 6.654.583 4.537-2.562"/><path d="M35.876 60.62c-2.09.656-8.949-1.58-11.42-2.508-2.914-1.094-5.503-2.671-7.921-4.584-1.58-1.248-4.243-3.255-4.894-5.29-.747-2.33-4.626-.554-3.109 1.758 3.506 5.342 10.075 9.056 16.056 10.963 1.287.41 12.404 3.44 12.321.257-.012-.515-.607-.729-1.033-.596"/></g></svg>