<svg width="68" height="69" xmlns="http://www.w3.org/2000/svg"><defs><filter x="-50%" y="-50%" width="200%" height="200%" filterUnits="objectBoundingBox" id="a"><feOffset dy="1" in="SourceAlpha" result="shadowOffsetOuter1"/><feColorMatrix values="0 0 0 0 0 0 0 0 0 0 0 0 0 0 0 0 0 0 0.15 0" in="shadowOffsetOuter1" result="shadowMatrixOuter1"/><feMerge><feMergeNode in="shadowMatrixOuter1"/><feMergeNode in="SourceGraphic"/></feMerge></filter></defs><g filter="url(#a)" fill="#FFF" fill-rule="evenodd"><path d="M1.3 33.8h1.2H2l.5.3a.6.6 0 0 0 .1-.3H2l.5.3-.2-.1.2.2-.2-.2.2.2.4-.3c.5-.3 1.3-.5 2.1-.8 1.3-.4 2.8-.8 4-1.3.7-.2 1.2-.4 1.7-.8l.8-.5a2 2 0 0 0 .5-1.4 2.2 2.2 0 0 0-.1-.8l-.8-1.1-1.8-1.8L6 22.8l-1-1a1.6 1.6 0 0 1-.2-.3l-.4.1H5h-.4.4-.6l.6.3a.7.7 0 0 0 0-.3h-.6l.6.3-.5-.2.3.5a.6.6 0 0 0 .2-.3l-.5-.2.3.5-.2-.2.2.2-.2-.2.2.2A1.2 1.2 0 0 1 5 22h.7c.9 0 2 0 3.2.2l3.4.2 1.5-.1.7-.3.7-.6c.3-.4.3-.9.3-1.2 0-.4 0-.8-.2-1.2-.2-.7-.5-1.4-1-2.2l-1.7-3.3a13.8 13.8 0 0 1-.8-2.1l-.4-.1.4.2a.4.4 0 0 0 0-.1l-.4-.1.4.2-.6-.3.5.5a.7.7 0 0 0 0-.2l-.5-.3.5.5-.5-.5.2.6a.6.6 0 0 0 .3-.1l-.5-.5.2.6-.1-.3v.3h.1l-.1-.3v.3l.5.1 1.8.8 3.4 1.8 1.6.7 1.6.4a2 2 0 0 0 1.2-.4c.3-.2.5-.4.6-.7l.3-1 .1-1.2-.2-3.4a33.6 33.6 0 0 1-.2-4.1v-.1l-.2-.2.2.2-.2-.2.2.2-.5-.4.3.6a.6.6 0 0 0 .2-.2l-.5-.4.3.6-.3-.6V5a.7.7 0 0 0 .3 0l-.3-.6V5v-.4.4-.4.4-.2.2-.2.2l.4.3L23.3 7l2.7 3c.4.5.8 1 1.3 1.3l.7.5 1 .2h.4a2 2 0 0 0 .8-.4c.5-.4.7-.8 1-1.2L32 8l1.3-4 .5-1.2.1-.2-.2-.2.2.3-.2-.3.2.3-.3-.6v.6a.6.6 0 0 0 .3 0l-.3-.6v.6V2l-.3.5a.6.6 0 0 0 .3.1V2l-.3.5.2-.2-.2.2.2-.2-.2.2.3.4.8 2.1c.4 1.3.8 2.8 1.3 4l.7 1.7.6.8a2 2 0 0 0 1.4.5l.8-.1 1.1-.8 1.8-1.8 2.5-3 1-1A1.7 1.7 0 0 1 46 5v-.4.4-.4.4-.6l-.3.6a.7.7 0 0 0 .2 0v-.6l-.2.6.2-.5-.5.3.3.2.2-.5-.5.3.2-.1h-.2.2-.2a1.3 1.3 0 0 1 0 .4l.1.8c0 .8 0 2-.2 3l-.2 3.5.1 1.5c0 .2.1.5.3.7.1.3.3.5.6.7a2 2 0 0 0 1.2.4l1.2-.3 2.2-.9 3.3-1.8a13.8 13.8 0 0 1 2.1-.8v-.4.4-.4.4l.2-.6-.5.5a.7.7 0 0 0 .2.1l.3-.6-.5.5.5-.5-.6.2a.6.6 0 0 0 .1.3l.5-.5-.6.2h.3-.4.4-.4a2 2 0 0 1 0 .4l-.8 1.8-1.8 3.4a16.4 16.4 0 0 0-.7 1.6c-.2.5-.4 1-.4 1.6 0 .3 0 .8.4 1.2.2.3.4.5.7.6.3.2.7.3 1 .3l1.2.1 3.4-.2a33.6 33.6 0 0 1 4.1-.2h.1l.2-.2-.3.2h.1l.2-.2-.3.2.5-.5-.6.3a.6.6 0 0 0 .1.2l.5-.5-.6.3.6-.3h-.7v.3l.7-.3h-.7.5-.4.4-.4.1-.1.1-.1l-.4.4-1.5 1.4-3.2 2.7c-.5.4-.9.8-1.2 1.3l-.5.7a2.3 2.3 0 0 0-.3 1v.4l.5.9c.3.4.7.6 1.1.8l2.6 1 4 1.3 1.2.6h.1l.3-.1H65a.3.3 0 0 0 0 .2l.3-.2H65l.6-.2H65a.6.6 0 0 0 0 .3l.6-.3H65h.5l-.5-.3a.6.6 0 0 0 0 .3h.5l-.5-.3.3.2-.2-.2.2.2-.2-.2-.5.3-2 .8c-1.3.4-2.8.8-4 1.3l-1.8.7-.7.6a2 2 0 0 0-.5 1 1.8 1.8 0 0 0 0 .4l.1.8.7 1.1 1.9 1.8 3 2.6a8.7 8.7 0 0 1 1.2 1.2h.4-.4.4-.4.7l-.6-.3a.7.7 0 0 0 0 .2h.6l-.6-.2.5.2-.3-.5a.6.6 0 0 0-.2.3l.5.2-.3-.5.1.2v-.2h-.1l.1.2v-.2l-.4.1h-.8c-.8 0-2 0-3.1-.2l-3.4-.2-1.5.1a3 3 0 0 0-.7.3 2 2 0 0 0-.7.6 2 2 0 0 0-.4 1.2l.2 1.2 1 2.2 1.7 3.3a13.9 13.9 0 0 1 .8 2.1h.5-.4.4-.4l.6.2-.5-.5a.7.7 0 0 0-.1.2l.6.3-.5-.5.5.5-.2-.6a.6.6 0 0 0-.3.1l.5.5-.2-.6v.3-.3.3-.3a2 2 0 0 1-.5-.1l-1.7-.8-3.4-1.8-1.6-.7c-.5-.2-1-.4-1.6-.4a2 2 0 0 0-1.2.4 2 2 0 0 0-.6.7l-.4 1a8 8 0 0 0 0 1.2c0 1 0 2.2.2 3.4a33.6 33.6 0 0 1 .1 4.1v.1l.3.2-.2-.3v.1l.2.2-.2-.3.4.5-.2-.6a.6.6 0 0 0-.2.1l.4.5-.2-.6.2.6v-.6a.7.7 0 0 0-.2 0l.2.6v-.6.4l.1-.4v.4-.4.1-.1.1-.1a2 2 0 0 1-.4-.3l-1.5-1.6-2.6-3.2-1.3-1.2a4.1 4.1 0 0 0-.8-.5 2.3 2.3 0 0 0-1-.2h-.3a2 2 0 0 0-.9.4c-.4.4-.6.7-.8 1.2-.4.7-.7 1.6-1 2.5l-1.3 4-.6 1.2v.1l.1.3-.1-.3.1.3-.1-.3.2.6V65a.6.6 0 0 0-.2 0l.2.6V65v.5l.3-.5a.6.6 0 0 0-.3 0v.5l.3-.5-.1.3.2-.2-.2.2.2-.2-.3-.5c-.3-.4-.5-1.2-.8-2-.4-1.3-.8-2.8-1.3-4-.2-.7-.5-1.3-.8-1.8a3.4 3.4 0 0 0-.5-.7 2 2 0 0 0-1-.5 1.9 1.9 0 0 0-.4 0 2.2 2.2 0 0 0-.8.1l-1.1.7-1.8 1.9-2.6 3a8.7 8.7 0 0 1-1.3 1.3l.1.3v-.4.4-.4.7l.3-.6a.7.7 0 0 0-.3 0v.6l.3-.6-.2.5.4-.3a.6.6 0 0 0-.2-.2l-.2.5.4-.3-.2.1h.3v-.1l-.3.1h.3a1.3 1.3 0 0 1-.1-.4 5.8 5.8 0 0 1 0-.8c0-.8 0-2 .2-3.1l.2-3.4-.1-1.5a3 3 0 0 0-.3-.7 2 2 0 0 0-.6-.7 2 2 0 0 0-1.2-.4l-1.2.3-2.2.9-3.3 1.7a14.3 14.3 0 0 1-2.2.9v.4l.2-.4a.4.4 0 0 0-.2 0v.4l.2-.4-.3.6.5-.5a.7.7 0 0 0-.2-.1l-.3.6.5-.5-.5.5.6-.2a.6.6 0 0 0-.1-.3l-.5.5.6-.2h-.3.3-.3.3a1.9 1.9 0 0 1 .1-.5l.8-1.7 1.8-3.4.7-1.6c.2-.5.3-1 .3-1.6a2 2 0 0 0-.3-1.2 2 2 0 0 0-.7-.6l-1.1-.4a7.8 7.8 0 0 0-1.1 0c-1 0-2.3 0-3.4.2a34.3 34.3 0 0 1-4.2.2l-.2.2.2-.2-.2.2.2-.2-.4.4.6-.2a.6.6 0 0 0-.2-.2l-.4.4.6-.2-.6.2h.6a.7.7 0 0 0 0-.2l-.6.2h.6-.4l.4.1h-.4.4-.2.2-.2.2l.3-.4 1.6-1.5c1-.8 2.2-1.7 3.1-2.6l1.3-1.3.5-.8a2.3 2.3 0 0 0 .2-1v-.3a2 2 0 0 0-.4-.9c-.4-.4-.8-.6-1.2-.8-.7-.4-1.6-.7-2.5-1l-4-1.3-1.2-.6h-.2l-.2.1.3-.1-.3.1.3-.1-.6.2h.6a.6.6 0 0 0 0-.2l-.6.2h.6H0c0 .4.2.8.3 1l.5.6L2 36l2.4 1c1.3.3 2.8.7 3.8 1.1a6.8 6.8 0 0 1 1.4.7l.1-.2-.2.2.2-.2-.2.2.5-.3h-.5a.6.6 0 0 0 0 .3l.5-.3h-.5.5-.5.5-.5.4l-.4-.1h.4-.4.1-.1.1-.1L9 39l-1.6 1.5-3 2.5-1.3 1.3a4 4 0 0 0-.4.7 2.3 2.3 0 0 0-.2 1 1.8 1.8 0 0 0 .8 1.5c.4.3.8.4 1.2.4l1.2.1 3.4-.2a34 34 0 0 1 4.1-.2h.1l.1-.2-.1.2.1-.2-.1.2.3-.4-.4.3a.6.6 0 0 0 0 .1l.4-.4-.4.3.4-.3-.5.1v.2l.5-.3-.5.1h.2-.2.2-.2l-.1.5-.8 1.8-1.8 3.3-.7 1.6c-.2.6-.3 1-.3 1.6v.7a1.8 1.8 0 0 0 1.2 1.2l.7.1c.5 0 .9 0 1.3-.2a15 15 0 0 0 2.1-1l3.4-1.7a13.9 13.9 0 0 1 2-.8h.1V54l-.2.4a.5.5 0 0 0 .2.1V54l-.2.4.3-.4-.5.3a.5.5 0 0 0 .2.1l.3-.4-.5.3.1.3v.7c0 .9 0 2-.2 3.1l-.2 3.4.1 1.7.4.8.8.7.7.1.9-.1 1-.8c.7-.5 1.2-1.1 1.8-1.8 1-1 1.8-2.2 2.6-3.1a8.7 8.7 0 0 1 1.3-1.2v-.3.3-.3.3-.6l-.2.6h.1v-.6l-.1.6.1-.5-.3.4.2.1.1-.5-.3.4.3.5.8 2.2c.4 1.3.8 2.8 1.3 4 .2.7.5 1.3.8 1.8l.7.7c.3.2.7.3 1.1.3a2 2 0 0 0 1-.2l.6-.5.7-1.2 1-2.4a25 25 0 0 1 1.1-3.8l.6-1.2a1 1 0 0 1 0-.2v-.2.3-.3.3l-.2-.6v.6a.6.6 0 0 0 .2 0l-.2-.6v.6-.6.6-.6.6-.4l-.1.4v-.4.4-.1.1-.1.1l.5.4 1.5 1.6 2.5 3 1.3 1.3.8.5 1 .2a1.8 1.8 0 0 0 1.5-.8l.4-1.2.1-1.3-.2-3.4a33.2 33.2 0 0 1-.2-4v-.1l-.2-.2.2.2-.2-.2.2.2-.4-.4.3.5a.6.6 0 0 0 .1 0l-.4-.5.3.5-.3-.4.1.5a.6.6 0 0 0 .2 0l-.3-.5.1.5v-.3.3-.3.3l.5.1 1.7.8 3.4 1.8 1.6.7c.6.2 1 .3 1.6.3h.7a1.8 1.8 0 0 0 .8-.5l.4-.8.1-.7c0-.4 0-.8-.2-1.2-.2-.7-.5-1.4-1-2.1l-1.7-3.4a14 14 0 0 1-.8-2.1h-.1.1-.1.1-.5l.4.2a.5.5 0 0 0 .1-.2h-.5l.4.2-.4-.3.3.5a.5.5 0 0 0 .1-.2l-.4-.3.3.5.3-.1a5.7 5.7 0 0 1 .7 0c.8 0 2 0 3.1.2l3.4.2c.6 0 1.1 0 1.7-.2l.8-.3.7-.9a1.8 1.8 0 0 0 .1-.7 2.2 2.2 0 0 0-.2-.8c-.1-.4-.4-.8-.7-1a7.7 7.7 0 0 0-1.8-1.8c-1-1-2.2-1.8-3.1-2.6l-1-1a1.7 1.7 0 0 1-.2-.3h-.3.3-.3.3-.6l.6.2v-.1h-.6.6-.5l.4.3a.5.5 0 0 0 .1-.2l-.5-.1.4.3.5-.3c.5-.3 1.3-.5 2.2-.8 1.3-.4 2.8-.8 4-1.3a8 8 0 0 0 1.7-.9l.8-.6c.2-.3.3-.7.3-1.2a1.9 1.9 0 0 0-.2-1 2.5 2.5 0 0 0-.6-.5 5 5 0 0 0-1.1-.7l-2.4-1-3.8-1.1-1.2-.6a1 1 0 0 1-.2-.1l-.2.2.2-.2-.2.2.2-.2-.5.3h.6a.6.6 0 0 0 0-.3l-.6.3h.6-.6.6-.6.6-.4l.4.1h-.4.4-.1.1-.1.1l.4-.5 1.6-1.5 3-2.6c.5-.4 1-.8 1.3-1.3l.5-.7.2-1-.1-.7a1.9 1.9 0 0 0-.7-.8 3 3 0 0 0-1.2-.4 7.7 7.7 0 0 0-1.3-.1l-3.4.2a33.2 33.2 0 0 1-4 .2h-.1l-.2.2.2-.2-.2.2.2-.2-.4.4.5-.3a.6.6 0 0 0-.1-.1l-.4.4.5-.3-.4.3.5-.1a.6.6 0 0 0 0-.2l-.5.3.5-.1h-.3.3-.3.3a2 2 0 0 1 .1-.5l.8-1.8 1.8-3.3.7-1.6c.2-.6.3-1 .3-1.6v-.8a1.8 1.8 0 0 0-.5-.7 1.9 1.9 0 0 0-.8-.4 2.3 2.3 0 0 0-.7-.1c-.4 0-.8 0-1.2.2-.7.2-1.4.5-2.2 1l-3.3 1.7a14 14 0 0 1-2.1.8l-.1.5.3-.4a.5.5 0 0 0-.2-.1l-.1.5.3-.4-.3.4.4-.3a.5.5 0 0 0-.1-.1l-.3.4.4-.3a1.4 1.4 0 0 1 0-.3 5.7 5.7 0 0 1 0-.7c0-.9 0-2 .2-3.2L48 6c0-.6 0-1.2-.2-1.7a2.7 2.7 0 0 0-.3-.8 1.9 1.9 0 0 0-.9-.7 1.8 1.8 0 0 0-.7-.1 2.2 2.2 0 0 0-.8.1l-1.1.8-1.8 1.8c-.8 1-1.7 2.2-2.5 3l-1 1a1.7 1.7 0 0 1-.3.3v.3-.3.3-.3.6l.2-.6h-.1v.6-.6.4l.3-.3a.5.5 0 0 0-.2-.1l-.1.4.3-.3-.3-.5c-.3-.5-.5-1.3-.8-2.2-.4-1.3-.8-2.8-1.3-4a8 8 0 0 0-.9-1.8 3 3 0 0 0-.6-.7 2 2 0 0 0-1.2-.4l-1 .3-.5.5a5 5 0 0 0-.8 1.2l-.9 2.4-1.1 3.8-.6 1.2a1 1 0 0 1-.1.2l.2.2-.2-.3.2.3-.2-.3.3.6-.1-.6a.6.6 0 0 0-.2 0l.3.6-.1-.6.1.5v-.5.5-.5.4l.1-.4v.4-.4.1-.1.1-.1a2.5 2.5 0 0 1-.5-.4l-1.5-1.6-2.6-3a4 4 0 0 0-1.3-1.3 4 4 0 0 0-.7-.5 2.3 2.3 0 0 0-1-.2l-.7.1a1.9 1.9 0 0 0-.8.7 3 3 0 0 0-.4 1.2 7.8 7.8 0 0 0-.1 1.3c0 1 0 2.2.2 3.3a33.6 33.6 0 0 1 .2 4.1v.1l.2.1-.2-.1.2.1-.2-.1.4.3-.3-.4a.6.6 0 0 0-.1 0l.4.4-.3-.4.3.4-.1-.5a.6.6 0 0 0-.2 0l.3.5-.1-.5v.2-.2.2-.2a2 2 0 0 1-.5-.1l-1.8-.8-3.3-1.8a16.4 16.4 0 0 0-1.7-.7c-.5-.2-1-.3-1.6-.3h-.7l-.7.5a1.8 1.8 0 0 0-.4.7 2.2 2.2 0 0 0-.1.8c0 .4 0 .8.2 1.2l.9 2.1 1.8 3.4a14 14 0 0 1 .8 2.1h.5l-.4-.2a.5.5 0 0 0-.1.2h.5l-.4-.2.4.3-.3-.5a.5.5 0 0 0-.1.2l.4.3-.3-.5-.3.1h-.7c-.9 0-2 0-3.2-.2l-3.4-.2-1.6.1a2.7 2.7 0 0 0-.8.4 1.9 1.9 0 0 0-.7.8 1.8 1.8 0 0 0-.1.7l.1.9.8 1c.5.7 1.1 1.2 1.8 1.8 1 1 2.2 1.8 3 2.6a8.6 8.6 0 0 1 1.3 1.3h.3-.3.3-.3.5l-.5-.2v.1h.5-.5.4l-.3-.3a.5.5 0 0 0-.1.2l.4.1-.3-.3-.5.3-2.2.8c-1.3.4-2.8.8-4 1.3A8 8 0 0 0 1 32a3 3 0 0 0-.7.7 2 2 0 0 0-.4 1.1h1.3"/><path d="M16.3 33.8h1.2a16.2 16.2 0 0 1 4.8-11.4 16.2 16.2 0 0 1 11.4-4.8 16 16 0 0 1 11.5 4.8A16.2 16.2 0 0 1 50 33.8c0 4.5-1.9 8.6-4.8 11.5a16.2 16.2 0 0 1-11.5 4.8 16.2 16.2 0 0 1-11.4-4.8 16.2 16.2 0 0 1-4.8-11.5H15a18.7 18.7 0 1 0 37.4 0 18.7 18.7 0 0 0-37.4 0h1.3"/></g></svg>