<svg width="71" height="62" xmlns="http://www.w3.org/2000/svg"><defs><filter x="-50%" y="-50%" width="200%" height="200%" filterUnits="objectBoundingBox" id="a"><feOffset dy="1" in="SourceAlpha" result="shadowOffsetOuter1"/><feColorMatrix values="0 0 0 0 0 0 0 0 0 0 0 0 0 0 0 0 0 0 0.15 0" in="shadowOffsetOuter1" result="shadowMatrixOuter1"/><feMerge><feMergeNode in="shadowMatrixOuter1"/><feMergeNode in="SourceGraphic"/></feMerge></filter></defs><g filter="url(#a)" fill="#FFF" fill-rule="evenodd"><path d="M69.102 15.534l-.176-1.251-17.997 2.504-1.604-11.455 16.742-2.33 1.78 12.707 1.255-.175-.176-1.251.176 1.251 1.256-.174L68.228.15 46.463 3.178l2.305 16.461 21.765-3.029-.175-1.251-1.256.174"/><path d="M48.858 15.387l-.175-1.252-15.082 2.099-.708-5.057 13.825-1.925.884 6.31 1.256-.175-.175-1.252.175 1.252 1.256-.175-1.236-8.813-18.847 2.623 1.41 10.065 18.849-2.623-.176-1.252-1.256.175"/><path d="M33.104 17.58l-.175-1.253-22.666 3.155-.708-5.058 21.41-2.98.884 6.31 1.255-.175-.175-1.252.175 1.252 1.256-.175-1.234-8.812L6.692 12.27l1.41 10.064 26.433-3.678-.175-1.252-1.256.175"/><path d="M9.345 22.071L9.17 20.82l-4.58.637-1.033-7.384 3.322-.462 1.21 8.635 1.256-.175-.175-1.251.175 1.251 1.256-.175-1.56-11.138-8.346 1.161L2.43 24.31l8.347-1.16-.176-1.253-1.256.175m17.914-3.115v39.81c0 .7.567 1.265 1.268 1.265.7 0 1.268-.566 1.268-1.264v-39.81c0-.699-.568-1.264-1.268-1.264-.7 0-1.268.565-1.268 1.263m-3.804 0v39.81c0 .7.568 1.265 1.268 1.265.7 0 1.268-.566 1.268-1.264v-39.81c0-.699-.567-1.264-1.268-1.264-.7 0-1.268.565-1.268 1.263"/><path d="M24.723 60.032h3.804c.7 0 1.268-.566 1.268-1.264 0-.698-.568-1.264-1.268-1.264h-3.804c-.7 0-1.268.566-1.268 1.264 0 .698.568 1.264 1.268 1.264m3.607-31.537l22.559 22.487a1.271 1.271 0 0 0 1.793 0 1.261 1.261 0 0 0 0-1.788L30.123 26.707a1.271 1.271 0 0 0-1.793 0 1.261 1.261 0 0 0 0 1.788m-.144 4.84l20.57 20.504a1.27 1.27 0 0 0 1.792 0 1.26 1.26 0 0 0 0-1.787L29.98 31.548a1.27 1.27 0 0 0-1.793 0 1.26 1.26 0 0 0 0 1.787"/><path d="M50.548 53.839l2.5-2.491a1.261 1.261 0 0 0 0-1.788 1.271 1.271 0 0 0-1.793 0l-2.5 2.492a1.26 1.26 0 0 0 0 1.787 1.27 1.27 0 0 0 1.793 0M23.696 26.707L1.136 49.194a1.261 1.261 0 0 0 0 1.788 1.27 1.27 0 0 0 1.793 0l22.56-22.487a1.261 1.261 0 0 0 0-1.788 1.27 1.27 0 0 0-1.793 0m.142 4.841L3.27 52.052a1.26 1.26 0 0 0 0 1.787 1.271 1.271 0 0 0 1.793 0l20.568-20.504a1.26 1.26 0 0 0 0-1.787 1.271 1.271 0 0 0-1.793 0"/><path d="M5.063 52.052l-2.5-2.492a1.27 1.27 0 0 0-1.793 0 1.261 1.261 0 0 0 0 1.788l2.5 2.491a1.271 1.271 0 0 0 1.793 0 1.26 1.26 0 0 0 0-1.787"/></g></svg>