<svg width="101" height="52" xmlns="http://www.w3.org/2000/svg"><g fill="#FFF" fill-rule="evenodd"><path d="M37.102 50.632V26h10.306v-2.737H34.354v27.369h2.748"/><path d="M28.857 52H42.6v-2.737H28.857zm0-4.79H42.6v-2.736H28.857zm39.163 3.422V23.263H54.966V26h10.306v24.632h2.748"/><path d="M59.776 52h13.741v-2.737H59.776zm0-4.79h13.741v-2.736H59.776zM39.163 13h22.674a1.37 1.37 0 0 0 1.374-1.368 1.37 1.37 0 0 0-1.374-1.369H39.163a1.37 1.37 0 0 0-1.374 1.369A1.37 1.37 0 0 0 39.163 13"/><path d="M99.626 15.737v-1.369H63.21v-4.79h35.04v6.159h1.375v-1.369 1.369H101V6.842H60.463v10.263H101v-1.368h-1.374m-60.463-.684v-1.369H2.748v-4.79H37.79v6.159h1.374v-1.369 1.369h1.374V6.158H0V16.42h40.537v-1.368h-1.374"/><path d="M9.619 7.526v6.842a1.37 1.37 0 0 0 1.374 1.369 1.37 1.37 0 0 0 1.374-1.369V7.526a1.37 1.37 0 0 0-1.374-1.368A1.37 1.37 0 0 0 9.62 7.526m15.115 0v6.842a1.37 1.37 0 0 0 1.374 1.369 1.37 1.37 0 0 0 1.374-1.369V7.526a1.37 1.37 0 0 0-1.374-1.368 1.37 1.37 0 0 0-1.374 1.368m63.898 1.369v6.842a1.37 1.37 0 0 0 1.374 1.368 1.37 1.37 0 0 0 1.374-1.368V8.895a1.37 1.37 0 0 0-1.374-1.369 1.37 1.37 0 0 0-1.374 1.369m-15.116 0v6.842a1.37 1.37 0 0 0 1.374 1.368 1.37 1.37 0 0 0 1.374-1.368V8.895a1.37 1.37 0 0 0-1.374-1.369 1.37 1.37 0 0 0-1.374 1.369M55.653 34.21v-1.368h-7.558V2.737h6.184V34.21h1.374v-1.369 1.369h1.374V0h-11.68v35.579h11.68V34.21h-1.374"/></g></svg>